<?xml version="1.0" encoding="utf-8"?>
<!-- Generator: Adobe Illustrator 21.0.2, SVG Export Plug-In . SVG Version: 6.00 Build 0)  -->
<svg version="1.1" id="Layer_1" xmlns="http://www.w3.org/2000/svg" xmlns:xlink="http://www.w3.org/1999/xlink" x="0px" y="0px"
   viewBox="0 0 1500 1100" xml:space="preserve">
<style type="text/css">
  .st0{fill:#808080;}
  .st1{fill:#CCCCCC;}
  .st2{fill:none;stroke:#454545;stroke-width:1.5;}
  .st4{fill:currentColor;}
  .ta-e{text-anchor:end;}
</style>
<g id="Map" xmlns:inkscape="http://www.inkscape.org/namespaces/inkscape" xmlns:sodipodi="http://sodipodi.sourceforge.net/DTD/sodipodi-0.dtd">
  <path id="path2381" inkscape:connector-curvature="0" sodipodi:nodetypes="cccccccccc" class="st0" d="M95.7,163.1l4.8,4.6l3-2.7
    l-1.1-1.5l-1.9-0.5l-2.4-2.6l-2.9-0.1l-0.5,0.5l0.5,1L95.7,163.1z"/>
  <path id="path2383" inkscape:connector-curvature="0" sodipodi:nodetypes="cccccccccccc" class="st0" d="M89.2,158.3l0.1-2.5
    l1.2-0.9l-1.4-1.7l-2.7-0.3l-2-1.8l-0.8,0.4l0.2,2.2l0.9,0.5l0.2,3.9l2.7,1.4L89.2,158.3L89.2,158.3z"/>
  <path id="path2385" inkscape:connector-curvature="0" sodipodi:nodetypes="cccccccccccccccccccccccccccccccccc" class="st0" d="
    M112.1,144.8l1.2-0.4l0.4-4.4l1.7-2.1l-1.2-1.3l-2.4-0.7l-0.8-2.4l-3.8-1.7l-1.7-1.4l-0.1-1.5l-3.6-3.5l-3.3-0.3l-1.7-1.8l-1.6-0.1
    l-0.9-1v-1.6l-2.9-2.5l-0.2-1.2l-1-1.5l-3.5-0.1l-0.4,2l-1.6,1.1l-0.3,1.3l2.9,5.2l0.5,2.8l1.6,1l4,0.3l3,3l0.2,3.6l3.7,1.6
    l3.7,3.9l0.4,1.5l4.5,1.4L112.1,144.8L112.1,144.8z"/>
  <path id="path3461" inkscape:connector-curvature="0" class="st0" d="M114.7,16.9l-3.2,2.9l1,1.1l0.5,2.3l2.1,0.8l5.5-1.5l-0.4-1.1
    l-1.4-0.4l-1.3-0.9l-0.3-1.8l-1.7-1.3C115.5,17,114.7,16.9,114.7,16.9z"/>
  <path id="path3463" inkscape:connector-curvature="0" class="st0" d="M139.7,14.1l2.7,2.7l0.3,1.3l1.9,2.1l-1.8,1.5l-2.2-1.6
    l-2.9-0.4v-5.6H139.7z"/>
  <path class="st1" d="M822.9,895.6v-1.1l-1.8-1.6l-1.4-0.1l-0.6-0.8l-5.3-0.1l-0.5,0.9l-1.5,0.3L811,894l-1.1-0.4l-0.5-0.6H808
    l-0.6,1h-1.6l-0.9-0.9v-2.3l1-0.4l-0.3-1.9l-2-1.4l-2.4-0.4l-2.8,0.9l-0.1,1.4l-3.8-0.3l-2.4,2.4l0.1,2.4l-3,3v1.4h-4.3l-2.4-3.2
    l-13.8,0.1l-0.6,1h-1.4l-0.9,0.9l-1.8-0.1l-1,1l-1.9-0.1v2.3l-1.8,2.1H757l0.1,0.9l0.1,2.4l-1,1.1l-0.3,1.4l-0.9,0.8l-0.1,2.4
    l-0.8,1h-0.5l-1-1.5v-1l-5.9-5.6l-0.1-8.8l-0.9-1.3l-0.1-0.6l2-2.1l1.5,0.5l0.9,1l0.8,0.8h1l0.6-0.9h1.5l1.4-2.1l2.8,0.1l1.3-1.3
    c0.4-0.4,3.9-3.8,3.9-3.8l0.3-0.5l3-3.2v-1.5l3-2.7l0.1-3l-1.1-0.8l0.1-5.7l-2.4-3h-1.1l-1.1-1h-1.9l-2,1.6l-0.4,1.3l-1-0.1l-0.4,1
    l-0.3,0.8l-4.3,4.3l-1.3-0.1l-6.1-5.9v-0.9l-1.5-1.8l-1.3-0.3l-0.3-2.1l-0.9-0.6l0.8-0.3v-1.3l0.9-0.8l0.4-2.3l-1.1-0.8l-0.3-0.6
    l1.5-0.4l-0.1-1.1l-1.1-0.9l-1.6-1.9l-1.5-0.1l-1.1-0.8l-1.4-1.5l-4.9-3.5l-1.4-0.1l0.5-2.9l-1.3-1l0.8-0.3v-1.3l-0.9-0.4l0.9-0.5
    l0.4-2l0.5-0.5l0.3-1.8l1-0.1l1.1-1l1-0.8l0.1-0.9l0.9-1.1l0.1-7.6l-2.5-1.9l-3.8,0.1l-2.1-1.9l0.1-1.9l-2.8-0.3l-1.1,1l-0.6,0.3
    l0.4,1.8l0.8,0.3v0.9l-1.9-0.3l-1.4,1l-3.9,0.1l-0.9,1l-0.9-0.1l-1.3,1l-0.9-0.1l-1.1,1l-0.8-0.1l-1.4,1.4H709l-4.9,4l-3.9-0.3
    l-1.3,0.9l0.1,1.1l-1.3,0.8l0.3,2.8l1.8,1.9l3.2,0.3l0.4,0.6l1.6,0.3l1.5,1l0.4,0.1l1.3,0.8l-0.1,1.3l1.3,0.9v0.5l-0.8,0.6
    l-1.6,1.3h-0.5l-1.4,1.1l-0.1,2.5l3.5,2.8l1.9,0.1l0.9,1l-0.3,1.5l-0.6,0.8l0.3,0.8l-1.5,1.4h-4.9l-0.9,0.9l-0.9-0.1l-5.3,5.4
    l0.1,1l-2,1.9v0.8l-1,0.9l0.1,1.3l-1.4,1h-0.8l-1.1,0.6v1.1l0.9,0.8l0.4,3.9l20.3,0.1l1.4-1.1l1.9,0.1l0.9-1l-0.3-7.1h6.6l3.3,2.9
    l3.8,0.3l1,0.9l0.1,5.9l2,2.1v1.1l1,0.6l-0.1,1.8l-1.1,1.1v1.5l1.1,0.9l-0.3,0.8l1.4,1.3v1.1l-2.3,2.1v2.9l1.1,0.8l-0.1,1.4h-1.4
    l-2.7,2.4l-0.1,1l5.4,4.9l0.9,0.1l0.9,1v0.6l-2,2.1v11.6l-0.8,1.1l0.1,2l-1.3,1l-0.1,1l-0.9,0.8l-0.1,2.9l1.1,0.8v4l-1,1v3.5
    l-2.1,2h-1.9l-0.9,0.9l-0.1,2.3l-2,1.9h-0.9l-1.1,1l-0.8-0.1l-4.9,4.3L717,957l1.4,0.4l-0.1,1.8l1.3,0.1l-0.1,1.9l1.1,0.1l-0.3,1
    l1-0.1l0.1,1l2.9,0.1l0.1,0.8l2.1,0.1l-0.3,1l1.3,0.1v1h1.8l-0.1,0.8l6.2,0.1l0.3-1l0.8-0.3V965l0.9-0.1l0.3-2l1.9,0.3l-0.3,1.9
    l1.3,0.4v0.6l0.8,0.3l0.4,0.9l1.6,0.1v0.8h1.3v0.9l-1.4,0.1v1.8l5.6,0.4l0.1-1l1.9-0.1v-2.9l0.9-0.1v-1h2.1l0.1-0.6l0.9-0.4
    l0.1-0.8l0.9-0.5l0.1-2.7l0.6-0.1l0.1-1l2-0.3v-0.6l0.9,0.1l0.4-1h0.5l-0.1,0.6l1.1,0.4l-0.3,0.8l-0.9-0.1l0.3,2.3l0.6,0.1l0.3,0.9
    l0.9,0.1l0.1,0.9h0.9l0.1,3h1l-0.1,0.6l1.1,0.1v0.9l0.8,0.4l0.5,0.9l1.8,0.1v0.8h0.9l0.4,1.3h1.6l0.1-4h1.3l-0.1-7.6l-1.1-0.1
    l-0.1-2.3l-0.9-0.3v-0.9l-0.9-0.3l-0.1-0.8l-0.9-0.1l0.1-0.9l-1.1-0.1l-0.1-3l-0.9-0.1l-0.1-0.9l-0.8-0.3l-0.1-0.8l-1-0.1l-0.1-1.6
    l-1-0.3l0.1-0.6h1.1l-0.1-5.2l-1.1-0.3l0.1-0.6h1V939l0.8,0.1v-0.4l-0.1-0.6h3v-0.9l3.2,3.2l-0.1,4.3l2.5,2.5l4.5,0.3l2,1.9
    l0.9-0.1l1.9,2.1l0.3,1.3l1.8,1.5l0.1,1.5l1.9,1.8l1.8,0.9l2-0.1l1.6,0.9l2.5,0.3v1.5l1,0.6l0.4,1.6l0.9,0.3l0.9-0.5l0.5-2.8
    l-1-1.4V958l-1-1.5l-3.2-2.4l0.1-1.6l-1-1.1l0.1-3.7l-1.1-1.3v-0.6l-2-2v-0.9l-1.5-1.9l-3.4-0.1l-0.1-0.8l-0.6-1l0.6-0.3v-1.5
    l1.3-0.9v-3.8l-3.4-2.9l-0.1-3.9l-1.4,0.1l-1.8,1.5l0.1,1.4l-0.6-0.3l-2.1-2.7l-0.9-1l0.3-1.9l0.6-0.4l0.4-1.3l1.1-1.3l0.8-0.9
    l1.3-0.4l0.5-0.9l0.9,1.3l0.5,1l1-0.1l1-1h1.1l0.8-0.8l0.6-0.3l1.3-1l2.3,0.1l0.1,0.5l1.6,0.6l0.9-0.5l-0.1-1.5l-0.9-0.5l-0.3-1.3
    l1.1-0.9l0.1-2.4l4.2-4.3l2.7,0.6l0.5-1l-0.4-0.9l-0.6-0.8l2-1.8h0.8l2.1-2.1l1.3,0.1l0.5-1.1h0.5l0.9,1.3v2.9l3,2.9l5.4,0.1
    l2.1-2.5v-2.4l0.9-0.9l1.9-0.1l3.4-3l-0.4-1.8L822.9,895.6L822.9,895.6z"/>
  <path class="st1" d="M762.5,858.8v0.2h4.8l0.1-0.9l1-0.2V854l-0.8-0.1l-0.1-1l-2.8,0.1l-0.1,1.1l-1.5-0.1l-1.8,1.9v1.1h1.1
    L762.5,858.8z M1028.4,966h1.4l0.8,0.8v0.6l0.6,0.6l2.6,0.1l3-3h1l1-1.1h0.9l2.9-2.9l1-1.1v-6l1.1-1.1l-0.1-4.1l-1-0.9v-1.3
    l-2.9-2.5l-1-0.1l-0.8-1.1l-1.5,0.1l-1,0.9h-0.9l-1.3,1.2h-7.9l-1,0.9h-2.1l-0.9,0.9h-5.7l-2.4,2.2l2.2,2.1v3l-0.9,0.7v5l-1,0.7
    l-0.1,2.7l1.8,1.9h2.3l1.1-1.1h4.7l0.9,0.9l2.3,0.1L1028.4,966z M1118.4,945.7l-3.8-3.7l-3.3,2.9l0.2,5.1h-0.9l-1-0.9l-1.9-0.1
    l-3.2,2.7v1.1l2,2.3l0.2,0.8l-1.4,0.9l0.1,1.1v0.5l1,0.7v2.7l1,1.3l4-0.1l2.1,2.1l1.2-1.2h1.9l0.9-0.7v-1.1l1-0.8v-12.4l1.1-1
    l-1.1-0.9L1118.4,945.7z M1156.7,946.1l-2.5,1.9l0.2,2.2l2.3,2h1l-0.2-6L1156.7,946.1z M1083.7,1003.7l-1.1-0.7v-1.4l-1.2-0.6
    l0.1-2.6l-1-0.5v-1.7l-2.8-2.1l-0.1-4.1l2.1-1.9l0.1-8.1l-1.4-0.3l0.1-1.2l-1-0.5l-0.1-1.8l-0.8-0.4V975l-3-2.9h-1.8l-1-1h-1.2
    l-0.8-0.9h-1l-0.6-0.9l0.1-2.3l-2.6-2.9l-1.7,0.1l-0.7,0.8l-0.7,0.1l-2.5,1.7v0.4l1,0.9l0.2,3.3l-1,0.9l-0.2,0.8l-5.9,0.1l-1.2,1.1
    l-1.8,0.1l-2.9,2.8h-0.9l-1.9,1.9l-0.7-0.8h-0.4l-0.5,0.1l-2.2,2.5l-0.2,0.4l-0.1,1.7l-7,6.9v1.3l-1,0.8v1.1l-1.1,1l0.1,1.1
    l-1.3,0.8v1.5l-0.6,0.5v1.3l-0.9,0.8l0.5,0.7l0.4,0.5v4.7l0.4,0.4h0.8l1.8-2.2h2l1-0.9l3-0.1v1l-0.9,0.7v2.3l-1.1,1.1l-0.1,0.8
    l-0.9,0.1l-1.9,1.4l-0.1,0.6l0.8,0.8l2.1,0.2l0.7,0.8h1.3l0.2-0.8h0.7l0.4,0.8l3.8,0.1l0.8,1c0,0,2.2-0.2,2.3,0.1
    c0.1,0.4,0.2,3.8,0.2,3.8l-1,0.7v1.4h-1.2l-4.1,3.3v2.3l0.8,0.4l1.8-0.1l1.8-1.8l2.3-0.1l0.6-1h1l0.8-0.9h1.2l1.9-1.9l-0.3-1.2
    l1-0.4v-1.1l-0.9-0.5l-0.1-1.9l5.1-5v-1.1l3.8-3.2l0.7-0.7h1l0.4-1.1h1.1l0.9,1.3l0.1,1.8l0.9,1l0.9,0.9h0.9l0.2-0.8h1.7l1,0.8
    l8.4,0.3l0.5,0.8h2.1l0.5-0.5v-2.5l1.2-0.7L1083.7,1003.7L1083.7,1003.7z M1028.5,1014.1l-2.1,1.8l0.2,1l0.9,0.1l3.8,0.3
    c0,0,0.1-0.8,0.1-1.2s0.3-1.7,0.3-1.7l-1-0.4L1028.5,1014.1L1028.5,1014.1z M279.8,1027.7l-2.5,2.1l1.4,1.2l0.3,0.4l0.9-0.1
    l0.5-1.2h1.5l0.6-0.8l0.1-0.9l-1.2-0.5L279.8,1027.7z M261.4,994l-1.1,0.9l-1.5,0.1l-0.4-1.1l-3.7,0.2l-0.6-0.9h-2.3l-2.4,1.5
    l0.3,0.7l0.8,0.7l-0.4,0.1l-0.4,1.5l-1.2,0.4h-0.8l-0.4,1.4l2.1,0.7l2,1.9l0.3,2.6l-1.1,1.1l-0.1,0.9l-1.9,2h-0.9l-0.6-0.5l-2-0.1
    l-0.6,0.8l0.2,2.7l-0.9,0.2l-1.1,0.2l-1.1,1.1l-3.6-4h-1.7l-0.9,0.7l-2.1,0.1l-0.7,0.9l-0.9-0.8l-0.3-0.1l-5.8,5.6v1.6l0.9,0.5
    l-0.2,2.3l2,2.1l2.6,0.1l0.5,0.7l0.1,0.5l2.6,2.7l0.5,0.7l1.8,0.4l1.1-0.7l3.3-3.3l-0.3-2.2l2.2-1.7l7.7-0.2l0.9,1.2l3.6-0.2
    l0.7-0.7l1.2-0.3l0.8-0.7l3.9-0.2l1.2-0.6v-3.7l-0.9-0.8l-0.2-1.6l-2.9-0.3l-0.1,1l-1-0.1l-0.1-1.3l-0.8-0.6l-0.1-1l1.2-0.7
    l-0.4-7.5h8l2.2-1.5l-4.8-5.3L261.4,994z M228.6,988.1l-1-1l-1.1,0.7l1,1.1l0.9-0.3L228.6,988.1z M230.4,987.3l1.9-0.4l1.1-0.3
    l0.1-0.9l-0.5-0.4c0,0-2.3-0.1-2.5,0s-0.9,0.5-0.9,0.5l-0.3,0.2l-0.7,0.7l0.2,1.2l0.8,0.3L230.4,987.3L230.4,987.3z M238.3,982.8
    l0.8,1.2l1.1-0.2l0.5-0.8l-0.3-0.8l-0.9-0.3l-0.1-0.9h-1.1l-1.9,0.1l-0.6,0.6l-0.2,0.2l0.2,0.9l1.7,0.1L238.3,982.8z M283.7,968
    l-0.2-0.8l-2-0.1l0.1,3.2l1.9,1.9l0.6,0.6l1.7,0.1l1.6-1.4l0.2-1l-2.8-2.6L283.7,968z M270.8,963.2l-4-0.2l-1.3-1v-1.8l-1.7-1
    l-4.2-0.2l-2.2,2l-0.5-1h-2.3l-2-1.9l-0.1-2V955l-0.7-1.1h-1.2l-1.9-2l-0.8-1h-1.3l-1.1-1l-0.9,0.2l-0.6-1l-1.1,0.1l-0.3,0.6
    l-0.2,3.1l-0.9,0.9v1.2l-0.9,0.5l0.1,1.3l0.8,0.3l-0.1,2.2l1.1,0.7v2.3l-1,0.9l-0.1,1.6l-1.1,0.9l0.2,3.4l0.5,0.9l1.3-0.3l-0.1-0.6
    h2.4l1-1.2l1.1,0.1l0.8-0.7l-0.2-1.4l1.2-0.6l-0.1-1.2l1.2-1.1l2.1-0.1l0.7-0.8l0.4-0.1l0.2,0.9h3.4l2.8,3.1l0.5,0.2l-0.4,0.6
    l-0.5,0.3l-0.2,0.9l-1.1,0.6v0.5l0.8,1.1l1.4,0.8l0.8-0.8l0.9-1.2l0.7-0.2h0.2l1.3,1.2l-0.1,1.8l1,1.4h0.9l1-0.3v-1.8l-0.7-0.1
    l-0.3-1.2l-0.6-0.7l-1.1-1.2l0.6-0.7l1.3-0.1l1-1.1l2.8,0.1l1,0.7l2.2,0.2l-0.2-2.7L270.8,963.2z M86.4,875.5l-0.7-0.5l-2.1,0.1
    l-0.7-1l-2.2-0.1l-1.2,0.8l-0.1,2.2l3.4,3.5l0.8,0.5l1.8-1.7v-2.5l1.3-0.3L86.4,875.5z M550.6,699.5V698l2.3-1.9l0.8-0.2l0.9-0.8
    h1.9l1-1.2h1.3l2-1.7l-0.2-0.5l-3.4-3.8l-1,0.2h-0.5l-0.9,0.2l-1.3,1.7h-3.7l-0.4,0.6l-1.1,0.4l-0.7,0.9l-4.1,0.2l-1.3,1l-1.6-0.2
    l-2,1.6l-0.1,2.2l0.3,0.9l0.4,0.5l0.4,1.3v1.1l0.5,1.1l0.5,0.4l-0.1,2.9l1.7,2.1h2l0.4,0.2v1.3l0.9,0.6l-1,0.3v1.9l-0.6,0.4v0.8
    l0.7,1.1v0.9l1.7,1.7l0.9-0.1l0.7,0.8l1.6,0.2l0.4,0.2l0.6,0.6l6.1,0.1l2.1-2l1-0.1l0.8-0.9l1.5-0.1l0.8-0.7l-0.5-1.3l2.3-1.7
    l-0.2-2.7l-0.2-0.5l-0.5-0.5l-0.5-0.4l-1.5-0.1l-0.4-1.6l-0.9-0.5l1.1-0.9l1-0.5v-1.3l-6.7-0.1l-0.3,0.5l-0.1,1.4l-0.8,0.5
    l-0.2,1.4l-4.2,0.1l-0.6-0.8l-0.2-0.8l-1.7-1.6l-0.2-2.8h2.2L550.6,699.5z M638.2,710.2l-0.6-0.4l-0.2-4.8l1.1-0.6v-1.7l-0.7-0.9
    l-1.1,0.1l-1.3,1.1l-1,0.1l-0.9,1.1l-1.3-0.2l-0.7,1l-0.8,0.1l-1.5,0.9h-0.7l-3,2.9v0.3l0.9,0.7l0.1,1.1l0.9,1l0.2,0.6l0.6,0.4h9.6
    l0.8-0.8l-0.2-1.4L638.2,710.2z M710.6,703.8v2.2l-0.2,0.5l-1.1,0.3v1.3l1.9,1.9h1l0.4-0.8l2.8-0.2l1.3-1l1.3-0.1l1.6-1.6v-1.5
    l-0.2-0.6l-2.9-0.3l-0.7-0.7l-1.2-0.1l-0.7-1h-1.4L710.6,703.8z M593.6,696l-0.4-0.8l-2.5-0.5l-1.4,1.3h-1l-0.9,0.8l0.3,0.8
    l1.4,1.4h1.4l1.2-0.7h2.7l1.3-0.9l-0.4-1L593.6,696z M584.6,760.6l-2.1-1.9l0.1-1.1l-1.9-1.6l-0.4-0.1l-0.8,0.9l-1.2,0.2l-1,0.9
    l-3.4,0.2l-0.9,0.7l-0.5,0.1l-2,1.9l-2.7,0.3l-0.7,0.9h-0.5l-2.3,1.8l0.2,1.6l1.8,1.7l0.1,0.9l-2.1,2l0.2,3.6l0.7,0.3l0.7,0.1
    l0.6-1.1l1,0.3l2.4,2.9l3.2-0.3l2.5-2.5V772l0.5-0.1l0.3-0.5h0.3l0.4,0.5h1l0.7-0.5l0.8-0.2l2-1.6l-0.3-0.5l0.1-1.9l1.1-1.1l0.1-1
    h1.1l0.8-1l0.6-0.6v-0.8l-0.6-0.5L584.6,760.6z M563.7,799.6l-1.2-1l0.1-1l-3.9-3.8l-0.9-0.1l-0.3-0.7l0.2-2.8l0.9-1.1l0.2-1.9
    l0.8-0.5l0.1-1.6l0.9-0.4l-0.1-6.3l-0.9-0.7v-1l-2.9-2.7h-2.1l-0.7-1.1h-1.4l-1.1,0.6l-0.3,0.5h-5.4l-0.3-0.8l-0.7-0.4h-4.1l-1-1
    l-3.5,0.1l-0.8,1.2l-4.1-0.2l-0.8,1h-3.9l-1.1-1.8l-1.1-0.2l-2.4,0.2l-0.6,0.9l0.2,1.1l0.4,0.6l0.7,0.5l-1,0.4l-0.1,0.8l-0.4,0.7
    l-0.7-0.1h-1.2l-1.8,1.7l0.1,1l1.2,0.3l0.9,1.4l0.5,0.9l0.7,0.6l0.7,0.1l4.4-0.1l0.2,0.3l0.6,0.7h1.3l0.6-0.9h2.8l1.9,2.2l1.2,0.9
    l0.1,0.3v0.6l1.2,1l-0.2,3.5l2,1.4l-0.2,1.5l0.8,0.5h0.8l0.6-0.6v-1.6l0.9-0.7l1.1,0.2l0.2,0.9l1.1-0.1l0.6,0.6l0.4,0.3l0.9,0.1
    l0.8,0.6l-0.4,3.2l-0.7,0.4v2.4l1,0.7l1.1,1.1l-0.1,0.8l2.1,2.2v0.5l0.1,3.2l0.8,0.9v1l0.8,0.5v0.5l1.2,1.2l2.9,0.1l2.1,2l0.4,0.4
    l0.8,0.3l1.2-0.1l0.8-0.6l-0.1-1.1l2.1-1.7l-0.1-1.4l0.9-0.8l0.1-4.1l2-1.6l-0.1-4.3L563.7,799.6z M444.5,930.9l-1.1-0.9l-1.2,0.1
    l-1.9,1.9l-0.6,0.2l-2.1-2.3v-3.1l1-0.4l-0.2-1.1l1.1-1.3l0.1-0.3V922l-2-2.1v-1l-1.9-2l-0.2-1.2l-1.7-1.5l-2.3-0.3l-1.6-1.8
    l-1.1-0.1l-0.5,0.8l-1.1,1.1h-1.9l-2.9,2.4l0.2,0.5l-0.4,1.3l-1.7,1.9v0.7l-2.3,2.2l0.2,2.6l-1,0.9l-0.2,1.3l-1.8,2.2l0.1,1.5
    l1.7,1.6h0.5l0.7,0.3l0.2,0.9l1.9,1.9h0.9l0.6,1l1.4,0.1l0.8,0.6l2.3,0.3l0.8,0.8l1.2,0.4l-0.3,1.7l3.9,4h2.8l0.7-1l1.4-0.3
    l0.6-0.5l2.5-0.2l0.6-0.9h1.2l2.7-3.1v-5l0.9-0.3V933l0.1-1.2L444.5,930.9z M547.7,900.8V898l-0.5-0.8l-5.6-0.1h-0.3l-0.7,1
    l-0.3,0.5v1.4l-0.3,0.2l-0.6,0.8l-0.5-0.9l-0.6-0.1h-2.6l-0.9-1h-1.5l-0.5-0.4l-0.9-0.4l-1.2-0.2l-1.9-2.2l-1.3-0.9v-1.2l-0.9-0.8
    v-1.4l-0.9-0.6l-0.1-1.2l-0.9-0.7l-0.1-4.7l0.5-0.2l0.5-0.8v-1.1l2-2l1.3-0.2l1.8-2l2-0.1l3-2.8h2.1l0.6-0.5l0.4-0.8l-0.7-0.7h-2.6
    l-2.7-0.1l-0.1-0.4l-1-0.7l-0.1-0.7l0.5-0.7l0.2-0.3l0.5-0.3l1-0.8l0.7-0.1l0.4-0.9h0.6l0.9-0.4l1.3-1.1l0.7-1.2l0.1-2.9l-2-1.5
    l-2.3-0.1l-1.9,2l-9.2-0.1l-0.7,1.2l-2.3-0.3l-0.9,1.4h-1.3l-0.6,0.9l0.1,1l-0.9,0.5l-0.2,1l0.2,3.9l0.8,0.7l1.2-0.2l-0.3,3l-2.6,3
    l-0.4,2l-0.8,0.6l-0.1,2.6l-5.3-0.2l-0.7,0.7l0.1,0.8l0.1,1.2l0.9,0.4l0.1,1.4l0.9,0.7l1,0.1l1.2,1l3.4-0.3l0.7-0.7l1.5-0.2l5.4,5
    l-0.1,6.6l-0.4,0.4l-2.8,2.8l0.3,1.2l-8-0.3l-2,2l-0.2,1.2l-1,0.7l-0.1,1.4l-0.9,0.7l0.3,1.3l-0.6,0.3l-0.5,0.9l-0.2,0.9v1.5
    l-0.6,0.6l-0.4,0.9l-1.6-0.3l-2.3-1.7l-3.1-0.3l-0.9,0.7l-0.3,0.7l0.2,1.1l3,2.7l0.2,0.8l-1,0.4l-0.3,1.3l0.3,1.4l0.5,0.4l1,0.7
    h0.7l0.5-1l2.8-0.1l0.3-0.3l0.4-0.5l0.7,0.7l-0.2,2.1l-0.9,0.5v1.2l0.5,0.5h1.2l0.5-0.8l1.9-2.3h3.5l0.7-1h1.3l0.4-0.9v-1.9
    l1.6-1.1h3.7l0.4-0.1l0.3-1l0.1-1.9l3.2-3.2V913l1.2,0.4l0.8-1.2l3.4-0.3l0.4-0.7l0.9-0.3l0.6-0.8l2.4,0.2l0.1,1.2l3.1,2.7l0.6,0.6
    l1.7,0.1l0.6-0.6l0.1-1.1l0.3-1l0.8-1.2l0.9-0.1l1.2-0.7h2l0.4-0.4l0.4-2l0.3-2.9l1.3-0.1l0.4-0.5V903l-0.4-0.4L547.7,900.8z
     M119.4,780.8l0.1,1.4l0.9,1l0.1,0.8l0.8,1.3l0.3,0.7l2.2,0.1h0.8l0.8-1l1.5-0.2l1.7-1.6l-0.3-2.2l1.2-1h2l1.8,2.1l2.3-0.2h0.6
    l0.7-0.9l1.5-0.3l2.1,2.6l0.3-0.3l0.6-1l1.2,0.1l0.8-0.9l0.1-1.4l-0.8-1l-0.2-1.4l-0.8-0.5l-0.2-4.1l2-1.4v-0.6l-0.5-0.7l-1.3-1.4
    l-0.1-1.5l-0.8-0.3l-1.2-0.1l-0.7-1l-0.8-0.9l-0.7,0.1l-1.1,1.1l-1.2-0.1l-0.5,0.7L133,767l-2.6,1.9h-2.3l-4.6,4l0.1,0.9l-1.2,1.2
    l-0.6-0.1l-3.2,3l-0.2,0.8l-0.7,0.9l0.9,0.3L119.4,780.8z M213.5,647.4l1.5,0.6l1.4,0.1l1.3,0.8l0.9,0.3l1.6,2.2l0.3,1.6l1.7,3.3
    v1.1l3.3,5.8l-0.3,2.9l-1.7,1.7l-0.3,1.1l-1.1,0.8l-2.6,4.1l-0.1,0.7l-3.2,4l0.1,3l1.5,1l1.3,0.3l1.3,1.1l3-0.2l8.4-2.8l3.7-0.3
    l1.7-0.7l8.6-0.3l0.8-0.7l0.8,0.1l0.7,0.7l13.5,0.1l1.3,0.9l3.9,0.3l38.1,11.8l3.4-3.7l0.1-0.4l0.3-0.8l1-1.1l5.1-4.6l-0.3-3.7
    l-0.8-1.6l-1-1.7l-0.3-3l-1.9-1.6l0.2-1.8l0.9-0.3l-0.3-2.2l-0.7-0.9l-0.3-0.7l3.5-3.1l1.1-0.2l0.8-0.5l0.9,0.4l1.1,0.3l1.6-1.1
    l0.2-4l-0.3-0.6l-1.6-0.3l-0.9-0.9l-0.1-7.7l2-6.1l1.8-1.8v-2.6l-0.8-0.8l0.6-0.9l-1.9-2l0.2-2.1l4.3-0.2l0.8-0.8l1.5-0.4l0.9-3.5
    l0.6-4.1l1-0.9l1.2-0.1l2.7-2.7l0.2-2.3l0.6-0.4v-3.2l-1.5-1.4l-1.6-0.2l-2,1.9l-5.9,1.1l-3.2,1l-1.8,0.7l-3.5,1.2h-1.6l-0.8,1
    h-0.6l-0.4-1l-0.6-1l-0.4-1.3l-1.8-1.7l0.1-1.3c0,0-0.6-0.3-1.1-0.7l-0.7-1.2l-91.8,32.1l-2.1,2.2l0.3,1.3L213.5,647.4L213.5,647.4
    z M693.7,594.8l1.4,0.1l0.4,0.4v1l1.2,0.7l2.8,0.1l0.6-0.4l3.9-3.8l1.9-4.9l1.2-6.1l0.7-5.3l-3.2-0.6l-0.9-0.8l0.2-0.5l1.1-2.6
    l1.7-4.9l1.9-4.7l2.2-4.9l0.9-5.2l1.4-5.3l0.3-0.9l-2-4.2l-3-5.3l-1-5.7l-1.8-7.7v-5.4l-2.3-2l-1.6-2.9l-1-1.9h-1.3l-0.8,0.9
    l-2.9-0.1l-3.2-1.7h-5.6l-1.6,0.7l-0.6,2.2l-1.1,1l-3.3,0.4l-4.8,1.4l-2,0.1l-2.2-0.5l-7.6-0.5l-1.1-1.1l-1.9-1.1l-1.4,0.4
    l-1.8,1.7l-0.6,0.1l-4.4,0.3l-1.6,0.6l-1.4,0.2l-3.3,3l-0.5,0.2l-2,0.8l-5.2,2.1l-1,1.1l0.2,1.7l1.7,3.3l0.6,6.1l0.4,4.9l2.9,2.5
    l2.1,0.1l1,0.6l0.2,3.4l1.1,1.4l1.6,0.7l-0.1,9.5l3.3,0.8l5,0.9l3,1.1l4.1,3.8v1.1l-1.3,0.6l-2,3.4l0.3,1.2l1.2,0.5l4.9,0.3
    l0.8,0.9l0.1,2.9l-1.2,0.8l-2,4.7l-1.3,3.7l-2.7,5.8l0.1,3.9l1.5,2.5l1.5,6l3,0.7l3.9,0.2l1.3-0.4l1-1.2l4.5-1l12.2-1.9l2.5-1
    L693.7,594.8z M598.5,567.1l-1.9,1.7l2,2.2l0.7,0.8l1.3,0.1l0.9-0.8V570l-2-2.1L598.5,567.1z M606.6,552h-0.9l-1.1-1l-0.1-3
    l-1.8-1.9l-2.4-0.2l-1.4,1.2h-0.7l-1.8-1.7l0.2-3.9l0.8-1.4l1.1-1.1l2.8,0.1l1.3-0.8l-0.7-1.1l-1.3-0.1l-0.2-0.4v-1.6l1.8-0.9
    l1.7-1.1l0.5-1l0.9-0.7l-0.7-1.2h-1l-4.4,2.5l-1.7,0.3l-3-1.8l-2.2-0.3l-1.6-0.8h-1.9l-1.7,1l-0.5,2.3l-0.3,0.6l0.8,1.9l1.6,1.2
    l-0.1,2.8l-0.8,1.2l-0.9,1.8l-2.2,2.1l-1.8,0.8l-1.3,1.1l0.8,1l4.8,0.3l1.2,0.6l0.3,2.4l-1,0.9l-0.9,1.5l0.5,1.3l-0.6,1.4l-0.1,0.8
    l0.8,0.7l3.1,0.1l2,2.1l-0.7,0.7l0.4,0.7l1.3,1.5l2-2l1.9-0.9l2.2-0.1l1.3-1l2-0.1l1.5-1.3l2-2.4l1.2-1l-0.2-1.1L606.6,552z"/>
  <path class="st1" d="M582.5,583.9l1.2-1.3l2-0.9l0.9-0.6l0.9,0.6l0.8-0.8l0.1-1.1l-1.1-0.7v-0.3l1.2-0.6l-0.1-1.4l-1.5-0.6
    l-1.5-1.3l-1.9-1.3l-1.1-1.8l0.9-0.6l-0.1-2.1l-1.1-1.1l-2.9-3l-0.3-2.3l-0.7-1.1l-2-0.4l-1.2-1.1l-1.9-3.6l-1.9-2.1h-8.8l-0.3-0.4
    v-1l-1.8-1.9l-0.5,0.1l-0.7,2l-1.7,2.4l0.1,1.3l1,2l0.7,2.1v2.8l-1.1,2.3l-1.4,0.8l-2.7,0.3l-0.9,0.7h-2.8l-0.8-0.7l-1.4-0.1
    l-0.3,0.3l-0.8,1.8l-2.5,0.2l-1.6,0.7l-0.6,3.2l-5.2,4.9l-3.6,0.9l-1.5,1.3l-1.8,2.7l-5.1,4.9l-2.7,0.1l-2.3,2.5l-1,3.2l-1.9,2.6
    l-1.9,1.5l-2.3,1.5l-0.8,1.9l-1.9,1.7l-1.5,0.1l-1.4,1.3l-1.1-0.1l-1-0.8l-0.3-2.4l0.4-1l1.1-1.1l1.1-3.9l1.2-0.8l-0.3-1.3
    l-0.1-0.9l0.7-0.5v-0.9l-0.9-0.3l-2,0.8l-2.1-0.9l-1.3-2.5l-0.6-0.4l-3,2.9l-1.1,3.2l-1,0.9l-0.8,1.8l-0.7,0.1l-1.5,0.9l-4.2,0.3
    l-0.7,0.8l-2.7-0.2l-1.2,0.9l-0.6-0.1l-2.3,2.1l0.2,2.5l0.8,0.7v1.7l-0.3,0.4l-1.3,0.1l-1.6,2h-1.9l-0.2-0.6v-2l-0.8-0.6l-0.3,0.3
    l-4.2,4.1l-0.6,2l-3,1.6l-1.1,0.3l-0.9,0.9l-2.9,3l-1.1,0.2l-1.1,0.8h-7l-0.3,0.2l-0.8,2.1l-1,0.9h-1l-1-0.4l-0.6,0.4l-1.6,0.8
    l0.1,1.3l1,0.9l-1.3,1.9l-0.8,3l-1.5,2.2l-2.1,1.8l-0.8,1l-2.1,1.6l-0.7,0.2l-2.7,1.8l-0.8,0.5l-2.5,1.8l-1.2,0.8l-1.6,0.1
    l-2.5-0.1l-0.7-0.9l-1.1-0.2l-1.3,1.1l-3.8,2.2l-1.8,0.9l-1.5,0.9l-6.1,3.2l-1.9,1l-2.1,1.9l-1.7,2.9l-0.3,1l-1.9,2.2l0.1,0.8
    l-1.8,2l-0.4,1.2l-5,5l-2,0.9l-2.1,0.3l-1.2,0.8l-4.5,1.1l-4.1,0.9l-4.8,1.2l-3.8,0.9l-1.9,0.6l-3.3,0.2l-4.8,1.8l-4.8,2.3
    l-2.3-0.2l-0.2-0.9l-1-0.9l-1.1,0.1l-4.1,0.1l-1.2,0.8l-6.4,0.1l-1.5,0.9h-7.7l-2,0.9l-5.2,5.4l-8.3,1l-8,7.7l-1.1,5.2l-1,2.8
    l-0.7,0.2l-2,1.8l0.3,1.2l1,0.6l3,0.4l1.7,1.5l0.2,0.3l-4.3,0.2l-2,2.2l-1.8,0.9l-1.3,1l-0.2,1l0.8,0.7l-0.6,1.2l-0.6,3.7l-1.1-0.8
    l-1-0.5l-0.8-0.5l-0.8,0.2l0.2,1.1l0.5,0.6l-2.3,0.2l-1,1l-0.9,2.9l-0.4,2l-0.4,0.2l-0.2-1.3l-1.2-3.8l-0.8-0.1l-0.7,1.1l-0.2-0.3
    l-1.1-1.4l-0.5-2.7l-1.4-3.9l-5.9-6.3l-0.9-1.8l0.3-5.1l0.5-0.2l-0.1-1.1l-0.5-0.8l-1.1-2.2l-3.3-1.1l-5-1.1l-2.2-0.6l-0.6-1.2
    l-3.4-1.7l-5.5-0.1l-2.2,0.8l-3.5,1.4l-1.5,1.9l-1,2l-5.1-0.2l-0.9-1v-1.7l-1.1-1.3l-1.2-0.2l-1.6-1.7l-4.3-0.2l-0.1-0.2L238,687
    l-0.6,0.2l-0.9,1.8l-0.6,2l-4.4,4l-3.8-0.1l-0.6-0.6l0.1-2.3c0,0-0.9-0.7-1.3-0.8c-0.4-0.1-1.4,0.1-1.4,0.1l-0.8,0.8l-1.8-0.1
    l-1.4-1l-0.7,0.4l0.3,0.6l-0.5,3.3l-1.9,1l-1.2,0.8l-0.9,8.2l-1.1,1.5l-0.8,7.4l-4.7,4.7l-2,0.5l-2.2,1.5l-2,1.3l-1.3,1.1l-1.3,0.9
    l-3,0.1l-1.1,1.2l-0.2,0.8l0.1,6.9l0.7,0.7l0.7,1.6l2.7,2.9v4.9l-0.9,1.1l0.2,0.8l0.7,1l0.4,2.6l-0.4,0.3l-0.4,0.3l-1.7-1.6
    l-1.9-0.9l-2-1l-2.3-0.8l-0.8-5l-1.4-0.9l-0.7-0.2l-0.8,1.2l-0.9,1l-1.4,1l-2.8,1.9l-0.8,0.2l-1.4,0.7l-4.5,0.6l-0.9,0.4l-2.5,1.9
    l-1.2,0.2l-1.5,1l-3,0.1l-1.2-1l-2.5-0.1l-2.4,1.2l-2.4,1.6l-0.7,6.5l-1.7,0.9l-2.5,2.4l-0.8,2.6l-3.4,3.2l-0.5,4.6l-2.1,0.4
    l-1.9,0.5l-0.9,1.2l0.4,3.9l0.7,2.1l4.2,1.3l1.8,1.8l2.7,1.2l3.1,0.9l0.4,1.1l1.1,3.9l0.8,0.8l-0.6,3.3l-0.2,0.9l0.4,0.6l0.8,1.5
    l0.8,0.8l-0.3,0.4l-1.3-0.6l-1.3-3.8l-0.6-1.8l-0.9-2.3l-0.8-2.1l-3-0.8l-0.9-1l-2.2-1.4l-2.8-1.1l-1.2,0.7l-1.3,0.1l-0.8,1.1
    l-1.9,0.9l-2,1.8l-2,2.8l0.1,2.5l0.9,1.7l0.4,2l0.6,1l-0.3,1.1l0.6,0.9l-0.4,3.3l-0.7,1.8l-2,1.2l-1.5,0.8l-10.6,0.1l-1.6,0.8
    l-1.4,0.1l-1.2,1.2l-2.4,1l-0.8,1.9l-1.2,1.2l-0.1,1.7l0.6,0.8l0.3,1.2l0.9,1.7l1.6,2.6l0.4,5.8l0.7,1l-0.2,7.1l-1.1,0.9l-0.8,2.3
    l-0.9,2l-3,2.7l-2.2-0.1l-0.6-0.3l-0.2-3.8l-0.9-0.9l-0.1-1.1l-1.7-1.9l-1.1-0.2l-1.2-1l-0.8-1.8l-0.9-1l-1.6,0.1l-0.6,0.9
    l-1.3,0.2l-0.9,0.9l-0.3-0.8l-1.5-0.4h-2l-1.5,2.2l-1.8,3.2l-0.1,6.6l-0.5,0.2l-3.5,4l-0.2,0.9l0.3,2.1l2.2,2l-0.4,7.8l-1,1.1v4.8
    l0.5,0.4l1.6,1.8l0.1,1l-2.2,1.8v0.5l1.5,0.6l0.9,0.4l2.7,1l2.5,2.4l0.9,0.3l1.6,1.9l-0.1,2.2l-1.8,1.9l-0.1,4.4l-2.1,1.1l-1.2-0.4
    l-0.8,1.5l0.2,3.6l1.8,2l0.1,1.3l1.9,4.5l5.3,5.1h5.6l2.2,2.5l1,1.5l-0.4,4.2l-1.7,1.2l-0.2-0.5l-3-0.1l-0.5,1.1l-1.5,1.4l0.3,1.9
    l0.9,0.5l-0.3,2.1l-1.2,2l-3.8,3.8l0.2,1.5l2.3,1.6l2,0.1l1.1-1.3l1.1-1.8l0.1-1.3l-0.5-1.1l0.4-0.6l5.6,0.2l1.3,0.8l3.4,0.1
    l1.5-0.4l2.2-0.9l0.6-0.2l0.2-1.6l-0.2-0.4l-1.8-0.3l-2.2-2.3l0.2-3.8l4-4l4.3-1.9l7.5-0.2l4.2-2.3l0.8-0.6l0.9,0.1l1,0.9l2.5-0.1
    l0.9-0.8l0.8,0.1l0.8,1.2l-0.1,2.8l-2,1.8l0.1,0.4l0.5,0.5h2.7l1.2-0.6l2.2-1.1l1.7-0.4l1.8-1.7l0.3-3l2.8-3.2l1.3-1.9l1.2-1.9
    l0.4-3l1.3-0.9h0.7l5.2-5l9.8,0.1l1.2,1.8l0.8-0.1l2.1-1.7v-1.2l-0.6-0.6l-3.8-0.7l-1.2-1.7l-0.9-1l0.2-0.4l1.4-0.1l0.7-2.7l1-0.2
    l1.4-0.8l1.5-0.2l2.3-2.1l0.6-1.7l1.1-1.2l0.1-3.2l1-1.5l2.4-2.2l0.9-0.2l1.1-1.1l1.7-0.9l3.4-1l0.6-0.9l4.5,0.1l0.4,0.4l0.1,1.7
    l1.1,1.1l1.4-0.1l0.8-0.4l0.9-1.7l1.3-0.2l0.6-2.7l1.3-1.9l2.2-1.2l3,0.1l0.5,1.3l1.2,1.4l0.6,0.1l1.2-0.9l1.8,0.2l1.4,0.8l2.9,0.2
    l1.8,2.3l-0.2,2.6l-0.9,0.9h-1l-3.2,3l0.1,1.3l1.2,0.7l1.1,0.1l1.8,2.1l0.2,4l2.8,3l5.4,2.7l1.6,0.4l0.4,1.2c0,0,1.8,1.6,2.1,1.7
    s2.6,0.2,2.6,0.2l3,3l7.5,6.7l1.6,0.2l1.1,0.8l1.3,2h1.7l0.6-0.3l0.5-1.7l3.7-3.8l0.3-5.2l1.8-2l1.2-0.9l2,0.1l0.8,1.2l3.2,1.4
    l0.8,0.1l-0.1,2.1l-0.3,0.2l-0.8,0.5l0.3,0.8l0.5,0.4l1.7-0.1l0.4-1.8l2-0.1l0.2,0.2v2l-0.3,0.2l-0.6,0.8l0.1,1.4l0.5,0.6l3.8,0.1
    l1.4,0.8h1.3l0.7-1.2l2.2-0.7l0.5-1.2l6-0.8l4.2-1.2l2.4-0.6l0.8-1.4l0.2-0.7l-0.5-0.8l-0.2-3.6l2-3.2c0,0,0,0.4,0.3-0.1
    s-0.2-3.2-0.2-3.2l-0.6-1V879l-2.1-2.3l-1.2-0.1l-2.5-2.7h-2.2l-0.6-1l-2.1,0.1l-0.5,0.7l-1.2,0.1l-2.8,3l-4.7,0.2l-1.3-1l-2.5-0.3
    l-0.6-0.8l-2.8-0.2l-2.9-2.3l-1.4-0.8l0.3-0.8l0.4,0.5l1.5,0.6l1.2-0.7l0.2-3.2l3.1-3l2.8-0.5l1.1-1.2l0.9-2.8l1-4.6l1.9-2.1
    l1.1-0.3l0.9-0.8l3.4,0.2l0.6,2.2l1.2,1.2l3.8,0.1l-0.4,0.5L291,857l-0.6,0.9l0.5,0.5l1.9,0.1l1.3-1.3l1.2-0.8l1.5-0.3l2.8-0.2
    l2.2-1.2l2.2-0.1l0.4-0.7l-0.3-0.6l-0.4-0.8l-0.1-0.6l0.8-0.9l0.3-1.4l0.8-0.6h1.2l1.9-1.2h6.2l3.1-1l0.7-2.2l1-0.4l0.7-0.4l3.4-3
    h2.6l2-0.9l6.8-3.6l1.4-0.4l5.4-2.1l0.6-0.6l0.9-0.2l1.2,0.7l2.5-0.2l3-0.8l1-0.6l0.6-0.2l0.4,1l1.2,0.1l1.1,0.7h0.6l2.2,2.1
    l0.2,3.3l0.4,1.1l0.7-0.2l0.4-0.3l0.8-0.1l0.6-1.6l0.7-0.4l1.4-0.8l2.2-0.4l0.8-0.6l1.9,0.3l1.2,0.7l1.2-0.4l0.5-0.6l-1-1.1
    l-0.9-1.4l0.2-2.8l1-0.8l1.8-0.5l1.2-0.6l1.2-0.9l4.6-0.2l2.3-0.8h0.1l5.9-6.1h1.6l2.3-0.8l2.9-2.1l1.6,0.1l0.8,0.9l1.9,0.2
    l1.4,0.9l2,0.2l1.2,0.8l1.8,0.3l2,1.6l0.9,0.2l1.9,1.7h1.7l0.6-0.3l-0.1-1.2l-1.2-0.4l-1.8-1.9l-0.2-6l-0.8-0.9l0.1-0.2l1.2,0.4
    l1.8,1.7l-0.2,1.4l1,0.7l0.3,2.4l1.8,1.5l1.8,0.1v0.9l-0.7,1l-0.2,3.9l0.5,0.4l0.5,0.6l-0.1,1.1l-2,1.9l-1,0.3l-2.1,1.9l0.2,1.1
    l-0.5,4.8l-1.3,3.7l-2.8,1.4l-0.2,1.1l0.7,0.4l0.7,0.9l3.1,1.9h0.9l2,2.1l0.1,1.2l3.2,2.5l0.8,0.2l3.8,4.2l-0.2,2.9l-1.1,1.9h-1
    l-1.2,1.2l-0.8,4l-0.8,0.7l-1,0.1l-2.1,1.4l-0.2,3.7l2.4,1.9l2.3-0.1l1.3,1l1.2,0.1l0.9,0.9l0.9,0.1l0.5-0.4l0.7-0.7l2.2,0.2
    l0.7,1.1l0.2,0.9l1.9,2.1l-0.1,3l-0.7,0.3l-0.2,0.7l0.6,0.7l3.7-0.2l2.1-1.2l0.4-0.7l-1.3-2.1l-0.5-0.4V882l1.4-1.2l1.8-1.1
    l0.8-0.5h1.6l1,0.9l3.1-0.2l1.6-0.6l2.3-2.5l0.9-2.8l1-1.2l6.9-0.9l0.9-0.6l1.2,1l0.7,2l1.2,1.8l0.7,3.4l0.9,0.8h6.4l1.3-2.5
    l0.3-3.8l2.2-2.2l4.5-0.8l4.5-1l1.2-0.5l0.7-5.5l2.2-1.9l0.6-1.9l1.4-1.7l4.8-0.7l3.8-1.7l3.6-2.4l0.4-5.9l3.3-2.6l0.7-0.3l1.9-2
    l-2.3-1.2l-7.5-0.6l-2.1-1.4l-3.9-0.6l-1.5-1.1l-1.6-0.1l-2-1.9l-0.2-5l-0.6-0.7h-1.2l-2.6,1l-1.5,3.1l-4.2,0.7l-2,1.1h-2.7
    l-1.9-2.7l-0.3-4.1l-1.2-2.2l-3.2-3.8l-5-0.4l-1.9-5.7l-0.5-0.2l-2.1,2.2l-7.7-0.3l-0.4-1l-2.8-3.1l-0.2-0.7l1.1-1.9l0.7-0.3
    l5.3-3.2l7-3.6l0.1-2.2l3.4-3.4l0.7-2.7l1.6-0.2l0.8-0.7l1.3,0.2l0.5,0.8l3.9-0.1l1.7-2.1l3.8-1.7l3.9-4.1l0.6,0.1l0.5-0.2l2.1-1.8
    l1.3,0.2l0.9,0.8l2-0.1l0.8-0.9v-2.2l-2.9-3.1l-4.2-1.7l-2.2-2l-0.1-1.8l-0.7-4.1l-2.1-3.4l-3.1-3l-1.9-1.5l-9.9-0.2l2.2-1.9
    l2.1-0.2l0.9-0.9l0.1-4.8l-2.2-2.8l-4.8-2.5l-2.2-0.1l-1.2,1.4l-4.8,2.2l-5.2-0.3l1.8-0.4l4.3-1.9l4.4-3.8l-0.3-4.2l6.1-5.9l6,0.1
    l3,2.8l1.2,0.2l3,3.2l3.5,1.5l3.8,1.1l2.5,1l0.1,3l2.9,3.1l0.8-0.1l4.6,1.8l2.6-0.2l8.5-2.7l2.3-0.1l1.2,0.9l2.9,0.1l0.5-0.2
    l0.4-0.4l-0.1-0.6l-1.9-1.7l0.1-3.1l1.3-0.2l0.6-0.4l0.1-1.4l-0.9-0.7l-0.1-2.4l-1.2-0.8l-2.6-0.1l-0.3-0.1l-0.8-0.8l0.1-2.8l2-1.9
    l0.6-0.1l4-1.8l0.1-1.5l-1.9-0.8l-1-1v-0.6l-0.9-1.4V728l1-1.1l-0.1-2l1.2-0.9l1.9-0.2l1.8-1.4l-0.1-0.6l-2-0.8l-0.8-0.8l-0.1-1.1
    l-0.2-0.4l-0.8-1.1l0.2-2.2l0.8-0.6l0.1-1.8l2.2-1.8l-0.2-2.5l-3-0.8l-0.2-0.3l-0.9-0.4l-0.8,0.8l-0.1-0.4l-1.1-0.7H503l-1.9-2
    l0.1-0.4l-1.1-1.4l0.2-9.3l1-0.8h0.8l1.1-1l-3.1-3l0.1-3l2.1-1.7l0.8,0.9l1-0.1l1.2,1.1l0.8,0.1l3.2,2.7l0.7,0.1l1.4,0.9l0.7-0.8
    l0.1-1.2l-1.2-1.1l-2-2.7l0.2-1.2l1.2-0.7l0.8,0.1l3.2,1.7h1.1l0.8-0.9l0.1-0.8l-1.3-0.9l0.1-4.3l-1.1-1.1l-1.7-3.7l-0.6-0.1
    l-4.7,4.7l-1.2,0.3l-2,3.8h-0.8l-0.8-0.8l-1.2,0.2l-0.8,0.7l-1.7-1l-0.2-1l-0.8-0.8l-6.3-0.2v-0.6l-2-2.2l0.1-4.4l2.9-1.6l4-0.8
    l1.4,0.8l3-3l1.4-0.6l-0.2-0.7l-1.3-2.4l-0.5-0.1l-4,1.2l-4-0.6l-1.8-1.8l-1.9-4.1l-3.2-0.1l3.4-2.8h1.6l1.2-1.1l1.1-0.1l1.7-1.8
    v-4l0.3-0.2l1.1-0.1l1.7-1.9v-2.5l0.4-0.2l2.6,0.1l3.4,1.8l10.9,0.1l2-2l1.1-0.3l2.4-2.2l0.4-1.5l1.8-1.5l0.4-0.1l2.3,0.6l2.6,1.4
    l2.7,2.5l0.1,1.6l0.8,0.6l0.2,1.2c0,0,0.3,0.5,0.7,0.5h2.6l4.7-2.9l1.1-0.8l-0.1-3.4l-1.9-1.8l-0.1-2.3l-0.6-0.6l-1.1-1l2.2-3
    l0.3-2l-0.6-1.8l-1.2-1.6l-0.2-3.7l-1.5-1.4l-1.5-2.4l0.1-6.1l-2-2l-0.2-2.7l0.5-0.5l0.9-0.5l0.9,0.8l1.3,0.3l0.8-0.4l0.9-1.1h1.5
    l0.3,0.3l0.3,1.5l5.4,0.5l0.4,0.8l6.9,7.2l-0.1,1l-1,0.8l0.2,2.3l1.1,1.1l1.8,0.8l0.8,1.5l3.4,5.4h2.6l0.4-0.3l2-2.7l1.1-0.9
    l1.7-0.1l0.8-1l2.8,0.1l0.8,0.8l2.7-0.1l4.3-4l0.6-2.8l0.9-1.1l1.8,0.2l0.3,0.3l1.4,0.5l0.6-0.8l-1-1.1l-2-1.5l-0.1-3.4l0.8-0.9
    l0.5-6.2l0.7-2.2l4-4v-0.9l-1-0.8l-2.7-0.1L582,594l0.1-5.6l0.9-0.5l0.1-0.6l-2-1.8l-0.1-0.7l0.3-0.3L582.5,583.9L582.5,583.9z
     M236.4,843.1l-0.5,1l-0.8,1.2l-1.6,1.9l-0.1,3l-2,1.7l-0.8,0.2l-4-0.2l-3.1-1.1l-1.8-1.1l-7.5-2.7l-2.9-0.1l-1.6-2.2l0.2-0.9
    l2.9-2.6l1.2-0.4l0.6-0.9l0.2-2.1l1-0.5l2-0.6l2-1.1l1-1.7l0.3-0.5l0.1-0.6l-0.7-0.8l0.4-3.1l0.7-0.6l1.4-0.5l2.2-2l0.7-3l1.2-2
    l1.6-1.8l0.8,0.9l1.1,0.3l0.5,1.8l0.7,0.9l1.2,0.1l0.7,1.2l0.3,7.2l0.7,1.2l0.2,1.4l1.9,2v3l-1,0.5v0.9l1.1,0.6L236.4,843.1
    L236.4,843.1z M303.5,719.5l-0.4-1.2l0.4-0.8l0.5,1.3L303.5,719.5z M305.3,717.4l-0.3-0.5l0.5-0.3l0.5,0.6L305.3,717.4z
     M466.3,697.2l-1.1,0.1l-1.8,2.4l-1.1,4.7l-1,0.7l-0.5-0.5l-1.5-0.4l-0.7-1l0.1-3.9l0.6-0.4l0.7-7.1l1.1-1.4l3.9-1.3l3.7,0.2
    l1.8,2.1l-0.2,2.7l-1.8,2l-0.7,0.1L466.3,697.2L466.3,697.2z M476.5,705l-1.7,0.1l-2-1.8l-0.9,0.3l-3,0.5l-0.5-0.3l0.2-0.9l1-0.9
    l1,0.1l0.8,0.6l0.7,0.1l0.4-0.6l-0.1-2l0.3-0.4l1.1,0.2l1,0.9l0.8-1l1.9,1.7l0.2,2.2L476.5,705L476.5,705z M379.6,596.8l2.4-1.3
    l1.9-2.1l1.1-1l-0.1-0.8l-2.8-1l-1.8-0.5l-2.8-5l-0.8,0.7l-0.2,5.6L376,592l-0.1,2.5l0.5,0.6l0.7,1.4L379.6,596.8z M415.9,579
    l0.7-4l0.5-0.5l0.9-2v-3.1l-0.9,0.1l-1.6,1.4l-1.5,1.6l-0.8,5l-0.7,1.6l-0.9,0.7v2.6l1,0.4l2.4-2.4L415.9,579z M200.4,538.2
    l0.1-1.3l-1-0.7l-0.8,0.6v1.5l0.9,0.6L200.4,538.2z M199.2,540.7h0.6v0.7h-0.6V540.7z M180,470.9l1,0.5l2,0.6l1,0.5l2.1,1l0.5,0.7
    l0.5,0.8l1,2.5l0.4,4.5l-1.8,1.8l-0.1,3l-0.5,0.7l-0.5,2.4L185,491l0.4,1.1l0.6,2.4l1,0.1l0.5-0.6l1.6-0.5l0.4-3.5l0.9-1l0.5-0.9
    l1.3-0.6l-0.2-1l-1.5-0.5l-0.5-2.6l-0.4-0.5l0.4-0.4l1-2.1l1-5.4l0.6-1l1.4-1.5l0.3-1.8l-1.3-1.2l-3.6-0.5l-3.4,0.1l-1-0.6l-2-1.9
    l-1-0.6l-1.2-0.7l-3.6-0.1l-0.5,0.7l-0.1,2.3l2.4,2.3L180,470.9z M1112.5,122l-2-1.9l-1.1-0.5l-0.8,0.4l0.1,1l1.9,1.9l0.9,0.3
    l0.8,0.6h1.4l0.9-0.8l1.6-0.5l0.2-0.7l-0.7-0.6h-1.5L1112.5,122z M1075.9,44.5l0.1-1l-1,0.1l0.1,0.9H1075.9z M1071,41.4l1.3,0.8
    l0.9,0.6l0.9-0.5l0.2-1.1l-0.9-0.8l-1.6-2.2l-1.5-0.1l-0.7,0.8l1.1,1.1L1071,41.4z M1054.1,58.9l0.7-1l1.2-0.5l1.5-1.3l-0.7-0.9
    l-2.5,0.6l-3.7,0.8v1.6l0.7,0.7L1054.1,58.9z M1087.3,89.9l1.5-0.1l0.6-0.7l0.2-1.2l-0.6-0.5l-1.7-0.4l0.1-1l-0.8-0.8l-0.4-0.1
    l-0.7,0.8v2.9L1087.3,89.9z M1211.6,69.8l0.1,1.5l0.7,0.5h1.1l0.4-0.8l-0.6-1l1-0.7l0.3-1.5l-0.8-0.6h-3.6l-0.5,0.3v0.9l0.9,0.7
    L1211.6,69.8z M1136.5,153l-1.3,0.2l-0.2,1l1.2,0.9h1.2l0.1,3.9l0.9,0.7l3,0.2l5.4-2.8l2.2-0.6l1-1l1-2.1l0.9-0.9l0.6-2.8l2-1.8
    h3.7l1.5,1l2.1,1l1.5,0.9h1.2l1-0.8l1.9-0.7l0.8-1.9l1.7-1.8l6.3-2.2l1.8-0.8l2.2-1.2l0.9-1l0.5-1.4l1.3-1.4l1-2.2l2.2-2l1.8-1.1
    l1.6-1.2v-3.5l-1.1-0.6l-0.7-0.2l-0.8-0.6l-2.4-0.2l-2.9,3l-1.2-0.8V121l1-0.8l-6.8-7.3l-5.3-2.2l-2.6-2.6l-1.9-0.3l-1,1l-1.2,1.3
    l1,0.8l0.9,0.2l1,0.8v1.9l-1.9,0.9l0.1,6.4l2.4,2.6l0.4,0.6l0.2,0.8l-2.6,2.4l-0.8,2.9l-2.6,2.4l-0.3,2.3l-1.9,1.8l1.1,1.1l0.1,1.3
    l-2.1,1.7l-3.9,0.6l-0.1,0.6l1.1,0.8l-0.2,2l-1.5,0.8l-0.4,2.3h-1l-4-2.2l-1.1-2l0.9-0.9l-0.5-0.9l-1.4-0.2l-1.1-0.9l1.2-0.8
    l-0.1-1.2h-1l-2.1,0.1l-0.8,0.5v1.1l0.9,1.3l-0.1,1.7l-2,0.3l-0.6-0.9l-1.4-0.2l0.1-2.2l-0.8-0.6l-1.2-0.1l-2,1.9l-2-0.2l-0.7-0.6
    h-0.4l-0.8,0.7v0.8l0.9,0.6l1,0.7l0.8,0.9l1.2,0.2l0.5,0.7l1.4,0.2l1.9,2.1l0.1,1.8l-1.6,2.1L1136.5,153z M1174.6,100.2l-0.9-3.3
    l-0.1-1.9l-3.2-3l-0.2-3.3l-0.7-1.1l-3.1-0.8l-0.1-0.9l-1-0.9l-1.1,2.4l-2.2,2l-0.8,1.5l0.4,0.9l0.1,2.4l0.4,0.9l-0.4,1.2l0.8,0.8
    l-0.9,1l2.5,2.5l2.5,0.4l1.5,1.5l1.5,0.6l4.6,4.4l1.1,0.6l1.7,1.3l2.3,1.5h2.6l0.6-0.9l1,0.1l2,0.9l0.2,2.2l0.6,0.7l0.5-0.1
    l1.3-1.4l0.6-1.6l1.7-1.8l-0.7-1l-0.8-3.4l-0.9-3l-0.5-0.7l0.1-7l2.6-2.6l0.3-1.1l1.1-1.2l-1-1.1l-0.8-3.2l-1.2-0.5l-1.2-1.3v-1
    l1-1l0.2-0.9l-1-0.9h-1l-0.7,0.2l-1.2,1.3l-0.6,1.6l0.4,1.4l-0.2,4.3l2.3,2.2l-0.1,1.8l-2.6,4.8l-0.8,2l-2.9,0.5l-1.7,1.9l-3-0.1
    L1174.6,100.2z M1112.7,89l2.1-2.9l8-0.4l2-0.9l1.1-0.8l3.8,0.3l0.9,1.2l0.7-0.5l1.8-0.5l0.4-2.4l2.2-0.1l0.8,1l1.2-0.2l1.4-1.7
    l0.6-2.1l1.9,0.1l1.6,1.4l1.6,0.6l1,0.8l0.7-1l-6.9-7l-0.1-0.8l-2.2-2.2l0.1-0.8l0.6-1.1l-0.6-1l0.2-0.8l-3.1-3l-1.1,0.1l-1.3,0.8
    l-0.6-0.1l-2.9-2.9l0.8-1.2l-0.6-1.1l-0.5-2.5l0.7-1.9l2.1-0.8l0.6-2.5l1.1-0.1l0.7-1l1.2,0.1l1.1,0.7l0.7-0.8l5.9,0.1l0.8,0.4
    l0.9,2l3.9,4l2.9,1.5l1.3,1l2.6-0.1l1.6-2.1l-1.1-0.8l-0.8-1.2l1.7-1l1-0.8l0.4,0.1l1.2,0.8h1.2l0.9-1l-0.6-0.6l-0.7-1.4l0.7-1.3
    l0.6-0.7h1.7l1.5,1.6l3.3,0.7l1.2,0.8l1.2,0.9l1-0.8l2.1-0.6l1.6-1.2l2.4-2.1l0.7-1.1l-1.2-0.9l-0.8,0.7h-1l-2.8-0.8l-1-0.9
    l-11.2-0.4l-3-1.3l-1.3,0.4l-0.9,2.1l-1.9,1l-3.9-0.1l-3.9-1.4l-2.8-0.5l-2.6-1.7l-2.4,0.8l-1.5,0.9l-3-1.5l-1,0.6h-1.9l-3-3
    l0.1-2.3l1.9-1.8l0.2-1.1l-3.2-2.9h-1.3l-0.7-0.7l-0.7,0.7l-1,0.8l-1,1.8l-1.1,0.4l-1.5,1.5l-0.7,1.3l-1.1,0.9v0.8l2.9,2.3l1.7,1.7
    l2,1l1.6,1.7l-0.2,2.9l-0.7,0.6l-0.3,4.2l-2,2.2l-2.1-0.1l-0.7,1.1l4.7,4.4l1.5,0.9l2.8,2.7l0.4,2.2l1.5,1.8l1.1,1.1l1,1l-0.7,1.5
    l0.5,0.6l-0.2,0.8l-4.9,0.1l-0.9,0.8l-1.1-1l0.2-0.9l0.7-0.7l-0.6-0.8l-1.1,0.5l-1.9,1.9h-2l-0.2-0.4l-1-0.5l-1,0.9l-1.3,0.5
    l-0.8,5.4l-0.7,0.2l-2.9,2.6l-0.3,2.3l0.5,1.1L1112.7,89z M1463.9,73.2l-1.6-0.1l-0.4-1l-5.4,0.1l-1.1,0.7l-1.9,0.1l-0.7-0.7
    l-2.4-0.2l-0.9-1l-0.1-1.3l-1.8-1.6l-1.2-0.4l-1.1-0.7l-0.8-0.4l-1.1-0.7l-0.8-0.5l-1.1-0.6l-0.6-1.6l-0.5-0.3v-2.2l1-0.6l0.1-3.4
    l-0.9-0.7l-0.9-0.8l-1.1-0.6l-0.2-4.5l0.9-0.9l0.2-1.5l0.9-0.4l0.1-2.8l-0.7-0.4h-1.6l-0.6,0.7l-1.2,0.8l-0.8,1.5l-0.9,0.6
    l-1.5,0.6l-0.8,0.6l-2.3,0.5l-0.5,0.8l-0.4,0.6l0.5,1.1v1.1l-0.8,0.6l-1.2,1.2l-1.1,0.9l-0.2,0.4l0.8,0.4l1.3,1.4l0.8,0.2l0.7,1.4
    l0.6,0.5l0.5,1.8l0.4,0.3V67l0.8,0.9l0.5,1.5l0.7,0.7l0.6,0.7l0.2,0.5l0.5,1.4l0.2,1.2l0.7-0.3l0.5-0.6l1.2-0.1l1,1l1.6,1.6
    l0.5,0.5h1.9l1,0.7l0.3,0.7l0.7,1l0.7,1.3l1.3,0.2l0.7,0.8h5.8l0.5-0.7l1,0.1l0.6,0.6h3.8l0.6-0.7l1.8-0.4l0.3-1.7l0.9-0.9l1.2-0.9
    l0.7-0.9v-1.4L1463.9,73.2z M1210.7,227.4v0.8l0.6,0.6h1.4l0.6-0.4v-4.8l0.1-1.5l0.8-1.1l0.1-0.9l-0.2-0.7l-0.7-0.2l-0.2-0.6
    l-0.3-0.5h-0.5l-0.7,0.7v7.4l-0.4,0.8L1210.7,227.4z M1302.7,215.8l0.1,0.8l0.5,0.1h0.6l0.3-0.3l0.2-0.5l-0.1-0.5l-0.5-0.3
    l-0.6-0.5l-0.3-0.4l-0.3-0.1h-0.5l-0.3,0.4l-0.1,0.5l0.3,0.7L1302.7,215.8z M1271.5,177.2l0.2,4.8l0.8,0.9l1.4,0.2l0.5-0.9
    l-0.1-1.9l0.4-0.4h1.5l0.4,0.2l0.3,1.5l0.9,0.4l1.7-2.1l0.1-5.6l1.1-1.3l0.1-1.1l1.7-1.8v-1l2-1.8l0.1-1.2l0.9-0.9v-0.9l-0.6-0.4
    h-3.2l-1.2-0.9l-0.2-0.9h-4.9l-1,0.8l-1.7,0.3l-0.5,1l-1.7,1.7l0.1,1.4l0.9,0.9v2.7l-0.7,0.1l-2.7,0.1l-0.7,0.9v1.1L1271.5,177.2z
     M1265.4,223.2l0.8,0.5l1.2,0.6l0.5,1.4l1.7,0.8l0.9,0.5l0.1,7.5l0.7,0.6l0.3,1.5l0.9,0.6v1.3l1,0.6l0.1,1.8l-1.1,0.7l-0.1,0.8
    l0.7,0.5h1.5l0.8-0.7l0.7-1.2l0.7-1l0.8-1.1l0.9-0.6l0.4,0.5l0.9,0.3l0.7,0.9l-0.2,2l-0.7,0.1l-4.2,3.5l0.1,5.4l-1.2,0.8v1.2
    l-0.7,1l0.1,2.5l0.8,0.8l0.1,1l2.9,2.6h2.5l0.5-0.5l1.2-0.5l2-2l0.8-0.9v-1l1.9-1.9l0.1-1.1l0.6-0.9l-0.5-1.1v-1.1l-1-0.9l-0.2-1.5
    l-0.6-0.5l0.6-0.6l0.1-1.4l1.2-0.9l3.2-0.1l1.6-1.9l0.1-1.2l0.7-0.4l0.2-0.8l-1.1-0.6v-1.2l1.1-0.7v-1.1l1-1.1l-0.1-1.3l-0.9-0.7
    l-1-1.3l-1.1-0.7l-0.3-0.7l-1.3-0.2l-1-0.9l-2.3-2.2l-0.7-1.2l-0.5-2.1l-0.4-0.6l0.6-0.4l0.2-2.7l0.8-1l1.2-0.6l0.8-0.5l-0.1-5.3
    l-2-1.6l-1.1-0.9h-2.7l-3-2.9l-0.5-0.2l-0.7,1l-1.3,0.2l-0.7,0.9l-2.5,0.4l-0.9,1.2l-0.5,2.3l-0.6,0.4l-0.5,1.6l-2.1,2l-2,0.1
    l-2.9,2.6l0.3,3.1L1265.4,223.2z"/>
  <path class="st1" d="M1278,240.6v0.9h1v-1.1L1278,240.6z M1360.2,303.7l0.2-1.2l-1.9-0.4l-0.9-1l-0.9,0.4l-0.1,2.1l1.9,0.7
    L1360.2,303.7z M1171.6,553l0.9-1.1l1,0.1l3,2.9l0.3,2.1l0.7,0.4l0.1,1.1l2,0.5l0.2,0.7l1.5,0.6l0.4,0.7l5.8,0.2l0.1,0.6l3.4,1.1
    l1.6-0.7l2.6-0.4l2.2-2.3l0.1-4l-2.7-2.6l-1.3-2.1v-0.9l4.7-0.3l2.3-1.2l-0.1-4.2l-1.8-0.2l-1-1.1l-0.3-1.9h2.2l0.4,0.8l3.6-0.1
    l-0.1-1.6l-0.9-0.1l-0.1-2.7l-1.8-1.4l-0.2-2l0.9-0.9l1.3-0.1l2-1.6l-0.3-2.2l-0.6-0.4l-0.4-1.4l-1.8-0.4l-0.2-0.6l-2.5-0.2
    l-1.2-1.2l-0.3-1.8l-1.9-0.2l-2.7-2.9l-1.1,0.8l-1.1,0.1l-1.7-1.6l-2.2,1.5l-0.8-0.8h-1.3l-0.2-2l-1-0.8l-1.9-1.2v-3l1.7,1.9
    l2.3-0.1l0.1-3.7l-0.9-0.9l-1.2-0.2l-1-0.9l-0.1-1.1l1.2-0.9l3-0.1l0.6,0.9l1.4-0.6l-0.2-3.7l-0.8-0.7l-0.1-1.6l-2.8-2.4l-0.2-3.6
    l-1.8-0.4l-3.1-3.1v-2.7l0.9-0.7l-0.3-1.9l-0.7-0.3l-0.2-1.2l-0.6-0.2l-0.1-4.9l0.8-0.7l0.1-1.1l2.2-2l-0.6-0.8l-1.5-0.5l-1.9-0.7
    l-0.8-0.7l-1.1,0.5l-3,2.7l0.1,1.9l0.7,0.4l0.1,1.1l-0.9,0.6l-0.1,1.4l-1.8,1.6l-0.8,0.2l-0.5,2.9l-1.5-0.5l-2.2,0.1l-0.4,1.3
    l-1.1,0.5l-2.9,3l-0.6-0.9l0.8-1.2l0.6-0.3l1.4-3.8l1-1l1.7-0.5l0.1-2.5l1.1-0.9l2-0.8l-0.9-1.2l-0.2-2l1.1-1.1l1.8-0.1l0.6-2.9
    l0.6-0.9l-1.9-1.9l-2.3,0.1l-0.8,0.8l-2.1,0.3l-0.6,0.9l-0.8,0.1l-2.3,2.3l-0.2,4.4l-2.9,2.7l-0.3,1.2l-0.6,0.5l-0.2,3.6l-1,1
    l-1-0.2l-0.5-2.4l-1-0.3l-0.4,1.9l-1,0.7l0.2,1.2l0.8,0.9l-0.8,1.1l-1.1,0.4v1.9l1.6,1.8l-0.8,0.9l-4.4,0.2l-1.6,1.5l0.3,4.2
    l2.7,2.1l0.8-0.4l0.2-3.7l2.1,0.2l0.8,0.7l0.4,2l0.6,0.3l0.3,2l-1,0.5v1.7l0.7,0.3l0.5,2.2l0.5,0.2l0.2,4.3l2.7,2.9l0.8,0.2
    l0.5,1.2l0.9,0.5l0.1,3l-2,0.1l-0.3-0.9l-1.7-0.1l-0.9-2.6l-1.3,0.6l-1.1,1.7l0.7,2l0.3,0.3l0.3,1.1l1.7,1.7l1.3,0.4v0.7l-7.2,6.9
    l-0.3,0.9l-0.5,0.7v2.6l0.9,1.5l-0.8,0.8l-0.1,0.9l0.6,0.5l0.4,1.7l2.7,2.4l0.3,2.6l0.8,0.5l0.3,1.7l1.9,0.3l1.8,1.9l0.4,1.9
    l1.4,1.2h1.4l1.7,1.9l0.4,1.9l0.9,0.3l0.7,0.5l1.3,0.6l0.9-0.6l1.8,0.3l0.3-2.9l1.9-1.7L1171.6,553z M1136.9,791.1l-2.2-0.4
    l-0.2-2.1l-1-0.5l-1.1-0.8v-1.2l0.9-0.5l0.2-1.8l-1-0.9v-1l1.1-0.9l2.6-0.1l0.3-2.3l-3.9-1.7l-1.1-0.8l-0.1-2l2.1-1.8v-0.9
    l-1.9-0.4l-3.2,2.9l-0.9-0.1l-1.1-0.9l-3.2,3l-1,0.1l-0.7,0.9l-0.7,0.1l-0.5,0.9l-0.8,0.1l-1.8,1.4l-0.4,2.7l-2,1.9l-2.6-0.2
    l-2.5-2.8h-3.1l-0.7,1l-1-0.1l-1.8,1.5l-0.2,2.3l-0.6,0.3l-0.2,1.9l-3,2.3v8.3l1.3,1.6l0.2,1.2l-2.6,1.9v4.7l5,0.2l0.1,0.7l1.2,0.3
    l1.8,0.9v0.7l2.5,0.4l0.7,0.8l2.7,0.1l3,2.9v1.1l-2,1.7l-0.1,5.9l2.4,0.4l2.6-2.7l0.1-1.1l0.6-0.3l0.4-1.3l-2-1.7l-0.1-2.6l3-3.2
    l2.2,0.1l0.7-0.1l3.9,0.1l2.2,1.9l0.3,0.6l2.4,0.7l0.5-4.3l0.6-0.2l0.5-4.9l-0.2-2.4l-1-0.7l0.1-0.9l2.9-2.5l0.7,0.3l2.4,0.2
    l-0.1-6.3L1136.9,791.1z M1262.1,777.6l0.3-1.1l-1-0.6l0.3-9.8l-1.2,0.2l-0.8,6.9l-1.1,0.7l-2.5,0.2l-1.7-2l-1.9,0.2l0.2,2.1
    l0.7,0.5l-0.7,0.8l0.1,3.4l0.8,0.9l1.1,0.9l-1,0.6l0.2,1.7l2.5,1.6l-0.3-2.4l0.3-1.4l1.1-0.1l1.1,0.8l1.1,0.3l0.3,0.7h2.4v-2.2
    l-2-1.6l0.3-0.9L1262.1,777.6z M1250.6,781.7l-4.3-2.5l-1.8,0.7l0.4,0.6l1.2,0.5l-0.1,0.5l-1.2,0.2l-0.2,0.5l0.8,0.7l-0.9,0.7
    l0.1,0.3h2.1l0.2,0.7h2.3l2.3,0.7l0.3-1.7l-1-0.5L1250.6,781.7z M1246.7,759.1l-1.9,0.5l0.3,1.5l1.4-0.2L1246.7,759.1z
     M1253.5,755.2l0.6-0.2l0.3-4.1l1-1.8l2.1-2.1l-0.1-1.4l-1-0.7l0.2-0.6l1.6-0.5l0.4-1.3l-1.8-1.4h-3l-0.3,3.7l-2.9,3.2l-3.1,0.2
    l0.3,2.5l0.9,0.4l-0.5,1.8l-0.7,1.1l0.6,1l0.4,4l0.9,1h2.4l1.7-1.9V755.2z M1301.5,753.1l-0.7,0.4v0.7l0.7,0.4l3.1,2.3l0.9-0.5
    l-0.3-1.6L1301.5,753.1z M1296.9,755.3l0.7,0.8l0.7,0.7l0.7-0.9l-0.8-1.2L1296.9,755.3z M1297,749.9h-1.3l0.2,1.5l-1.3,0.4l1,1.2
    l2.1-0.6L1297,749.9z M1177.6,727.8l-0.5-3.8h-2.5l-4,3.8l0.9,1l0.3,2l0.7,0.1l0.3,1h4.1l1.8-1.8l-0.4-2.1L1177.6,727.8z
     M1296.5,648.4l-0.9-0.4l-0.1-4.2l0.7-0.8l2.2-0.2V642l4.3-0.3l-0.8-1.7l-1.1-0.5l-0.4-3.2l-1.8-1.3l-0.2-3.1l2.1-1.6l-2.8-3.2
    l-0.5-2l-0.5-0.4l-0.3-3.4l-2.9-0.5l-0.3-0.8l-1.7-0.1l-0.8-1.7l-4.2-0.3l-0.7-0.9h-1.3l-4,3.9l0.1,1.4l0.8,0.6l0.3,6.9l2,0.2
    l0.8,0.9l-0.8,0.7l-0.1,2.4l1.8,1.9l0.3,1.6l0.9,0.5l0.1,0.7l3.8,0.4v1.2l2,1.7l0.1,1.1l-0.8,0.4l-0.4,1.4l-0.8,0.5l0.1,3.3
    l2.8,2.4l2.9-0.2L1296.5,648.4z M1318.8,596.8l-0.7-0.5l-1.5-0.3l-1.2-1.1l-0.3-1.8l-5.3-0.2l-1.2-0.8l-0.5-2l-1.7-0.1l-1.8,1.7
    l0.4,2.9l2.2,2.3l3.4,1.1l0.4,0.9l2.6-0.1l0.4-0.7l2.6-0.1l1.7,2l2.1-1.8l-0.4-1L1318.8,596.8z M1269.7,603.8l-0.8-0.7l-1.3,0.7
    l-0.9,0.5l-0.3,2.6l-1.7,2l-1.4,0.4l-0.7,0.8l-0.4-0.8l-1.8-0.2l-0.2-1.4l-1.6-1.6l-2-0.1l-1,0.7l-0.2,1.3l-0.9,1l-1.5,0.2
    l-1.3,1.4l-0.2,8.4l-0.7,0.7l-0.3,1.1l-1,0.3l-1.9,1.5l0.1,5.5l0.6,0.3l0.4,3l1.7,1.4l1-0.8l0.1-1.1l0.7-0.3l0.4-2.5l2.9-3.1
    l0.9-0.1l1.9,2l1.2,0.2l4-2.2l0.7-0.1l0.2-2.2l-0.8-0.6l-0.3-0.9l1-0.5l0.3-3.3l-1.8-0.6l-0.3-3.7l1.5-1.1l2.2-0.1l2.6-2.9l1.3-0.4
    l0.4-2.5l1.2-0.5l-0.7-1.5L1269.7,603.8z M1281.3,588.9l-0.7,0.5l0.1,3.4l2.3,0.2l0.4-0.9l0.6,0.8l2.1,0.2l0.6,0.8l1.9,0.1l0.8,0.9
    l1.3,0.6l0.8-1.5l1.1-1l2-0.5l-0.5-1.2l-0.5-0.4l-0.3-4.5l-0.7-0.5l-0.4-1.6l-0.7-0.5l0.8-0.8l1-0.4l3.3-3.6l-0.3-7.9l-4-0.9
    l-1.8,1.9l-0.8,1l-0.1,1.8l-1-0.1l-1.9-1.8h-1.3l-0.6-0.9l-1.5,0.6l-1.5,0.4l-0.2,0.9l-0.6,0.8l1,2l-0.6,2.3l-0.7,0.4v3.4l0.7,0.9
    l1.1,1.8l0.1,1.4l-1.1,1L1281.3,588.9z M1098.3,468l-1-0.9l-0.6,0.9l3.8,3.8l2-1.6l-1.7-2.2L1098.3,468z M1147.6,482.4l1.3,1.4
    l1.7,0.2l0.6-1.1l-0.7-1l1.7-1.2l0.3-1.7l2-1.6v-3.7l-1-0.7l-0.1-1.4l-1.8-1.5l-3.1-0.2l-3-2.9l-0.9,0.7l-1.3,0.4l-0.9,1l2.1,1.9
    l-2,1.7l0.1,2.9l0.7,0.4l0.3,3.6l3.9,0.5L1147.6,482.4z M1125.9,525.9l1.4-0.2l0.2-0.7l1.9-0.1l0.7,0.9l2.6,0.1l1.6,1.9l1.3-0.6
    l-1.1-1.4l-0.4-1.7l-0.6-0.5l-0.3-8.4l-0.8-0.3l-0.1-1.8l1.2-0.7l-0.5-1.3l0.5-1.1l3-2.9l-0.2-2.8l-3.7-1.4l-0.9-0.9l-0.5-2.8
    l-2.5-0.3l-0.6-1.9l-1.4-2l0.7-0.6l-0.1-3.2l-1.5-1.1l-0.3-1.9l-0.9-0.5l-0.1-1.2l0.9-0.5l1.4-0.9l1.5-0.3l0.3-1.8l1-0.8l1-1.5
    l-1.2-0.6h-2.8l-2,1.9l-0.3,1.7l-2.4,0.5l-0.4,1.8l-1,0.4l0.2,4.2l0.9,0.4l-0.5,1l-0.5,0.2l-0.2,0.9l-0.9,0.8l-0.1,2l-0.8,0.3
    l-0.1,1.7l-2.2,2.2l-3.7,0.2l0.1,1.6l1.9,0.1l0.9,0.9l0.1,1.6l3.8,3.5h1l3,3l0.4,1.5l0.8,0.5l0.9,0.9l-1,0.7l0.4,3.1l0.6,0.1l0.2,2
    l0.8,0.2l0.1,3l-1.1,0.5L1125.9,525.9z M1146.4,605.5l-1.4-0.7l-0.2-0.8l-4.3-3.9l-0.4-1.8l-1.6-1.1l-2.7-1.3l-0.2-1l-2.9-2.8
    l-2.3-0.5l-2.1-1.5l-1.7,0.3l0.1,1.1l0.9,0.5l-0.2,1.9l-0.7,0.3l-0.2,8.3l2,1.5l0.2,1.7l0.8,0.4l1.9,1.8l0.1,1.7l1.5,1.4l4,0.9
    l0.4-0.9l0.5,0.9l1.5,0.4l0.5,0.4l4.7,0.3l0.9-1.4v-2l-0.8-0.7l-0.2-0.6l1.8-0.8L1146.4,605.5z M1221.1,578l-0.6-1.6l-2.2-0.4
    l-1.1,3l-0.8,0.6l0.4,3.1h2.1l1.7-0.8l0.4,0.8l1.1,0.1l0.4-2.4l-2.1-1.5L1221.1,578z M1210.3,585.5l-0.6-0.5l-0.1-1.1l-1.3-1.7
    l-1.9-0.4l-1.9-2.1l1.1-1.1l-3.1-2.8v-0.6l-0.9-0.9v-1.6l0.6-0.2l0.3-3.1l-1.6-1.5l-2.4-0.2l-1.9-2l-1-0.1l-0.4-0.7l-3-0.4
    c0,0-0.8,0.9-1,1.1c-0.2,0.1-2,0-2,0l-0.9,1.1l-1.4,0.2l-1.6,1.8l-3.8-0.1l-0.2-0.4l-1.3-0.6l-0.6,3l-2,1.7l0.4,2.3l0.5,1.1
    l2.9,2.8l1.3,0.2l-0.5,4.9l-0.6,1.8l0.8,0.9l0.4,1.8l1.3,1.4l3.6,0.4l0.7,0.8l-1.7,1.9h-1.5l-0.6,1.2l0.7,0.7l1.3,5.4l2.6,2.6
    l1.7,0.1l1.5-2l2,0.2l0.6,0.7h2.1l1.4-1.7l1.1-0.2l0.7,0.9l0.4,1.7l0.9,0.6l0.2,1.1l0.8,0.5l2.9-2.6l0.9-0.3l0.4-2.5l1.3-0.4
    l0.4-0.7l2.8-0.3l0.3-8.4l-1-0.6L1210.3,585.5L1210.3,585.5z M1045.4,845.2l-0.8,0.7v1.1l0.7,0.9l3.3-0.2l-0.6-1.4l-1.2-0.5
    L1045.4,845.2z M1051.4,843.1l-0.3-1.8h-2.6l-0.8,0.5l-4.1,0.7l0.3,1.3l0.6,0.1l1.5,1l3.5,0.1L1051.4,843.1z M879.6,828.8l-0.8-0.6
    l-3.1-0.1l-3,2.5v1.9l2.6,2.4l0.7,2.4l1.1,0.6l1.6-0.1l1.9-1.8v-1l7.5-0.3l1-0.5l0.4-1.3l1-0.6l-1.9-3.1L879.6,828.8z M881.4,874.7
    l-0.8-0.6l-4.1,0.3l0.2,3.4l1.7,1.4l0.4,2.4l1.8,1.3l2.9-2.9l2.1-0.5l1-3l-4.1-1.7L881.4,874.7z M827.5,842.8l-0.9-1.7l-0.6-3.7
    l-1.6-1.5l-1.6-0.9l-1.3,0.1l-1,0.9l0.2,3.2l1,2l3.4,3.7l3.4-0.1l-0.5-1.6L827.5,842.8z M777.5,809.3l-0.6-1.3l-2.5,0.2l-0.6,0.8
    l0.3,0.7l2,0.4L777.5,809.3z M820.3,809.6l0.1-1.7l0.7-0.8l-0.6-1l-0.5-1.9l-5.8-0.2l-0.9,0.8l-2,0.6l-0.8,0.7l-0.9-0.1l-0.7-1
    l-3.2-0.2l-0.7-0.6l-1.6-0.4l-0.4-0.6h-2.3l-0.6,0.6l-6.6,0.4l-0.2,0.8h-4.8l-2,1.8l1.6,2l3.2,0.1l2.2,2l1,2l0.3,2.6l0.6,0.5
    l0.4,1.8l2.5,2.2l1.5,0.2l0.9,0.6l1.9,0.3l2.6,2.7l1.2,0.4l4.8,4.6l3,0.4l2.3,1.8l1.1,0.2l0.3,0.8l3-0.1l1.5-1.6l0.3-1.1l0.6-0.7
    l0.3-0.4l4-0.6l-0.5-1.1l-2.5-0.3l-1.1-1v-2.9l1.1-0.8l-0.3-6.1l-0.9-0.5l-0.9-1.2l-0.7-1.5l-1.3-0.3l-1.1-0.9V810L820.3,809.6z"/>
  <path class="st1" d="M1019.5,899.1l7.1-0.1l2.4-0.7l2.5-1.1l2.5-0.4l1.1,2.1l3.9,0.1l2.4-3h2l2,1.9l2.3-0.1l0.9-0.9l1,0.9l2.4,0.1
    l1.5-2.3l-1.6-1.6l-1.3-0.1l-0.2-1.2l-3.7-3.9l-4.8,0.1l-0.5,0.8l-0.9,0.1l-1.7-1.9l1.5-1.5l0.1-4l-0.8-0.6l-0.2-2.6l0.8-0.6
    l-0.3-5.2l-1.1-6.6l-0.6-3.6l-1.4-1.2l-0.5-1.7l-1.8-1.6l-1.5-2.7l-0.4-3.5l-3.2-2.7l0.1-2.9l2-2.3l3.1-1l1.7,1.8l3.5,0.7l2.2,0.5
    l0.6-1.2l-1.1-0.8l-1.3-2.8l-3.4-0.1l-1.6-1.9h-3.6l-1-1.2l0.1-1.8l1.3-0.1l1.7-1.9l0.8-3l2.1-1.5l0.1-2.8l-6-5.7l0.1-3.9l0.9-1.2
    l-0.6-0.8l-0.8-1.9l-2.7-1.8l-2.1-0.6l-2.4-2.6l-1-2l-0.6-3.4l-0.8-0.7l0.1-2l1-1h1.9l2.2,1l0.2,0.6l1.2,0.3l0.7-2.9l1.5-0.8
    l-0.8-1.2l0.5-0.9l1.4-0.2l0.8-0.9h3.3l0.3,0.8l3.2,0.4l0.6-1.8l-1.1-0.9l-0.1-5.1l1.4-0.4l1.5-1.4l0.3-5.7l0.9-1.6l0.8-0.4
    l-0.1-4.2l-2.5-4.6l-0.3-4l2.2-2.2l1.1,0.5l0.8-1.6l-8.3-8.4l-1.5-0.4l-1.1-0.9l-5.1-5.2l-0.3-1.6l-3.4-0.1l-0.6,2.1l-1.7-0.1
    l-1.8-2.1l-0.4-4.4l-0.7-0.6l-0.3-3.4l-1.3-0.8l-0.9,3.2l0.4,2.5l0.6,0.4l0.4,1.2l-1.1,0.9l-3.2,0.9l-0.8,1l-1-0.9l-0.1-1.3
    l-2.7-2.7l4.5-4.3l0.2-1.9l-1.4-1.5l-0.5-1.4l-3-3l-0.2-1.3l-1.1-0.8l0.8-0.8l0.3-3.2l-2.4-2.5l-1.8-0.4l-1.8-0.8v-4.4l-1.4-1.3
    l-4.5-2.3l-0.7-1.1l-0.3-0.9l-1.5-1.7l-2-0.4l-1.8-0.8l-3,3l-14.7-0.3l-0.3-1.3l-0.8-0.6l-0.2-2.2l-9.8-9.7l-2-0.1l-6-2.5l-2.8-0.3
    l-1.4,1l-0.8-0.4l-6.7-3.4l-2.6-0.9l-2.1-1.1l-9.4-0.3l-1.1-0.8l-1.9-1l-3-1.1l-6.1,0.1l-5.9,1.7l-5.1,0.9l-1.5,0.4l-0.7,0.9
    l-2.3,1.1l-3.5,3.8l-2.3,0.1l-0.8-1.1l-6.7,6.6l-0.3,3.1l3.1,0.4l-0.2,3.2l-0.9,0.6l-4.5,0.3l-0.7,0.8l-3.3,0.3l-2.6,2.5l-0.3,0.6
    l-1.8-0.3l-0.8-0.8l0.8-0.5l-0.2-3.8l-1.5-0.1l-1.1,0.8l-0.6,3l-0.5,0.9l0.6,1.4l-0.2,0.7l-4.6-1.5h-2.6l-5.8,2l-0.4,0.7l-2.1-2
    v-3.1l0.9-0.8l0.1-3.2l-0.8-0.6l-6.5-0.2l-3.3,7l0.8,1.1l-0.1,2l-2.5,0.1l-0.7,0.7l-4.2,0.3l-1.5,0.8l-1.4,0.5l-0.9,0.7l-2.3-0.5
    l-1.4-0.5l-0.1-2.7l-2.5-0.9l-3.1-1l-2.3-0.6l-3-2.9l-0.6-0.9l0.7-1.1l0.9-1.7l3.7-3.6l0.3-1.2l-3-0.7l-2.1-1.3l-3.7-0.8l-2.6-1.1
    l-1.6-0.5l-2,2l-1,0.1l-2,1.8l-1.9,0.1l-0.2-0.5l-3.8-1l-2-0.6l-0.8-0.7l-0.4-1.7l-3.9-1.1l-6-0.3l-1.3-0.9l-11.6-0.1l-1.1,0.4
    l-3.7,1l-6.2,2.1l-2.7,3.1l-6.3,0.8l-1.4,0.4l-1.4,1.8l-1.9,0.6l-5.1,5.4l-6.3,3l-2.4,0.4l-0.5,0.6l-3.2,0.3l-0.6,0.7l-5.4,3
    l-2.6,1.8l-0.3,1.5l-1.8,1.6v7.8l6.5,7.2l-0.6,1.8l6.6,6.6l1.8,3.8l1,1l2.3,4.2l2.1,3l1.2,2.6l1.5,1.3l2.5,5.7l1.1,1l1.8,3.6
    l1.8,1.8l0.2,1.5l2.5,2.3l2.4,4.2l0.2,6.5l1.7,0.6l1.8,2.1l0.2,0.8l1.8,1.9l0.1,1.3l3.9,3.5l1.8-0.2l1.8,0.3l1.6-0.7h2l11.9,1.2
    l15.7,0.5l2.1,0.8l3.3,1.1l2.8,0.5l1.6,0.4l1.6-0.8l4.8-0.1l0.3,0.5l1.8,0.6l2.1,1.8l1.9,1.1h2.7l0.7-0.8l2.6,0.1l2.6,0.9l-0.2,1.9
    l-2.2,1.8l0.2,3.6l1.7,0.7l2.4,2l-0.2,3.6L833,821l-0.8,0.1l-0.9,1.3l1.9,1.8l0.2,1.4l1.3,1.4l2.9,0.4l1.8,0.8l-0.2,2.9l-3,2.7
    l0.2,2l5.6,2.3l1.8,2l3.2,1.2l1.9,2.1l1.7-0.3l2.7-2.5l-0.3-2.9l-0.7-1l0.1-1.2l1-4.3l0.8-1.6l1.3-3.2l1.6-1.7l0.9-1.6l0.5-2.7
    l3.4-3l0.3-3.7l1.1-2.8l1-3.2l2.2-2.3l3-0.8l10.9,0.1l0.4,0.9l1.3,1l1.1,1.8l1.2-0.8l1.9,1.1l-1.1,1.7l-1,0.8l-0.7,1.5l0.2,9.3
    l1.6,0.7l5.1,4.6l2.6,0.2l0.8,0.7l1.8,0.3l4.9-4.6l1.1,0.2l0.9-0.2l2,1.2l1.8,0.4l2.9,3.2l0.3,2.2l0.6,0.7l-0.8,1.1l-0.5,5.9
    l0.7,1.1l-0.4,2.6l-1.8,2.2l-1.2,0.1l-1.8,2.1l0.7,1l0.7,1.7l1.4,0.2l0.4,1.4l0.8,0.4l-0.2,4l-2.1,2l-2.4-0.1l-0.6-0.6l-2.5-0.1
    l-0.2,1.8l0.9,0.9l2.2,2.6l6.7,3.3l5.2,0.4l0.8,2l0.4,2.4l1.9,1.4l0.1,1.8l-1.3,2.2l-4,1.9l-3.1,0.2l-2.6,2.4l-0.3,1.7l-0.8,0.8
    l0.2,5.5l0.6,0.9l0.2,2.7h4.6l2.6-2.7l1.3-0.2l1.6-2l4.3-0.6l4.7-1.3l1.5-0.8l0.4-2.6l-0.8-1.6l-0.2-0.9l1-0.9l1.6-0.4l3.6-3.7
    l1.1-0.3l1.8-1.8l3.8-0.2l2.1,1.2l0.9,1.2l0.2,3.2l1.1,1.7l3.6,7l-1,2.7l-1,0.8l-1.9,0.4l-1.7,1.7l-0.1,2l-1.9,4.3l0.8,2.4l0.8,5.6
    l-1,2.1l-0.8,5.8l-0.9,3.2l0.9,2.2l0.2,2l-1.3,2.8l0.8,3l0.5,1.5l1.6,1.2l1.2,0.8l3,0.4l2-0.7l4.9-1l5.1-1.1l7.2-0.9l1.6-0.6
    l0.4-3.9l-0.4-3.9l-1.5-2l-0.3-1.3l-1.8-1.7l-0.9-3.1l-1.3-2.3l-0.6-1.2l-1.4-0.6l-1-0.8l0.2-1.8l0.9-1l-1-1l-0.1-1.5l-1.7-1.5
    l-1.2-3.2l-0.2-1.7l1.1-1.2l1.2,0.1l1.2,0.2l1-1.2l-0.3-0.9l0.1-2.1l1.1-1.9l1.9-0.2l1.9-1.5l-0.1-4.9l-1.7-1.3l-1.3-0.9l-2.8-0.4
    l-2.5-2.7l-2.4-0.4l-3.7-3.7l-2.5-0.3l-0.7-1l-1-2.8l0.8-4.1l1.8-1.8l1-3.8l0.5-1.3l0.9-0.1l4.7-5.2l1-2l-0.9-0.9l-0.1-1l0.9-0.8
    l1.1-0.2l0.7,0.9l2.9,0.1l1.7-1.9l0.8-1.7l2.8-2.8l1.1-3.5l1.1,0.1l1.8,1.8l0.2,1.3l3.9,3.6l6.2,0.2l2-1.8l-0.2-5.8l-0.8-0.6
    l-0.1-1.2l-1.7-1.7L979,826l-0.6-2l-1.4-0.9l-2.3-2l-5-2.2l-0.9-2.8l-1-3l-0.7-6.7l-2.7-0.5l-0.8-1.1l-0.1-1.8l1-0.7l1.3-0.1
    l2.7-3.2l1.9,0.2l-0.2,1.7l-0.9,1.2l1.9,1l0.4,2l1.8,1.9l-0.1,1.8l-0.6,0.5l-0.2,3.3l2.2,0.8l1.8-1.5l3.9,0.1l0.7,0.7l2.4,0.3
    l1.5,1.8l1.4,0.4l1.2,0.8l1.8,2.1l1-0.9l-0.7-1.2l0.8-1.7l1.9-0.1l1.2,2l-0.3,9.8l-1.7,2.1l0.1,2.3l2.6,2.6l0.9,2l0.4,2.5l0.9,0.6
    l-1.1,0.8l0.2,7.4l0.8,0.7l0.3,2.4l1.9,1.8l0.1,1.2l0.8,0.7l-1,0.7l-1.7,0.2l-0.5,4.8l-1.7,1.8l0.1,1.5l1.7,1.6l4.2,0.2l1.1,1.2
    l-0.2,1.8l-1,1l1.7,1.8l2.7-0.2l3,0.9l1.5,0.7l0.9,1.7l0.4,5.6l3,4.5l-0.2,3.7l-1.7,2l-2.6,0.1l-0.6,1l1,0.8l1.3,3.7l0.8,1.1
    l1.8,0.8l2.3,1.1L1019.5,899.1L1019.5,899.1z M961.3,815.9l-0.9,0.2l-0.7-1.1l-0.1-1.3l-1.3-0.6l-3,3l-1.8,0.1l-1-1v-1.1l1.8-1.4
    l0.3-1.6l1.9-2.3l-1-1.2l-1.9-0.8l-1-0.8l-0.4-1l-1.6-1.1l-0.3-1.3l-2.8-2.6l-0.2-2.4l-0.8-0.8l-1-0.6l-0.9,0.7l-1.4,0.1l-1.4,1.4
    l-0.3,2.5l-1.1,1l-2.1-0.1l-2.7,3l-2.5,0.2l-0.7,0.6l-0.9,0.1l-1.9,2.2l-1.1-0.9l-0.1-3.2l1.2-0.9l3.2-0.1l2.5-2.7l1.1-1.8l0.1-2.5
    l4.2-0.2l1.8-1.5l2.2-0.4l3.8-3.9l2.2-0.6l0.7,0.4l-3,2.8l0.2,1.9l3.8,3.2l0.3,1.9l3,0.3l0.7-1.3l-1.2-0.7l0.2-5.9l1.3-0.2l1.6,1.1
    l0.2,3.2l1.7,2.9l0.1,6.4l0.8,0.8l0.9,4L961.3,815.9L961.3,815.9z"/>
  <path class="st1" d="M1378.6,382l-0.1-2.9l1.9-1.8l-0.2-1l-2.4-0.2l-0.6,0.7h-1.6l-0.5-1.8l1.4-2.7v-1.7l-1.9-1.5l-4-2.2l-2.4,0.8
    l-2.3-2.4l-1.6-0.2l-2.9-3.1l0.1-2.1l1.1-2.1l1.6-1.2l0.2-4l-2.1-1.7l-1.1-0.9l-0.4-2.8l-2.5-0.2l-1-0.9l-0.1-1.1l2.1-1.1l2-1.6
    l3.6-0.3l0.2-5.9l0.9-0.3l0.1-1.5l3-0.3l-0.2-2.8l2.3-1.5l-0.5-1.5h-4.8l-1.1,1.1l-1.8,0.3l-1,1.6h-0.8l-2.9-1.7l-1.2-2.7l-0.4-3.5
    h-2.2l-0.7,0.9l-0.8,0.4l-0.1,1.4l-1.2,1.2h-0.6l-1.2-1.3l-0.3-2.1l-0.3-1.7l0.9-1.3l-1.1-0.8l-2.2,2.1l-1.7,0.2l-0.6,0.7l-7.2,0.2
    l-0.8,0.8l-3.2,0.2l-0.5,0.8l-1.3,0.2l-1.4,2.8l-1.6,1.3l-3.2,0.1l-1.1,0.8l-2.1-2h-3.2l-1.8-2.2l-1-1l-0.5-2.1l-3.3,0.2l-0.6,0.7
    l-3.3,0.2l-2.2,2.9l-2,2.2l-1.6-2l-2.5-0.2l-2-2l0.2-0.8l0.7-0.6l0.4-3.7l-1.2-1.2l-0.9-1.7l-1.5-2.9l-1.6-1.8l-0.2-2.5l-1.7-1.7
    l-0.5-2.6l-0.6-0.5V300l3.5-0.6l4.4-4.4l0.3-6.1l0.7-0.9v-4.4l-0.8-0.8l-0.6-1.5l-2-1.9l-1-0.8l-1.9-1.2l-1.4-1.5l0.7-0.9v-1.3
    l-1.7-1.7l-6.2-0.2l-3-1.9h-1.1l-0.6,0.6l-0.5,2.9l-0.7,0.6v5.8l0.5,0.9l-0.6,0.5v0.9l0.9,1l0.7,1.8l1.3,2l0.1,2.8l-1.9,2l-1.2-0.1
    l-2.9-2.7h-2.1l-2.8,2.8l-0.4,1l-0.7,2.1l-1,1l-1.5,0.6l-0.3,0.4l-1.2,0.1l-0.9-2.2l-0.7-1.7h-1.5l-2.8,2.8l-0.1,1l1.8,2l1.1,0.4
    l1.9,1.4l0.4,2.3l-2.1,1.8v0.5l0.6,0.6h2.2l0.9-1.1l1.2-0.6l0.8-0.1l1.2,0.8l-0.2,1.1l-0.8,0.8l-0.3,1.1l-0.6,0.8l-1,2.4v6.9
    l0.6,0.8l1.2,0.2l-0.2,1.8l-1.9,2.1l-0.8,1.1l-0.2,4l-0.8,0.8l-0.1,1.1l-0.8,0.9v0.7l0.8,0.5l0.6,1.6l0.4,0.2v2.2l-2,1.7v4l-0.9,1
    v1.1l0.8,0.9l1,1l0.1,1.3l-1.5,0.9l-0.8,2l1.3,0.8l2.1-0.7l0.9-0.3l0.4,1l-1.2,0.9l-0.1,1.1l1.7,1.8l1.2,0.4l-0.1,2.5l-1.1,0.3
    l-0.6-0.2l-4.1,0.8v1.2l1.1,0.9l0.8,0.3l1,0.8l2.1,0.4l1,0.7l-0.9,0.9l-0.2,1.2l-7.9-0.4l-1.9-1.1l-1.7,0.8l-1.4,1.5l-2.1,0.1
    l-1.5-1.5l-0.3-0.7l-0.9-0.4l-3.3-0.6l-1-0.7v-2.2l1.9-1.8l0.5-2.1l0.9-0.8l2.5-0.9l2.3-1.3l1,0.6l1.1-0.6v-1.7l-1.9-0.4l-1.2-0.9
    v-9.1l-0.9-1l-0.6-1.6l-1.4-1.7l-1.2-1.9l-0.5-1.4l-1-1.7l-0.6-3.8l1.7-0.8l0.4-1.1l-0.9-1l-0.7-2.1l-0.9-0.5l-1.3-0.7l-1.2,0.4
    l-1.4,0.4l-2,2.1l-0.7,1.3l-0.3,0.6l-2.4,2.4l-0.2,2.8l-0.7,1.2l-0.2,8l-0.9,0.9l-3.1,0.2l-0.9-0.3l-1-0.5l-2-0.5l-1.5,1.1l0.5,1.1
    l3.7,3.9l3.7,0.1l0.4,0.4l-0.1,1.6l-0.8,1l-6.1-0.2l-0.9-0.6l-3.1-0.1l-1.1,0.7l-1.9,1.1h-1.9l-1-1.4l-1.1-0.6l-1.7-0.4l-0.3-1.5
    l1.3-0.2l0.6-0.9l0.9,0.9l1.3,0.1l1.3-1.3l0.8-0.4l1.3-1.7l0.8-2.4l0.6-0.6v-6.3l1.7-1l-0.5-0.8l-0.4-2l-4.1-3.9l-1.4-0.7l-1.2-0.8
    l-0.6-0.3l-3.4-3.6l2.9-2.8l2.3-1.1l3.8-0.1l0.9,0.8l2.1,1l2.4-1l0.7-0.8l0.7-0.6l2.9-2.8l0.7-1.5l0.6-0.7l0.1-8.5l-1.7-1.6
    l-5.2-0.2l-1.9-2.1l0.3-1l1.2-0.5l1.4-1.4l0.9-1.1l-1-1l0.9-1l-0.7-0.9l-0.5-1.6l-0.9-1.9l-3.3-3.4l0.6-1l0.2-2.2l2.8-2.8l0.3-5.1
    l0.7-0.9l1.1-2.7l-0.7-1.6l-0.9-2.3l-1.4-0.9v-3.6l4.9,0.2l0.8,0.6l3,0.3l3.9,3.7l1.1,0.3l1,0.9l2.9-2.9l3.2-0.7l-0.1-3.7l-0.7-0.7
    l0.6-0.9l-0.7-1l-0.9-1.4l-0.7-1.3l-1.3-0.6v-3l0.9-0.9l-0.9-0.9l-0.7-1.5l-1.9-1.9l-0.3-0.7l-0.8-2.7l-0.6-0.8l1-1.3l0.2-1.1
    l0.9-0.8l-0.7-1.3l-0.8-0.9l-0.6-0.9l-0.1-2.6l-0.7-0.6l-2-1.8l-0.3-3.3l0.5-1.6l-1-3.2l-1.1-1.9l-1.9,1.8l-0.6,1.9l0.4,2.1
    l-1.8,1.9l-0.5,1.2l0.3,1l-0.9,0.9l-2.2,1v1l1.8,2l0.9,3.1l0.6,1l-0.2,4l-0.7,0.9l-0.7,3l-0.6,0.9v1.1l-0.8,0.9v0.9l-1.9,0.9
    l-2.3,2.3l-0.1,0.9l0.9,1l0.3,6.1l-2,2l-3.1-2.8l-1,0.7l-0.1,1.2l-0.8,0.9l-2.1,0.1l-0.9-0.8l-0.7-3.1l-1.4-1l-2.8,2.7l-1.3,3.1
    l-3.8,0.8l-1.7,0.9l-1.5,1.5l-1-0.1l-0.2-1.2l0.5-0.8l0.7-0.9V265l-0.9-0.9l-0.2-4.3l0.5-0.9l1.1-1.5l1.3-1.2l1-2.3l0.2-4.8l1-0.9
    l0.3-2l0.7-1.3l-0.5-0.9l0.4-1l0.3-1.1l1.9,0.1l0.7,0.9h0.7l0.5-0.7l0.1-0.7l-1.1-0.5l1-0.6v-1.5l1-0.7v-1.4l-1.7-1.8h-2.3
    l-0.8,0.7l-0.9,0.9l-1.2,1.2l1,1v1.8l-0.8,1l-0.6,0.3l-1.4-0.4l-1-0.7h-3.2l-0.8,0.8l-2.1,0.2l-1.7-1.6l-1.2-2.5l-0.2-7.1l0.5-0.9
    l0.9-1.9l0.7-1.1l-0.8-1l-0.7-1.4l-1.4-0.6l-0.7-1.8l-1.1-2l-1.2-0.9l-2.2,1.7v4l1.1,1.1l-2,2h-3.4l-1.3-0.7l-1.2-0.5l-1.8,0.9
    l-1.5,1.2l-1.8,0.9l-0.7,2.1l-0.3,3.1l-0.9,0.8l-0.2,1.3l-1.5,1.5l-0.6,0.2l-0.3,0.5l-1.4,0.4v1.3l-4.9,0.6l-0.5,0.4l-1.8,0.2
    l-1.8,1.6l-0.2,1l-1.1,1l-0.5,1.1l-4.1,3.9l-0.5,2.1l-0.6,0.9v2.3l-1,0.9l-0.4,1l0.4,0.9l-0.1,2.4l-0.9,0.7l-0.5,1.1l-2.7,0.3
    l-0.8-0.3l-0.3,0.7l0.9,1.3l0.3,0.2l0.5,4.9l2.4,2l0.1,1.2l-0.8,0.6l-0.3,2.4l-0.8,0.7l-0.2,4.2l-1.7,0.6l-0.3,0.5l-1.2,0.1l-1,0.5
    l-0.4,1.1l-1.2,1l-1.1,0.1l-0.9-0.8l-0.6-5l-3.7-0.1l-0.6,0.9l-2.5,0.2l-0.6,0.7l-0.7-0.8l-2.3,0.9l-2.9-2.8l-0.8-2l-2.2-2h-1.5
    l-0.6,0.6l0.7,0.9l2.3,2.1l-0.4,0.5l-0.9,0.4l-0.6,0.9l-0.1,1.4l0.8,0.8l0.1,2.2l-0.7,0.6l-0.3,2.3l-0.9,0.9l0.5,1h0.3l0.3,1.7
    l0.7,0.5v0.8l-1.8,1.9l-0.5,1l-0.7,1.2l-1.3,0.1l-0.8,0.7l-0.7-0.6l-1.2-1.2l-0.2-4.1l-1.8-2.1l-1.9-1.7l-2.1-0.9l-0.9-1.1l-1-0.1
    l-0.5,0.8l-0.4,1.3l-0.2,2l-0.9,0.7l-0.2,0.9l-2.7,0.8l-1.5,1.2l-0.6,1.1l-3.1,2.9l-0.1,2.2l-5.9,5.7l-0.3,1.1l-1.7,0.8l-0.3,1.2
    l-0.9,0.9l0.7,1.2h0.4l1.7-2.1l2.1-0.1l2,2.1h4.7l0.5-0.9l0.9-0.1l3,2.9l0.1,1l-1.7,2l-0.4,0.4l-1.7,0.4l-0.3,0.5l-1.8,0.5
    l-2.2,2.6l0.1,1.6l4.9,9.4l0.6,2.7l0.5,0.3l0.2,6.6l1.5,1.1l1.2,0.1l1.8,2.2l0.8,1.3l1.4,1.4h1.5l0.6-0.8l0.9,0.9l3.9,1.8l0.2,0.7
    l0.3,1.7l-2,1.8l-0.3,1.1l-2.9,0.7l0.1,2.3l-1.1,0.9l-1.9,0.9l-3.5,1.7l-4,4l-4,2l-3.1,3l-2,1l-3,1.1l-1.9,0.9l-1.9,1.4l-0.7,2.1
    l-0.9,0.9l0.8,1l0.2,1l-1,0.9v3.9l0.8,0.7l0.5,2.1l0.5,0.4v1.7l-0.8,1.2v2.1l1.8,3.1l0.1,2.1l-0.4,0.8l-0.3,1l-1.4-0.1l-0.3-1.5
    l-2.4-4.6l-0.6-3.4l-1.3-1.8l-0.8-1.2l-3.1-3l-1.2-0.6l-0.9-1.2l-0.8-1.1l-1.5-0.7l-0.6-1.2l-0.9-4l-1.4-0.8l-1.2-0.8l-1-1v-5
    l3.6-0.5l1.6-2.5l1.4-0.6l1.2-2.4l0.1-5.3l-0.9-0.8l-0.7-1.9l0.4-0.7l0.2-2.6l-0.9-0.7l-0.4-4.5l-3.2-3.2l-0.4-0.7l-0.6-5.7
    l-1.7,0.1l-0.6,0.6l-0.1,1.3h-4l-1-0.4l-0.9-0.5h-2.3l-1.5,0.7l-0.4,1.4l-2.1,1.8l-6.1,0.1l-0.9-0.3l-1.2,0.4l-1.6,0.2l-0.8,1.8
    l-1.3,2l-1.1-0.9l-1-1.1l-0.6-3.1l-1.2-1.1l-1.1,0.4l-1.1-0.4l-0.9-0.7l-0.7-2.1l-1.2-0.4l-1.3,0.4l-2.6,2.7l-0.9,0.3l-3.3,0.1
    l-2.6,1.9h-2.8l-2.8,2.7l-0.9,0.1l-2.1-2.2l-0.9-2.1l0.1-1.7l2.8-3l2-0.5l-0.4-2.3l-1.1,0.1l-0.4,0.8l-3.2,0.1l-3.5-4.1l-2.7-1
    l-3.5,1.5l-3.6,0.7l-2.5,1.4l0.3,0.9l0.9,0.4l0.7,0.7l1.2,0.3l0.4,0.9l1.4,0.8l0.3,1.9l0.8,0.4l0.3,2l-1.2,0.9l-0.4,1.1l-1.4,1.8
    l-2.9,0.5l-2.2,2.7l-5.8,5.8l-2.3,0.3l-0.9-0.9l-1.5-2H983l-1,0.8l-4,0.2l-2.3,1.5l-1.3,1.8l-1.6,3.8l-2.7,2.3l-1.2,3.6l-1.2,3.1
    l-1,2.1l-2.1,6.8l-1,4.6l-0.2,0.7l-0.2,6.7l-0.6,0.3l-0.3,1.5l-3.6,7l-1.1,2.7v2l7.4,7.1l-2.7,0.1l-1.7-0.9h-1.2l-3.8-4.1
    l-34.8,39.4l21.2,19.8l-4.3-0.3L919.9,445H916l-17.6,20.5l1.1,0.5v1.1l-2-0.2l-4.7,5.6l-20.2,11.8l-2.2-0.2l-7.6-11.1l-3.8,0.1
    l-24.1,9l-0.4-0.1v-3l23.4-9.1l6.2,0.2l7.1,10h1.4l15.2-8.3l26.4-30.3l-8.5-8.1l-0.1-1.5l2.9-0.1l8,7.6l36.3-40.8l-9.3-8.6v-7.2
    l1.1-0.4l0.1-4.5l-1.1-0.6v-1.2l1.2-0.7l1.3-3.7l0.7-0.8l-0.9-1.6l-1.4-1.2l0.1-6.2l-0.7-0.9h-2.2l-8.8-8.6l-3.3-1.3l-5.7-4.9
    l-1.1-0.1l-2.2-2h-0.9l-2.2-2.2l-2.4-5.2l-0.6-0.7v-1.6l1-1.1l-0.1-0.8l-2.7-2.6l-0.3-0.9l-6.7-6.8l-8.1-4.2l-2.4,0.1l-0.7,0.6
    l-5.1,0.2l-0.8,0.8v1.1l0.6,1h1.3l0.1,2.1l-1,1l-1-0.8l-1.1-0.1l-0.8-0.8l-1,0.5l-0.8,1.9l-0.3,3.3l-0.5,0.8l0.5,1.2l-0.8,1.2
    l-1.3-1l-0.1-8.1l1.9-1.7l0.2-1.3l-0.9-0.8l-1.2-0.2l-1.3-1.2l-2-1.2l-1-0.9l-2.2-1l-1.9-1.1l-1-0.8l-2.2-1l-1.7-1.1l-2.8-0.9
    l-2.3-2.1l-0.6-1.1l0.4-0.9l1.2-0.9l1.9-0.2l0.9-0.5l-2.2-1.9l-0.9-0.1l-0.9,0.8L862,303l-0.5-0.4l0.1-3.8l-6.3-3l-0.9-0.7L853,295
    l-1.2,1v5.4l-0.2,0.4l-0.9,0.2l-1.4-2.2l-0.4-2.7v-3l-1.1-0.9l-4,0.1l-0.9,1l-1.1-1.3l0.8-0.9l3-0.5l0.9-0.6l5.9,0.1l2.8,1.4l1.8,1
    l1.4,0.6l1,0.8l6,0.1l4.2-3.8V289l1.9-0.6l0.8,0.2l3.1-0.4l1.8,0.7l9,0.2l1.4,1l1.3,0.1l1.4,0.8l2.3,0.3l1.3,0.9l2-0.1l1.2-1.2
    l0.4-0.8l2.1-0.9l3.8-0.8l1.1-1.3l1.1-1.4l1-0.8l0.1-3.3l1-1.4l-0.1-4.1l0.9-0.8l1.9-0.7l0.9-1.1l0.2-1.4l1.2-0.8l1.7-0.9l2.8-0.5
    l0.4-0.7l0.7,0.1l1,0.9l0.8,2l2.8,0.2l1.4,1.8l1,2.2l1.2,0.9l3.8,0.1l0.9,0.8l1.6,0.2l0.8-1h7.7l2.4,2.1l0.5,1.7l0.2,1.3l-2.7,2.7
    l-0.2,2.1l-2.9,3l-0.1,1l-0.6,1.1l-2.3,1.9l0.9,1h1.3l0.8,1l1.4,0.1l1,0.8l2.8,0.1l0.7-0.8l1.9-0.2l1,1.2l1.1,0.1l0.7,3l0.6,0.1
    l2.4-0.8l0.4-0.7l-2.1-1.6l-0.1-1.2l2.2-2h1.8l0.8,0.8l1.8,0.1l1.2,0.1l2.2-0.6v-0.7l-1.8-1.8l-1.9-1.8l-2.3-0.2l-1.7-0.8l-5.3-0.4
    l-0.8-1.2l-0.1-3.5l0.7-1.4l0.3-0.7l0.9-0.8l-0.1-0.9l-0.9-0.5l-1.4-1.2l-2.2-2.5l-0.8-1.7l-4.7-0.7l-3-1.1l-2.7-1.8l-2.2-2.7
    l-0.6-1l0.5-1l-0.8-1.2l0.6-0.6l2.3-2.3l-0.1-4.2l-0.6-0.8V256l1.5-1.8l0.4-3.1l0.8-1.1l-0.1-2.1l1.1-1.4l0.1-0.8l8-8.1l0.2-0.8
    l2.4-0.1l2.1,2l0.1,0.8l1.9,2.3l0.1,1.8l4.1,4l1.2,0.4l0.7,0.8l3.1-0.1l3.1-2.8l2.6-0.1l3-2.8l0.2-1.1l1.2-0.9l1.2-0.4l0.5-0.9
    l1,0.1l0.7,1h6.8l0.4-0.8l1.4-0.1l0.6-0.9l2.2-0.2v1.3l0.8,0.9l0.2,0.9l0.9,0.9l1,1l0.1,0.8l1,1v1l-0.2,0.5l-1.6-0.1l-1.1,0.6
    l0.6,0.9l2.4,0.3l0.9,1.2l1.1,0.8l1.9,0.1l29.2,31.1l-0.1,0.9l-2,1.7l-0.2,4.9l-0.8,1l-0.1,1.4l0.4,1.3l0.8,0.3l0.6-0.8l0.8-0.5
    l0.3-2.4l1.9-1.9l0.8-0.1l2.3-2l2-0.1l1.1-0.8l3-0.2l0.8-0.4l1.4,0.5h0.6l0.5,0.9l1.1-0.1l0.3-0.5l3.5-0.4l1.8-1.3l1.3-2.1l1-0.5
    l2.9-0.3l1.1-0.9l1.3-2.3l0.4-2.4l0.6-0.7l0.3-2.4l0.8-0.7l0.4-1.7l1-1.7l0.9-1.6l0.7-0.8l1.9-1.9l2.2-0.9l1.1-1.5l1.6-0.3l1.2-1.6
    l1.4-0.4l1.2-1.8l0.6-0.9l1.7-0.5l4.4-0.9l2.7-2.3l3.1-1.6l3.2-1.3l-0.1-1.4l-0.7-0.6l-0.8,0.2l-1.2,1.4l-3,1.4l-0.9,0.4l-3.7,0.6
    l-1.6,1.9l-1.7,1l-1.2-0.2l-0.7-1.8l-0.5-0.5v-0.6l1.1-0.8l-1.9-2.2l-0.2-1l0.5-1l2.7-0.3l1.8-1.7l0.9-0.1l0.3,0.2l0.4,3.3l1,0.6
    l1.3-0.8l1.7-0.3l2.2-1.8l0.3-2.3l2.1-1.8l2.3-0.9l1.6-0.4h4l0.9,1l7.4-0.1l2.8-1.8l2-0.9l2.2-1.1l1.9-0.4l2.2-1.6l1.1-0.1l0.6-0.9
    l2.9-0.1l2-1.9l1.8-0.1l0.9,0.9l0.9-0.2l0.1-0.9l-0.8-0.6l0.8-0.9l4.5-0.3l1.8-0.8l2.1-2.1l0.9-0.9l1-0.9l0.1-2.2l2.1-2.1l4.9-0.1
    l1.1-0.6l6.2-0.4l2.3-1l1.8-2l1.8-0.6l2-1.2l0.9-0.9l1.8-0.6l1.2-1.5l1.8-1.1l1.9-0.5l1.1-1.5l0.3-0.9l0.8-0.9l0.8-0.7l-0.5-1
    l-1.3-0.1l-0.7,0.8l-3.8,0.2l-0.6-0.2V204l2.2-2.1l1.7-0.1l2.2-1.7l-0.2-2.2l1.1-1.3l1.8,0.2l1.1,1l0.9,0.1l0.2-1.8l1.2-1.4
    l0.9-0.9l2.3-0.8h0.4l0.4,3l-1.9,1.8l-0.1,1.2l0.4,0.8l0.6,0.2l2-2.2l1.7-0.6l1.5-0.3l1.6-1.7l0.1-1.2l3.8-3.9l1.8-0.2l0.9-0.9
    l1.3-0.5v-0.9l-0.9-0.5l0.9-1l0.3-1l0.9-1.2l0.4-1.7l1.3-0.9l1.1-0.5l1.9-1.4l0.1-1.1l0.9-1.1l1.6-0.6l2.2-2.2l0.4-1.2l0.8-1.3
    l1-1.1l0.1-1.7l2-2l3.5-0.2l2.4-2.7l0.4-1l1.6-2.1l1.6-0.5l0.5-0.5l2.7-0.4l2-2.5l2.1-0.2l3.8-3.6l0.3-1.2l0.7-1.2l1.7-0.2l1.6-1.6
    l-0.9-1.2l-0.8-1.8l-1.1-2.3l-3.1-2.7h-1.3l-2.1,2.3l-1.8,1.2l-1.9,0.4l-2.2,2.1l-2.1,2.5l-2.1,1l-1,0.8l-1.1,2.1l-1.6,0.7
    l-0.9,0.8l-7,0.1l-3.2,2.9l-1.9,0.7l-0.9,1.3l-1.2,1l-1.6-0.1l-0.6-0.4l-3.6-0.7l-2.1,0.3l-0.8,1l-0.9-1h-1.3l-2,1.8l-0.7,0.1
    l-1.1,1l-5.2,0.1l-1,0.9l-1,0.2l-1.9,1.7l-5,0.3l-3.5,3.2l-2.3,2.6l0.8,1.7l0.9,1.4l-1.4,1.4l-0.5,0.7l-1.5-2.7l-1.1-1.9l-1.2-1.9
    l-1.2-1.8l-1.9-1.6h-1.5l-1.6,0.7l-1.2-0.9v-1.1l1-1l-0.9-0.9l-1.5,0.3l-0.7,2.7l-0.9,1h-0.9l-1.5-1.6l-1-0.3l-0.7-1.4l0.2-1.9
    l1.2-0.9l0.7-1.4l-3.2-0.8l-1.2-0.6l-0.7,1.9l-1.1,1l-0.9-0.1l-2-2v-0.9l1.7-1.7l1.1-1.9l0.2-2.9l-1.9-0.7l0.2,1.1l-0.5,1.3
    l-1.7,0.8l-1.2-0.9l-0.1-3.5l-0.8-0.6l-1-1.1l-1.2,2l0.4,0.7v2.5l-1.2,0.9v1.3l2.1,0.8l1,0.8l-0.1,3.8l-0.6,0.9l-1.4,0.6l-0.4-2.7
    l-1-1l-1.6-0.4l-0.7-1.2l-1.2-0.9h-2l-1.4,0.5l-0.7,2l-1.2-0.5l0.3-3.9l2.5-2.6l0.4-1.4l0.4-0.9l-1.6-1l-0.8,1.9l-0.8,0.3l-2.1-0.3
    l-1,0.2l-1.5,0.9l-1.6-0.1l-1.6-1.5l-1.8-0.8l-0.9-0.6l-0.8,1l-1.1-1.1l1.6-2.1h3.6l0.9,1h1.4l1.7-1.9l-1.4-1.6l-1.8-0.8l-0.7,1.4
    l-7.7,0.5l-2.9,0.8l-0.8,2.6h-2.6l-2.6-2l-0.6,3.7l-1,1.4l-4-0.1l-0.8-0.9h-1.3l-3.3,3.5l-0.2,1.4l-1.1,0.4l-0.5-1.3l1.2-0.8
    l0.3-3.3l1.3-1.3l0.5-0.9l-0.8-0.8l1.2-0.9l2.6,0.1l0.3,0.5l1.1,0.3l0.6-1l-0.7-0.9l-0.1-2.8l1.4-0.3l0.3-1l-1-0.8v-1l0.9-1.1
    l-1-0.4l-0.8,0.4l-1-0.8l-1.8,1.9h-0.6l-0.4-0.9l0.2-5l1.7-2.3l-1.8-1.9v-1.8l1.2-0.4l0.6-0.7h3.2l2.3,2.5l3.6,0.6l0.2,3.3l0.9,0.4
    l0.7,1.3l0.1,0.9l0.8,0.6h1.6l0.6-0.5v-3.3l1.6-1.3l0.3-0.8l-0.9-0.9l0.2-4l2.1-1.9l3-0.1l0.7-0.9l-0.1-0.9l-1.7-0.9l-1.2-1.1v-1.2
    l4.6-0.6l2.1-1.8l1.7-0.9l3.3-3.1l0.9-2.1l0.9-1.7l0.4-1.1l-3.2-0.7l-1,3.2l-1.7,1.9l-1-0.1l-2.2-2.1l-1.1,2.1l-1,0.1l-2.4,2.6
    l-0.6,1.9l-0.4,0.4h-1.5l-1-1.5l-3-0.8l-2.1-1.7l1.3-1.1l1.3-0.1l0.7-0.8l0.1-2.1l2.7-2.9l0.4-2l1.9-2l1.8-0.7l0.4-1.4l-1.3-0.7h-2
    l-1.1,1l-3.2,0.1l-0.8,0.8l-4.1,0.1l-0.5-0.6l-0.4,0.4l0.4,1.6l0.8,0.4l0.1,1.1l-0.7,0.7l-3.1,0.8l-0.8,1.2l-0.8,1.4h-0.9l-1.1-0.4
    l-1-0.4l-1.2,0.7l-2.6-0.2l-4.6-1.3l-1.2-0.4l-0.3-1.2l-1.3-1.6l-0.5,0.7l-1.8,0.6l-0.6,1.7l-0.9,0.9l-1.4,0.2l-0.8,0.7l-1.9-0.2
    l-1-0.6l-1.1,1.9h-1.9l-0.8-1.2l-0.3-1.6l-0.8-1.2l0.2-2.3l1.7-1.7l0.1-2.2l0.7-0.5v-1.6l-0.7-0.9l2.5-2.5l0.5-3.3l1.1-0.8l0.9-0.4
    l0.8-0.7l3-0.1l1.1-0.8l1.1-0.3l2.1-1.9v-2.2l-2.3-1.8l-1-1l-4.2,0.5l-2,1l-1.2,1.2l-0.2,3.3l-1.5,0.3l-0.5,1l-1.4-0.2l-0.8-0.9
    v-4.1l1.5-1.5l0.6-3.3l1.5-0.9l0.4-1.3l0.8-1.2l-0.7-0.9l-0.3-2.3l-4.2-0.5l-0.7,0.8l-2.3,2.1h-1.9l-3,3.2l-2.9,0.1l-0.9-1.6v-3.9
    l2.6-2.5l1.2-0.6l1.1-0.4V66l-2.1-2v-0.9l1-0.4v-0.9l-1.3-1.4l-2.7-0.6l0.3-1.7l1.6-0.7l0.8-2l1.8-1.2l2.1-0.4l1.6-1.5v-0.8l-1-0.2
    l-0.8,0.8h-1.2l-2-1.2l-0.2-2.1l-1.7-1.7h-1.2l-1.8,2.2l-0.2,4.9l-1.9,1.8l0.3,2.5l0.7,0.6l-1.2,0.2l-0.7,0.9l-1.1-0.2l-1.9-0.8
    l-0.8-1.4l-0.3-0.7l1-1.8l1-1.5l0.9-0.5v-0.7l-3-0.6l-1.1-0.9h-0.8l-2,1.8v1.3l2.1,1.8v1.1l-1.2,1.1l-5.7-0.2l-4.2-4v-4l1.2-0.4
    l0.8-0.4v-0.6l-1.8-0.7l-0.7-0.7l-0.6-0.1l-1,0.8l-0.9-1l-0.9,1.2l0.1,2.5l0.4,0.6l0.6,0.9l0.1,1.7l-0.5,0.6l-2,1.7l-1.2-0.1
    l-0.4-0.5l-0.1-5.8l-1.1-0.6l-1.8,1.7l-0.5,0.7l-1,2.9l-0.8,2.3v2.2l0.5,1l-0.1,1.1l-0.8,1.5l-2.9,2.9l-0.7,1.3l-1.2,3.1l-0.9,5.6
    l-1.3,4l-0.3,1.2l-0.7,0.6l-8,8.1l-2.3,1.4l-2.1,0.1l-1.7-0.9l-2.1-2.2l-1-1.1l-1.3-0.8l-0.9,1.1l-0.4,7.4l-1.5,1.4l-5.5,0.6
    l-1.7,1.5l-1.6,1l-1.4-0.4l-3.8-3.6l-1.2-0.1l-0.7,1.2l0.9,1l0.4,2.5l-0.9,0.4l-0.7-0.4l-0.6-0.9l-0.5,0.5l-1.1,1.2l-0.8,3.8
    l-0.6,1.7l-2.3,1.1l-3,1.2l-1.7,0.5l-1.1,0.8l-1.2-1.2v-0.9l0.8-1.4l0.3-1.4l1.1-0.8l-0.3-0.7l-0.9-0.4l-1,0.8l-1.2,1.7l-0.9,0.4
    H939l-1.2-1.1l-0.4,0.6l-0.6,3.6l-1.2,0.5l-1.2,0.6l-0.9-0.7l-0.5-0.6l0.7-0.6l-0.2-0.7l-1-1.9l-0.7-1.2v-1.8l0.7-1l1-2l0.6-1.1
    l-0.7-0.9l-1.5-2.5l1-1.8l0.6-0.6l1.4-1.6l0.1-0.7l-0.7-0.8l-0.9-1.1l-0.6-1.4l0.6-0.9l-0.7-1.1l0.3-1l1.3-2.2l1-1.4l0.8-1.5
    l0.7,0.3l1.1,0.8l2,1.8l2.1,0.1l1.3-1.3l1.7-0.8l1.1-0.7l1.3-0.8l1.2-1.5l0.4-7.9l2.1-1.8l1-1.1l1-1.2l1.8-1l1.4-0.6l0.8-1.6
    l-0.4-0.8l-0.9-1v-0.5l0.4-0.4l2,0.1l0.7,0.4l1,1.4h2.3l0.7-0.9l4.3-0.1l1-0.7h1.3l0.4,1l0.9,1.1l1.3,0.7l0.6-0.8v-2l-0.4-0.6
    l-0.6-1.2l0.4-1.3l1.2-1.7l1.1-1.9l0.9-1l0.4-0.8l-0.7-0.8l-0.7-0.4l-6.6-6.5l-3.9-0.1l-1.6-1.5l-1-1.7l-0.9-1.3l-4-4l-1.3-1.8
    l-1.2-0.6h-1.1l-0.9,0.9h-7.4l-1-0.6l-2.3-0.5l-1.3-0.8l-7.1-0.2l-1.3-0.5l-4.5-2.3h-2.3l-1.1,1.1l-1.9,0.7l-2.6,0.1l-0.8-0.5
    l-3.3-3.5h-1.1l-0.6,0.5l-2.7,0.8l-5.2,1.2l-1,0.9l-1,1.6l-8.6,0.2l-2,0.8l-1,1l-2.5-0.6l-1.7-0.6l-0.8-0.8l-1,0.9h-3l-0.3-0.3
    l-2.5-0.9l-1-0.6h-3.8l-1.9,1.3l-1.5,1.3l-0.6-0.4l-3.3-0.5l-0.4-0.4l-1.6-0.8l-1.6-1.2l-0.6-2.7l-0.6-0.9l-0.3-3.9l-0.4-0.6
    l-3.3-3.4l-1.4,0.1l-1.1,2.4l-0.7,0.4l-7.7-0.1l-0.8-0.4l-0.9-1.1l-1.8-0.7l-2.9-2.7l-2,0.1l-0.7,0.8l-2.9,0.4l-1.4,1.6l-1.4,1.7
    l-1.8,0.6l-2.1-0.7l-1-2l-2.7-3l-1-0.3l-2.4,1.3l-1.9,1.9l-1.7,1.4l-1.4,1.6l-0.9,2.9l-0.9,4.1l-0.7,3.7l-1.3,1l-1.7,0.6l-1.9-0.8
    l-1.4-0.8h-3.9l-0.8,0.6l-0.2,7.5l-1.1,0.8l-0.9,1.7l-0.4,0.7l-1.4,1.6l0.1,4.2l0.6,0.6h0.6l0.6-2.7l0.4-0.2h1.7l0.9,1.2v2.8
    l-0.3,0.3l-0.6,1.1l-0.9,0.6l-1,0.8l-1.4,0.4l-1.8,1.8l-1.2,0.6l-0.6,1.3l-0.9,0.7l-0.1,0.5l0.4,0.2L798,60v1.2l-1.5,1.4l-1.4,0.8
    l-1.2,0.5l-2.1,0.2l-1.1,1h-4.2l-1.5-1l-2.1-1.1l-2.9-2.1l-1.5-1.7l-4-1.6l-1.7,0.1l-5.1,1.2l-2.5,1l-2.2,3l-2.3,1h-6l-5.1,5.1
    l-2.9-0.2l-2.1-1.9l-1.3,1.5l-1.7,1.1l-2.5,1l-2.8,0.8l-0.8,0.9l0.8,1.2l1.7,3.1l-0.8,1l-2.8,1.2l-1.7,2.7l-3,0.4l-0.7-0.5
    l-4.3-0.5l-1.5,0.8l-0.4,6.3l-0.5,0.4l-2.9,3.1l-2.2,0.9l-2.7,1.5l-1.7-0.3l-2.8-1.2l-1.7-1l-1.6-2.8v-8.8l-0.8-0.5h-1.3l-0.5,0.4
    l-1,1.9l-3.4,0.5l-0.8,0.9l-1.8,1.4l-0.5,3.5l-2.8,3.2l-2.1-0.1l-2.2-2.1V87l1.2-1v-3.1l-0.6-0.8h-2.6l-0.8,0.4l-6.3,0.9l-0.8,0.6
    h-0.7l-0.6-0.6l-3.6-1.8l-4.5-4.3l-4.5-0.5l-2,0.2l-2.5,1.5l-1,0.8l-2,4.1l-2.1,2.1l-2.1,1l-3.8,1l-2.6,0.9l-2.5,1.2l-1.5,1.2
    l-2.9,0.2l-0.7,0.8l-0.1,2.1l0.4,0.4l1,2.1l3.3,3.2l2.9,1.9l1.3,0.4l5.2,4.3l-0.1,3.6l-3.6,6.6l-1.3,1.9l-0.8,1.1l-0.8,1.5
    l-0.8,0.6l-0.8,0.9l-0.8,0.7l-2.9,2.8l-1.3,0.3l-1.7,1.8l-1.8,0.8L636,130l-1.1-0.3l-0.7,0.3l-0.9-0.7l-2.2-0.3l-2-2l-0.9-0.3
    l-3-2.7l-1.3-0.3l-0.8-0.7l-8-0.1l-5.2,1.7l-8.3,3.7l-2.1,2.2l-2,0.9l-4.7,4.9l-2.1,4.3l-1.5,5.1l0.7,4.1l-0.8,3.9l-4.8,5.2l-4.4,2
    l-4,0.6l-5.8,1.2l-4.7-1.3l-1.9-1l-1.3-1.3l-5.6-0.8l-1.8-1.1l-2.5-0.1l-3.9,3.5l-2.5,0.4l-1.5-0.8l-1.2,0.6l-0.1,1.1l-2,2.1
    l-1.8,0.4l-1.8,2.1l-3,2.8l-2.5,1.5l0.9,1.1l0.1,1l-1.6,1.8l-3,0.7l-0.6,3l-2.5,2.5l-1.6,0.6l-1.5,1.1l-0.1,0.9l0.9,0.7l0.1,6.9
    l-2,1.6l-0.1,0.6l0.8,0.6l0.3,5l0.8,1.2v0.8l-1.1,1.3l0.1,3.5l2.2,2.1l5,2.3l1.5,1.5l2.3,1.1v1.2l-7,0.2l-1,1v3.3l1.7,4.3l0.7,6.2
    l1.5,3.2l0.9,0.8h1.1l0.6-0.9h1.2l0.3,1.2l-1.3,0.2l-2.8,2.4l-1.5,0.8l-1.2,2.5l-1.1,2.2l-1.5-0.4l0.9-1.9l1.1-4.4v-3l-1.2-4.8
    l-2-6.2l-1.1-2.2l-2.1-2.1h-0.7l-1.2,1.5l-0.4,1.2l-2.1,0.1l-1.7-1.7l-2-0.5l-3.6,0.6l-5.6,0.9l-2.9,1.3l-1.6,0.7l-4.1,4.2
    l-0.5,1.7l-1.4,1.2l-0.8,1.7l-2.3,2.3l-2,0.8l-2.8-1.3l-0.7-0.9h-0.9l-2.4,1.4l-2.5,2.5l-1.8,0.6l-1.1,1.6l-1.3-1l-1.3-0.7l-1-0.4
    l-9.5-0.1l-4.7,2.6l-2.9,3.2l-1.8,2.6l-3,6.1l-2,4.9l-1.2,3.2l-1,5.2l-0.1,5.9l1.3,4.2l3.7,7.3l1.3,3.2l0.6,1.9l-1.6,1l-1.3-2.7
    l-2.9-5.8l-2-3.2l-0.9-3l-0.6-0.7l-0.1-11.4l1.8-4l2-4.9l1.8-5.1l2.4-4l1.2-2.1l1.5-1.8l3.1-3.2l3.9-1.7l3.2-0.8h12.9l4-2.9l3-6
    l0.3-5.1l1-7.8l0.1-7.4l1-0.9l2-1.5l-0.6-1.1l-3.7,0.1l-2.5,1.8l-1.7-0.1l-3.4-2.1l-1.8-1.6l-4-0.1l-0.8-1.8l-3.6-0.5l-2.6-1.5
    h-0.5l-0.8,0.9l-3.9-0.1l-0.9-0.9h-2.5L453,193v1l0.7,0.9l0.3,1.3l-2.2,1.3l-3.8,3.7l-1.6,0.4l-0.9,4.9l-2.8,9.1l-1.3,5.2l-3.7,3.7
    l-3.1,1.3l-2.3,2.1l-1,2l-3.3,2.7l-3.4,1.3l-3,2.7l-0.8,3.7l-5.2,5.4l-0.9,1.9l-1.4,1.4l-0.8,1.5l-0.5,1l0.1,1l0.6,0.5l3.2-0.1
    l1.7,2.1l0.3,1.3l-1.2,0.3L415,257l-1.1-0.6l-1.9,0.8l-0.9-0.7l-1.4,0.7l-0.9,3.2l-0.9,3l-2.6,4.6l-0.3,1.3l-1.2,1.1l-5.6,4.9
    l-1.6,0.4l-3.9,3.9l-6,1.3l-6.5,1.7l-2.5,2.2l-2.7,0.6l-1,0.7l0.1,2l1.4,0.9l-1.7,0.5l-2.6-3.1l-1.2,0.2l-0.3,0.6l-3.5,2.7
    l-1.8,0.9l-0.4,0.6l-2.1-0.1l-2.7-1.5l-0.5-0.5h-2.8l-1.8,1.8l-0.8,1.8l-0.7,3.8l-1.1,1.8l-0.2,10.5l-0.8,1l-0.4,1.3l-3.3,1.4
    l-3.2,1.1l-1.9,2.1l-0.8,1.4l-2.5,1.5l-0.9,0.8l-0.8,1.8l-1.6,0.9l-1.1,0.5l0.1,4.6l0.9,0.8l0.1,3.7l-0.9,1.3l-0.7,1.4l-0.2,3.6
    l-0.7,0.5l-0.1,1.5l-0.7,0.3l-1.1,1.1l-0.8,1.8l-2,1l-1.9,1.3l-1.4,0.9l-0.2,0.6l-1.8,0.3l-0.9,1l-1.8,1.1l-2.7,1.1l-2.1,1.7
    l-0.3,0.7l2.4,1.8l0.4,8.6l-0.6,0.2l-3.6-3.5h-1.3l-0.7,0.9l-3.6-0.1l-2.4-2.8H305l-0.7,0.9h-1.8l-0.9-0.9l-2.2-0.1l-0.9,0.9
    l-2.1,0.1l-1.9,1.5v5.4l0.9,0.9l-1.8,2h-1.1l-1,1.1l-0.2-6.6l-1.8-1.3h-10.2l-1.2,1h-2.8l-0.9,0.9l-1.7,0.6l-1.2,1.5l-2,0.8l-6,0.2
    l-2,1.7l-0.2,3.2l-1,1l-1.3,3.9l-1.5,2.1l-0.3,1l-1.8,0.1l-1.1,0.7l-1.5,0.7l-3.2,3.4l-0.3,0.9l-1.4,0.7l-3.8,3.4l-1,0.9l-2.1,1.7
    l-2.6,2.4l-1.4,3.4l-0.8,1.5l-0.9,2.2l-1.3,0.9l-1.7,1v1.1l0.8,0.9h6.1l0.9,0.9l2.2,0.1l0.8,1.5l1.1,0.4h1.9l2.1-1.6l0.9,0.5
    l2.1,0.2l1.1,1.1l0.7,1.9h1.4l0.7-1h0.4l0.5,1h1.2l3.1,3l0.9,0.2l0.8,1.7l1,2.3l0.8,5.6l0.7,0.7l-0.1,0.7l-1,0.9l-1.6,1l-2.3,1.8
    l-0.1,0.7l0.8,0.4l0.7,1.8l1.4,1.2l0.1,2.7l1.9,2.2h1l1.1,1l4.8,1.2l1,0.7l1.9,6.9l0.8,3.2l0.6,5.9l-0.8,6.7l-0.8,2.5l-0.9,3
    l-0.9,1.8l-1.7,2l-0.9,1.1l-2.1-0.8l-2.1-0.1l-1.8,1.6l-1.1,2.2v2.9l1.7,1.9l0.1,1.4l-1.8,1.6l0.6,1.1l1.5-0.1l1.7-1.9l10.1,9.9
    l1.9,0.9l0.8,1l3.3,0.5l2.7,2.7l1.4,1.1l0.9-0.1l1-1h2l1,1h2.2l5.3-3l3.6,0.1l0.7,0.9l1.1,0.1l3-1.7l1,0.4l2.2,1l0.6,1l0.2,0.2h3.3
    l0.9-0.9l0.8,0.8l3.7,1.8l4.1,4.1l1.2,2.3l12.3,0.3l1.9-1.1l2.1-1.8l1.9-1l3.1-3.4l0.1-2.9l1.8-2l1.3-0.1l2.3-2.5l2.5-4.3l3.4-1.1
    l1.8-1l3.9,0.1l2.1,1.8l7.3,0.3l4.6,1l4.1,1.2l8.2,1.9l1.4,0.8l0.6-0.1l1-0.8l-0.1-2l-10.9-21.2l-0.4-4.5l1-6.4l2.1-1.8l0.9-2.1
    l2.1-1.7l1.9-4l0.9-5.2l2.1-9.5l1-3.3l0.3-7.2l3.8-3.9l0.8-2l1.2-1.5l0.8-5.7l1.2-2.1l0.4,0.8l0.1,8.2l-1.7,2.5l-1.5,1.9l-1.8,3.9
    l0.6,2.8l-1.4,5l-1.4,7.2l-1.5,4.9l-1.2,4.2l-1.7,5.2l-0.5,1.7l-3.8,3.7l-1.1,3.4L385,468l1.7,3.1l1,0.9h1.2l3.2-1.6l4.2-2.1
    l4.6-1.9l1.9-0.2l1.9,3.9h5.2l0.9,1l0.9,2l0.5,0.9l-0.9,1l-0.2,1.4l0.6,0.7h2.2l0.9,1.4l1.1,0.5l3.2,0.8l1.7,1.1l0.8,0.9l3,1.1
    l4.1,4l1.8,4.1l1.1,0.8l0.9-0.4l4.1-2.1l1.2-0.2l1,0.9l0.6,2.2l2.2,1.9h1.2l2.7-2.9v-1.1l2.1-0.7l0.8-1.3l1.1-0.1l0.3,1l-2.9,5.3
    l-0.3,0.9l-1.8,0.5l-2.1,2.5l-1.2,0.1l-2.9,2.7v1.1l0.9,1l0.6,3h4.3l2-1.9l2.7-0.1l0.6,0.2l0.5,2.6l1.1,2.1l1.1,0.2l0.3,2.9
    l-1.1,0.9v1.1l2.8,1.8h1.3l0.9-0.7l4.8-0.6l2.2-2.6h0.9l2-1.8l0.3-1.1l3.7-0.4l3-3.6h7l1.1,0.9l0.2,3.2l-2.1,2l1.9,2h0.9l1.3-0.8
    l0.1-1.2l4.5,0.1l2.3,1.8l1,0.1l0.8,1.8l1.5,0.2l1.6-1.8l1.7-0.9l3.6-4.1l0.8-2.1l1.9-1.9l0.8-2.1l1.3-0.9l0.2-0.9l0.1,2.5
    l-0.9,1.2l-0.9,3.2l-2.1,4l-2.3,3l-3.6,3.5l-0.4,0.5l0.9,0.9l2.8,2.7l0.3,1.4l-1,0.8l4.5,4.7l5.3,0.3l0.7,0.8l3.3,1l5.3,0.2h0.8
    l1,0.9h1.4l1.6-0.9l4.8-0.6l3.4-2.3l2.9-1l2.4-1l1.2,0.3l1.2-0.4h1.1l1.1,0.7l3.8-3.6l3-0.8l3.7-3.9l4.5-1.1l0.2-0.5l2.6-0.7
    l0.4-0.4l4.5,0.2l0.9,1.7l2.9,0.1l3.1-1.5l1-1.3l2.1-0.6l1-1.2l5.1-0.9l2.9-3.2l1.3-0.4l2.9-2.8l2.9-0.6l0.9-4.3l1-1.2h0.8l0.8,2.8
    l1.5,2.4l1.3-0.1l0.8-4.1l1.6-2.1h0.5l0.7,0.9l0.8,8l1.4,2.4l2,0.5h13l1-1l0.5-1.8l2-1.6l1-2.2l4-0.7l3.2-4.4l1.3,0.2l1.2-0.4h2.5
    l3,1.6l0.6,0.2l1.4-4.8l2.1-0.1l1,1l2.9,0.1l2.1,1.8l1.2,0.3l2.1,1.7l4.2,0.5l4.9,0.6h5.3l2.8-1.5l3-1.2l12.5-0.7l1.2-1l2-0.8
    l7.5-7.4l0.4-0.2h1.9l1.7,1.9l1.2,0.2l5.7,5.6l0.3,0.3h1l5.9,5.8l1.1,0.4l1.1,0.8l0.5,1.8l0.4,0.4l0.1,0.9l-0.9,0.9v2.2l-0.9,0.8
    l-0.7,1.7l-0.6,1.2l-0.1,2.2l0.1,4.4l0.5,0.5l0.8-0.2l0.8-0.8l1.4,0.1l0.7,1.8l1.1,1.2l0.9,9.4l0.6,6.5l-0.6,3.3l0.7,1.7l1.2,1.3
    l3.4,1.5l2.6,1.1l7.7,9.4l0.3,1.1l1.2,4.2l0.8,2.7l2.6,7.9l1.6-0.3l4.6-1.6l3.5-0.2l1,3.3l0.6,4.6l-1.5,0.3l-7.4,2v0.7l2,5.4
    l1.2,4.8l0.8,3.2l1.5,2.5h1.7l3.7-1.6l4.4-1.2l4.2-0.9l1.7-1.2l2,0.2l0.9,2.1l1,2.9l0.8,1.3v0.4l-0.9,0.5l-2.3,0.9l-19,6.2l-3.8,1
    l-3.4,0.9l-2.7,2.8v2.1l2,2.1l4.1,2.1l2.4,1.7l7.6,4.1l3.2-0.2l0.9-0.8h0.9l1.4,1.5h1.3l0.4,0.9l0.9,0.5l0.9,1.3l0.2,0.8l0.1,6.8
    h1.5v-8.4l-0.9-0.5v-1.9l1.1-0.9l6.4-0.6l1.7,0.4l0.3,0.6l0.1,7.8l-5.1,0.1v2.4h1.4v-1.1h5v-8.1l1-0.8h3.3l-0.2,2.2l0.4,1.6
    l3.3,3.3h3l0.2-2.9l0.9-0.9l2-0.3l0.4-4.7l0.8-0.5v-1.6l2.1-1.8l3.2-1.3l1.5-1.5l0.4-1.3l-0.5-1.5l-2.3-2.2h-4.9l-3.5,3.8l-5.2-3
    l-0.1-2.1l2.3-1.9l1.5-0.9l-1.5-1.9l-2-0.3l-2.2-1.9l0.9-0.5l0.3-1.6l0.8-0.9h1.1l3.6,2.1l1.2-0.5l1.2-3.7l1.5,0.2l8.8,4.5l3.6,3.6
    l2.2,0.9l1.6,1.8l0.2,0.3l1.9,1.8v1.1l-0.9,0.9l0.9,0.9l0.9-0.9l1.3,0.1l1,1.1l0.4,1.1l1.5,1.7l0.5,10l-0.5,1.9l1,4.9l1,4l4.8,19.3
    l1.1,0.8v1.2l-0.8,0.4l-0.3,1.6l-0.9,0.9l-5.9,0.4l0.3,8.5l6.6-0.2l1.9-1.7l2.1-0.3l1,0.2l4.1-1.9l2.8-0.4v-6.6l2-1.9l3-0.5l2,0.4
    l1,1.2l0.9,4.7l-0.9,2.9l0.7,1.1l0.3,4l0.8,0.7l0.3,4.2l0.8,0.3l0.1,3l-1.2,0.9l-3.8,0.4l-3.1,1.5l1.2,1.1l3.5-0.3l0.3-0.6l2.8-0.1
    l3.6,3.8l6.2,0.5l0.9,0.8l3.8-0.1l1.3-1.5l0.3-3.4l2.9-2.9l0.1-1.2l1.9-2l2.7-0.2l1.2-1.6l2-0.5l2-2.4l0.3-2.2l0.7-1h2.1l1.1,1
    L872,671l0.6,1.2l5.3-1.2l1.4-0.3l15-8l2-1.9l-0.7-5.2l0.9-0.6l1-2.5l0.1-4.8l-3.1-2.3l-0.9-0.9l1.1-1.1l-1-2.3v-7.5l1.1-1.2
    l1.7-1.2l0.3-1.9l4.2-6.7l0.8-1.4l-1.4-1l0.4-0.5l0.2-1.5l0.8-0.9l3.2-0.6l5.1,5.1l7.8,8.3l0.7,1.8l1.3-0.5l11.8,11.1l3.5,4.2
    l5.6,5.1l1,1.1l6.6,6.2l2.1-0.5l0.5-1.5l0.7-0.9l-4-4.2l-0.3-4.5l-2.8-2.5l-2.9,1l-4.6-5l-1.7-0.5l-8.8-8.4l0.3-0.7l0.8,0.4l1-0.6
    l1,0.6l1-1.7l2.8,1.2l2.7,2.7l3.2-0.1l0.8-1.6l2.5-2.2l1.1,0.1l2,2.1l-0.8,0.9l10.5,11.8l2.3,0.3l4.7,4.8l1,2l3-0.2l3.3-3.5
    l2.1-0.3l0.9,0.9l0.1,1.3l-2.1,0.9l-4,3.9l0.3,1.8l2.8,3.2l0.3,0.9l2.7,0.4l0.9,0.8l0.3,3.5l1,1.8l1.6,1.7l0.4,1.8l1.4,1.2l1.6,0.5
    l0.8,0.4l7.8-0.1l1.2-0.8l3,0.1l1,0.9l1.2,3.1l-1.8,0.4l-1.1,1.1l-4.3,2.1l0.3,4l3.4,3l2.3,3.3l3,2.7l0.9-0.9l-0.9-0.5l-0.2-1.3
    l1.1-0.9h2.2l1.7,2l0.3,0.9l-2.9,2.7l-0.4,2.6l-0.8,0.8l4.8,5l3.7-0.1h0.6l2.4,1.2h2.1l2.4-1.6l1-2l0.1-2.4l1.8-1.6l0.2-1.3
    l1.7-0.2l1.1-1.5l0.4-1.4l3.8-3.4l0.2-1.5l3.1-3l1.8-0.9l0.1-1.1l2-1.8l0.8-1.2l1-0.4l0.1-1.6l1.1-0.9l2.1-0.2l1.7-1.5l0.2-3.5
    l1.8-1.8l0.2-1l-0.4-1.2l-0.8-1l-0.2-3.7l-1.8-0.1l-1.9-2.1l-0.3-3.7l-3-0.2l-0.8,0.3l-1.1-0.2l-0.8,0.8l-1.1-0.7v-1.2l3-2.5
    l0.2-2.2l4-0.4l-0.1-0.7l1.8-0.7l0.3-2.3l2.1-0.2l0.8,0.8l0.1,7.2l-1,0.8l1.4,4.5l1.3,0.7h2l1.2-0.5l2.1-2.2h0.8l1.1,0.8l2,0.2
    l0.8,0.8l1.1,0.1l1,1l0.6,2l3.1-0.1l3.6-4v-0.8l0.9-0.6l-0.1-5.4l-1.1-2.3l-1-2.7l1-0.2l2.4,3.1l4.5,0.1l1.1,1.7l0.2,2.2l-2.2,2
    l-0.6,0.5l-0.2,1.6l-3,2.7l-0.2,1.4l-1.2,0.8l-0.3,0.8l-0.5,2.3l-0.8,0.5l-0.1,7.9l2.7,2.6l0.4,0.9l1.6,2.1l-0.3,4.3l0.5,2.4
    l-0.9,1.4l1,0.9h6.2l0.9,0.4l1.4-0.7l1.4,0.4l1.2,0.8l-0.2,1l-0.9,0.8v5.1l-1,0.9l-1.1,2.1l-0.8,0.4l-2,4.6l-1,1.2l-0.1,0.6
    l-0.8,0.5l-2.3,5.3l0.6,1.3l1.5,0.2l0.2,5.6l-1.2,1l-2.7,0.3l-0.2,1.7l-2.1,2.1l0.1,6.1l2.8,2.9h4.7l1.4-1l0.4-0.9l2.8-0.3l0.9,0.3
    l1.9-0.5l0.2-2.6l0.8-0.7l0.8-1.2l2.8,0.2l0.9,0.8l-0.6,0.9l0.2,2.1l1.4,0.9l2.4,0.1l2,1.9l0.9,1.2l0.5,2.4l0.6,0.4l0.2,5.8
    l-1.1,1.2v2.1l0.9,0.3l0.2,3.7l2.5,2.9l3.4-0.3l0.2-1.1l-1.3-1.4l2.1-2.1l1.9-1l2.1-0.6l0.5-1.5l-0.6-1.4l-0.3-1.7l-0.6-0.3v-2.6
    l1-1.1l0.5,1l2.1,0.2l0.9,0.7l1.4,0.2l0.5,0.9l4.9,0.2l0.7,0.8l5.1-0.2l1.8,0.3l0.4,1.8l1.5,1.2l0.1,3l1.5,1.9l1.5,1.2h1.8l0.9,1.1
    l1.1,0.8l3.4,0.2l1.2,1.8l1.3,1.1l0.3,1.6l1.6,1.3l0.3,4.7l1.7,0.2l1.9,2.1l1.2-0.8l0.2-1.3l1.8-1.6l0.1-4.4l-1.7-2l0.7-0.8
    l-0.5-1.1l0.4-1.2l1.2-1l0.9-0.8l0.9-0.1l4.1,3.9l1.2,0.8h2.5l0.4-1.5l-1-0.4l0.9-0.9l2.9-0.5l2-2.4l-0.6-1.7l-0.6-4.4l-2.4-0.2
    l-1.5,2l-0.9,1l-3.4,0.2l-2.4,2l-1.2-1.3l-0.2-2.6l-1.8-1.3v-3.6l4.1-1.6l0.1-3l-3.2-3.5l-0.5-1.4l-0.4-0.2l-0.8-1.7l-0.2-6.6
    l2-2.1l3.8-0.7l-0.6-1.5l-2-2.1l-2.6,0.8l-2.7,0.8l-0.6,1.6l-2.3,2.6l-0.2,2.4l-5.1,4.6v5.4l-2.2,1.9l-1.7-0.1l-2.9-2.8v-4.1
    l1.2-1.7l2.9-3l1.7-0.6l1.2-1.6l1.1-0.8l-1-1.2h-4.3l-2,1.9h-1.7l-0.6-0.9l-1.7-0.1l-0.5-1l-3.2-0.1l-3.2-2.8l-0.5-2.1l-0.4-0.5
    l0.1-4.3l0.9-1.1V708l2.1-1.8l1.9-0.4l-0.1-2.5l-2.1-0.2l-0.8,0.3l-1-0.3l-0.8-1.1l-1.1-1.9l0.5-0.8l-0.7-1.2l2.2-1.8l1.5-0.2
    l1.4-1.9l1.7-0.6l0.2-2.4l0.9-0.7l0.2-1.4l1-0.8l0.9,0.7l0.5,1.1l1.2,1h3.3l1,1l0.1,0.8l-1,0.8l0.1,1.7l3.6,3.7h6.4l0.5,0.9
    l1.4,0.3l1.1,0.7l2.1-1l2.8-0.2l0.1-2.6l1.2-1.3l1.7-0.7l1.2-0.8l-0.1-2.3l2-0.9l2.1-1.3l2.8-2.8l7-0.2l0.9-3.1l0.8-3.4l-1-3
    l-1.8-0.5l0.1-2.6l5-0.5l-0.1-5.4l-1.9-1.6l-0.7-1.8l0.7-1.1l-3.7-3.9l-2.4-0.1l-0.8-2.9l-0.6-1.8l-1.2-0.4l-4-4l-1.9-0.8l-1.2-0.9
    l0.8-1.6l0.1-2.3l-1.7-1.1l0.6-1l-1.5-1.1l-2.1,0.4l-0.2,1.6l-0.9,1.1l-1.2,0.1l-0.6-0.9l-2.2-0.2l-1.2-0.8l-1.7,0.6l-2.4,2
    l-2.4,3.2l-1.9,0.2l-1.7,1.7l1.4,1.8l1.5,0.4l0.2,2.8l-1.1,0.8l-0.4,1.4h-4.9l-2,0.9l-0.8-0.9l-0.2-6.1h-4.3l0.5-1v-1.2l-1-1
    l4.2-3.6l0.3-1.4l0.4-2.4l-0.8-0.7l-0.2-2.6l1.2-1l-0.9-1.7l-3.2-0.5l-0.3-1.6l-1.7-1.3l-0.3-8.1l-1.7-1.1l-0.1-1.8l0.8-0.8
    l2.2-0.6v-3.4l-3.4-0.2l-1.9,2l-4.2,0.2l-0.7,0.7l-1.9-0.8l-0.4-3l-3.8,0.1l-3.8,2.1l-1.9,1.5l-2.4,0.3l-2.7,1.8l-1.9-0.9l-1-2.2
    l-0.4-2.6l-1.5-1l-2.2,0.1l-0.7,0.8l-2.3,0.1l-3-2l-1.1-0.2l-1.8-1.6l0.2-1.1l1.6-2l0.9-1.8l0.2-1.9l-2.1-1.6l-0.1-0.7l1-0.6
    l1.1-2.7l0.1-4.4l-2.8-2.6l-1.2-0.4l-0.8-1.7l0.9-1.1l-1.9-2.2l-0.2-1.2l2-2.1v-1.7l-0.8-0.7l-1.1-0.1l-0.7-2.1l-0.8-3.8l-2,0.1
    l-0.6,0.6l-2-0.7l-0.4-1.8l-1.7-0.3l-0.3-4l-2.7-1.8l0.9-1.2l0.4-5.5l0.6-0.8l0.3-2.3l-1.1-1l-0.7-2.1l0.5-1.2l0.9-1.1l2.2-0.5
    l-1.9-2.4l1.8-1.8l1.7-0.3l2.4-2.5v-1.8l-1.8-1.7l-4.4,0.2l-0.9,0.7v1.2l-1.1,1h-1.7v-1.8l0.6-1.7V539l-4.6-4l-0.8-2l-2.4,1.7
    l-1.6-1.7l-0.6-1.9l-0.9-0.5l-1.8,1.1l-0.8-0.7l-6.3,0.1l-1.9,1.6l-0.2,3.1h-1.8l-0.9-0.7l-2.8,2.6l-1.1,1.5l-1.1-1.2v-1.5l1.2-1
    l-0.1-3.3l4-1.1l1.8-0.9l-1.3-1l-1.6-0.2l-0.9-0.9l-0.1-2.8l2.7-0.9l0.3-2l1.9-1l1.8,1.6l1.8,0.2l0.6-0.8h1.8l1.2,0.9l0.9-0.9
    l-2.2-2.8l-0.8-1.4l0.2-3l1.8-1.6l0.2-2.4h2.7l0.1-2.9l2.9-2.7l0.3-4.9l4.7-0.8v-2.3l-0.9-0.4l0.7-1l2.2-0.2l0.2-2.1l-1.8-2.2
    l-1.3-1.4l0.8-1l1.9,0.2l6,5.7l1.7,1.1l1.4,0.1l1,1.1l0.4,1.7l1.5,1.3l0.8,2l1.1,1.8l0.3,6l-0.6,1.1l0.7,0.7l-1,0.9l-2.3,5.3
    l-1.8,1l-3.8,1.1l-2.4,2.6l0.5,5l1.3,0.2l0.4-2.1l2.4-0.8l7.4-0.3l1.6-0.9l0.7-1.9l1.7-2.1l1.1,0.1l0.9,0.9l0.1,0.9l-2,1.8
    l-0.2,1.4l-0.9,0.6l0.1,5.3l1.8,2.1l0.3,5.7l0.9,0.4v1.3l0.9,0.7l0.4,0.7l1.6,0.3l1,0.8l0.9-0.7l1-0.8l0.3-3.4l0.9-0.8l0.2-4.1
    l3.6-0.4l0.2-3.4l-0.9-0.5l-1.1-2v-0.8l1-0.8l-0.8-1l1.9-0.9l1.8-0.6l0.2-2.3l-1.9-0.4l-2.9-2.9l-3.2-0.1l-3-3.1l-0.3-2.7l-3.5-3.2
    l-0.3-0.8l-0.1-4.7l-2.8-4.9v-2.7l0.7-0.8l0.3-0.9l1-0.7l0.9-2.5l0.9-0.4l1.2-2.7l0.9-0.3l1.2-3.4l1.8-1.8l0.3-3.1l-2.2-0.8v-0.6
    l1.2-0.8l-0.4-0.9l-1.5-1.3l-2,0.8l-2.6,1h-3.5l-1-0.8l0.1-1l2-2.1l1,0.3l2.9-0.6l0.5-1.3l8.5-9.1l0.1-1.2l1.8-1.7l0.1-3.1
    l-1.1-0.7l-1-1.7l-1-2l-0.1-2.8l3.1-5.1l-1-1.7V440l2.1-2l0.1-2.1l1.7-2.8l2.2-0.8l2.7,2.8l0.5,2.9l1.7-0.1l0.1-2.7l1.9-0.4
    l0.2-1.8l0.9-0.8l1.8-0.4l1.4-1.6h2.7l1.9,0.8l2.7,3l1.5,0.2l0.9,1l0.9,0.5l0.4,1.8l0.8,4.6l1.7,2l0.3,1.6l0.7,0.7l0.6,0.8l2,0.2
    l0.9,0.7l2.8,0.4l2.9-0.7l1.1-1.4v-1.2l1.8-1.7l0.1-1.3l0.8-1.2l1,0.1l0.4,7.7l0.9,0.2l0.8-1l1-0.1l0.6,0.9l1.1,1.7l1.1,1.6
    l0.1,3.2l-0.1,1l5.2-0.4l0.1-3.1l-2-4.2l-0.8-1.3l0.6-0.9l1.2,0.9l0.2,0.8l0.8,0.2l2.2,4.5l1.3,1.1l1.2,0.2l0.4,1.8l1.3,2l1.4-0.1
    l0.5-2.6l1.5-0.5l0.3-0.5h0.9l0.5,1l1.8,0.9l4.4,0.2l1.1,1l1.2-0.7l0.8-1.2l-1.4-2.2l-1.6-0.1l-1.7-0.9l-0.3-2.2l-1.9-1.8l-0.4-1.8
    l0.3-1l2.1-0.3l1.2-0.9V441l1.9-3l1-0.9l6.1-0.3l0.9-0.8l3.7-0.2l2.4-1.6l0.8-1.2l1,0.1l1.8,1l4-0.2l1-1.7l0.1-1l1.2-0.5l-0.2-7.8
    l3.1-0.8l0.9-0.7l1.2,0.9l-2.1,1.5v7.3l-0.9,0.6l-1.3,4.8l-1.7,2.8l-0.7-0.9l-4.5-0.1l-3.2,2.8l0.5,2.1l1.6,0.4l0.2,3.7l7,0.2
    l-4,3.7v2l-0.7,1.3l0.8,1.1v1.5l-1.2,1.8l-1.8,2.3v2.6l1.8,1.8l2.4-0.5l-1-1.6l0.8-1l0.9-0.1l0.7,1.1l1.9-0.2l1.8-2l1.7-0.8
    l2.4-2.1l0.7,0.4l-0.1,2.4l-2,1.8l-0.2,4.4l1.1,1.1l0.4,0.8l1.5,0.3l0.9,0.8l1,0.1l0.6,0.8l2.8,0.2l4.6,2.8l1.2,0.2l0.7,0.9
    l3.2,0.2l0.6,0.7l1.8,0.3l0.4,0.7l3.2-0.1l0.5-1l1.6-0.5l0.1-1.2l0.7-0.4l1.3-2.8l0.9,1.2l0.2,3.3l-2.8,5.2l-0.4,2.4l-1.1,0.9v7.1
    l1.1,1.1l0.5,2.8l0.7,0.3l0.7,0.7l3.8,0.2l2.4,1.9l-2.1,2l-8.6,0.1l-1.1,1.1l-0.5,1.6l-0.5,0.7v2.3l-1.9,2l-0.1,3.5l3,2.9l1.1,1.8
    l1.1,2.5l2.8,2.5l3.8-0.2l1-1.6l1.8,1.6l1.2,0.4l0.3,2.4l2.6,2.5h4.2l0.9,1.8l2,4.2l0.1,2l-0.8,0.8l-2.7-2.8l-2.4,0.1l-3.2,1.7
    l2.1,2.1l-0.1,1.4l-0.8,1.3l-0.1,1.5l4,3.8l0.3,2.3l2.7,2.7l1.2,0.2l2.2,2l1.5,0.3l0.3-2.5l1.9-1.8l0.2-2.9l0.7-1.4l1.2,0.1
    l0.8,0.9h1.7l0.8-1.9l2.1-0.2l1.6-1.7l0.3-0.9l0.5-0.9l0.1-2l-1.2-0.5l0.1-0.8l1-1l0.9-2l0.8-0.1l0.8,0.6l1.4-0.4l1.9-0.3l0.9,1.1
    l0.3,6.8l0.8,0.4l0.2,1.5l0.7,0.1l0.4,2l1.6,0.2l1,0.8l0.5,2.6l1,0.7l-0.6,1l-0.8-0.4l-0.4-0.9h-3.8l-1,0.8l-3.1,0.8l0.9,1.1
    l3.5,1.2v2.9l-1.1,0.7l-0.1,3.3l2,2l0.3,1.5l2.5,0.7l0.8,1.8l-1.5,1.7l0.1,3.3l0.6,1l0.5,2.6l1.3,1.4l-0.7,1.5l0.1,0.8l3.2,2.7
    l0.9,0.4l1.1-1.4l0.9-1l2.5-0.3l0.8-1.5l0.6-0.8v-4.2l-2.1-1.6l-0.1-0.7l2-1.7l0.2-1.3l1.6-0.8l1.5,0.6l1.2-0.7l-0.5-3.2l-1.7-0.2
    l-0.8-1.9l-2.1-2.1l-0.1-3.7l2-1.9l-2.9-3.6v-0.6l1-0.4l1.8,0.2l0.2-1.5l-1.9-1.6v-3.9l1.2-2l0.9-0.8l2.8-0.2l0.5,0.8l1.5,0.5
    l4,3.9l0.8,1.2l0.8,2.8l2.4-0.5l-0.8-1.6v-0.9l1-2.2l0.8,0.8l1.1,0.2l0.8,0.9l1.2-0.5l-0.5-1.3l-0.6-0.2l-0.1-2.6l-1.5-1.2
    l-5.3-0.1l-1-0.9l-0.2-1l1.2-1.1l1.2-0.9l0.9-1l-1.2-1.1l1.2-1h2l0.7,1.1l0.8,2l3.1-0.2l0.3-0.7h0.8l0.6,1l2.3-0.1l1.2,2.2l0.8,2.9
    l2.5-0.5l-0.3-4.5l3.1-0.2l1.1,1.2l0.7,2.3l2.3-2.2l-0.1-1.6l-2.9-2.7v-0.7l0.9-1.1l3.1,0.2l0.9-1l-1.9-2.1l0.1-1.8l2.8-0.4
    l0.3,1.8l1.7,0.6l2.2-1l-0.3-1.8l-1.2-2.4l-1.5-1.2l-2.9,0.2l-0.6,1l-0.9-0.1l-1.1-1.1l0.4-0.8l2.8-2.8l0.3-1.3l1.7-1.9l0.1-1.1
    l2-2.1l1.8,1l3.7-0.2l0.8-0.7l2.7-0.2l0.1-7.4l-1.7-0.6l-1-1.9l-3.2-3l-1-0.3l-0.7-0.6l-2.2-0.2l-1.2-1l0.1-4.7l-4.2-3v-4l3-0.4
    l0.1-1.4l1.2-1.5l0.8,0.1l1.3,1l0.8,0.2l0.9,1.1l0.7,0.8l1.1,0.2l0.9,0.8l3.8-0.1l1.5-1.6l0.2-5l1.9-1.1l0.9,0.9l-0.7,1l0.9,1
    l-0.4,1l0.5,3.9l1.6,2.3l0.4,3.7l3.6,3l0.6,3.2l-0.5,2.1l2,1.9l0.2,3.2l1.6,1.9l1.3-0.8l1.6-0.2l0.5,1.8l2.1,0.1l0.6-1.9l1.2-0.9
    l0.6-1.1l-0.7-1.2l-1.1-0.8l0.9-1.2l2.9-0.7l-0.8-1.3l0.9-1.1l-1-1.2l-0.3-2.5l-3.7-3.2l-0.1-2.8l-1-0.5l-0.8-1.1l-1.9-3.5l-3.4-3
    v-2l1.2-0.9l1.6,0.7l0.5,1.1l3.5-0.1l0.5-0.7l3.4-0.3l1.4-1.6l-2.1-2.2v-2.1l1.1-0.5l0.6-1.4l-1.4-1.2l-1.8-1.7l-0.4-1l1.2-0.7
    l0.4-1.5l-1.3-1.9l-0.1-3.8l1-1l0.1-5.6l-3.6-3.4l-1.5-0.2l-1.8-0.9l-0.6-1.9l-3.8,0.2l1.1,1.7l-1,1h-2.8l-0.3-1.9l-2.4-2.1l-1.1-1
    l-2.3-0.1l-1.1-0.9v-1.6l0.9-1.2l-0.2-2.2l-1.2-1.7l-2-2.3l-0.5-0.8l-6.2-2.9l-1.2-1.3l-1.1-2.2l-2,0.1l-3.6,3.9l-1.1,2.1l-3.6,1.4
    l-2,2.3l-1.2-0.8l-0.1-2.1l2.1-1.6l0.2-1.3l0.7-0.4l-0.1-3.3l-2.4-0.1l-0.6,0.9l-0.8-0.1l-1.1-0.9l-0.3-2.4l-1.6-0.6l-0.5-2
    l-1.5-2.2l-0.6-1.8l-1.6-1.1l0.6-1.1l1.3,0.2l1.8,1.8l0.7,1.9l1.6,1.2l2.9,0.2l1,0.8l1.9-0.4l2.2-2.1l0.2-1.2l2.4-2.1l-1.4-1.9
    l0.9-1.1l0.9-0.7l0.1-1.3l2-2l-0.5-0.9l-1.5-0.2l-0.1-2l2-1.8l-1.9-2.1l-1-1.9l1.8-2.2l0.1-3l0.8,0.1l1,0.8l4.2,0.2l1,1.2l0.4,1.5
    l1.9,0.2l1,0.7l1.1-1.7l-0.7-1.9l-1.3-1l-1.4-0.2l-0.8-0.9l-1-2.1l-0.1-0.8l1.9-1.8l0.2-1.2l0.7-0.5l0.2-2l0.9-0.7l0.1-1.9l2.8-2.8
    l0.1-1.1l2-1.1l1.7,2l2.2-0.1l0.3-2.8l2.1-2l1.7-0.2l0.2-1.7l0.9-1.2l-1-2l0.7-1h2.1l7.4,3.8l1.9-0.7l2.7-0.4l0.6-0.9l2.7-0.7
    l1.3,0.8l0.8,0.9l0.1,3.3l1.6,2l2.9,2l-1.5,1.5l-0.3,3l3,2.5l6,2.7l0.2,4.3l4.8-0.2l0.1-1.4l2,0.6l0.4,0.8l3.3,0.1l2.4-2.9l1.8-0.3
    l-0.1-2.3L1378.6,382L1378.6,382z M992.5,240.1l0.5-0.7l1-2.2l0.8-1.6l1.1-1.2l2-0.8l0.7-0.6l2-0.1l0.8-1.1l-2.1-2v-1.9l0.7-0.4
    l6.9-7l0.7-2.7l0.8-0.8l0.2-1.1l3.8-3.8l0.2-2.2l-0.6-1.1l-0.3-0.7l0.1-1.4l1.3-1.2l0.6-3.7l0.8-0.9l-0.4-0.5l-1.2-0.9l-1.3-0.8
    l-0.1-0.8l-1.3-1.3l-0.5-0.8l0.7-0.8v-1.2l-0.9-1.1l-0.2-8.1l-0.6-0.8l-0.3-1.6l-0.5-1.8l-0.4-0.5l0.3-0.6l0.6-1.5l-0.6-3.5
    l-0.8-1.6l0.1-0.3h0.3l0.6,0.4l0.8,1.6l1,1.9l1,4.1l2.1,6l0.9,1.9l1.9,2.2l2.8,0.8l2.4,2.4l3.5,0.3l0.7,0.8l0.8,1.6l0.9,1l3.7,0.9
    l4.8,0.7l2.2,1.2l1.6,0.7l2.8,1.3l6.4,0.8l2.8,0.9l1.3,0.7l3,0.5l0.8,0.6l-0.3,0.2l-0.9,1.9l-0.8,1.2l0.1,0.8l1.9,1.2l0.7-0.3h3.6
    l0.4-1.2l-0.8-0.7l-0.1-0.9l0.4-0.5l0.8-1.7l0.4-0.1l0.7-4.5l0.6-0.4l2.6-2.3l0.8-1.6l1-0.3l0.9-0.7l3.2-0.1l0.9-1.2l1.1-0.7h2.9
    l1.8,1.8l0.4-0.3l0.5-0.5l0.8-0.4l0.8-0.7l0.6,0.3l0.4,0.7l0.9-0.1l0.7-0.9l1.1-0.2l0.9-0.9l1.2-0.9h1.7l0.5,0.9l1.9-0.2l0.6-0.8
    l0.4-0.4l0.7-1.8l0.5-0.9l1.7-0.1l0.8-0.8l1,1l0.9,0.1l0.7,0.9l0.3-0.3l1.9-1.5l0.6-0.1l0.9,0.5l3.7,0.5l1.8,0.9l0.8,1.9l0.6,1.2
    l0.9,0.7l-1,0.3l-1.2,0.7l-2.2,0.2l-1,1.9l-1.8,1.9l-1.2,0.4l-0.7,0.8l2,1.9l-0.1,1.2l-1.2,1.2l-0.7,0.7l1.9,1.1l0.2,1l1.1,0.8h2.8
    l0.6-1l-0.8-0.8l-0.1-2.6l0.5-1.3l1.2-0.3l0.7-2l-1.2-1l0.2-1.9l1.6-0.3l1.1-0.7l1,0.2l0.3,1.2l2.8,0.8l0.2,3.1l0.9,2l1.1,0.8
    l2,0.2l0.6,1l-0.8,1.1l-1,0.8h-1.8l-1.4,1l-0.6,0.9l0.1,1.4l0.6,1.4l-0.7,1.4l-0.5,0.1l-0.8,0.8l-0.5-0.8l-0.7,0.2l-0.5,0.8
    l0.9,0.9l0.1,1.7l-0.3,1l-1,0.3l-3,3h-2.3l-0.8,0.7l-0.9,0.9l-1.1,0.4l-1,0.8l-0.4-0.9l-0.6,0.1l-1.7,1.8l3,2.8l-0.3,1l-2.2,0.3
    l-0.8,2.2l-0.4,0.9h-0.5l-0.3-0.7l-1.7-0.5l-0.8-1h-2.7l-1,0.9h-1.4l-1.3,1.1h-0.8l-2.9,3l-5,0.1l-0.8-1h-1.4l-0.8,1l-2.2-0.2
    l-0.6-0.9l-0.3-1.2l-1-1.3l-1.1,0.8l-1,0.6l-1.8,0.1l-0.8,0.8v0.6l2.2,0.9l0.8,0.8l-2,2l-1.5,0.2l-0.6,0.8l-2.1,0.1l-0.8,0.8
    l-2.1-0.2l-0.7-0.7l-1.6,0.2l-0.8,0.8l-1.5,0.5l-0.4,3.2l-0.7,0.3l-1.7,0.1l-0.8,1.9l-1.2,1.2l-1.1,2l-2.5,2.6l0.2,3.3l1.1,0.7
    l0.9-0.9l1.8-1.1l3,0.1l1.3,1.1l1.4,0.8h1.8l0.4,0.3v1.1l-6.3,5.9l-0.8,0.1l-2.3,2l-1.3,2.1l-0.8,2.9l-0.8,3.9l-0.9,0.8l-0.6,0.1
    l-0.2,0.8l-0.7-0.9h-1.5l-1.2,0.9l-4.5-0.2l-0.8-1.1l-1.6-0.5l-0.9-1.3V272l0.2-0.1l5.1-0.1l0.6-0.8l-0.1-0.5l-2.6-0.7l-0.4-0.6
    l-0.9-1.2l-2.1,0.2l-0.9,0.6l-0.9,0.1l-1.3,1.2l-0.7,2.7l-3.3,0.2l-0.6,0.9l0.8,0.8l0.1,0.9l-3.1,3.2l-2,0.1l-0.9,0.9l-30-32.1
    l0.2-2l1-0.8v-1.4l-1.4-0.8L992.5,240.1L992.5,240.1z M561.6,430.2l-3.9,3.5l-0.2,3.4l-0.8-0.1l-0.6-0.8l-0.8-0.1l-1.6,1.5
    l-0.3,2.3l-1.9,0.1l-1.8,1.7l-0.1,1.2l-2.8,2.5l-1.2,0.6l-11,10.7l-0.8,1.9l-0.3,1.2l-3.4,0.3l-1.3,1.4l-0.4,0.5l-2.3,0.3l-2.6,1.3
    l-1.6,2.1l-1,2l0.3,1l2.3-0.6l1.4-0.2l1.3,0.8h7.8l0.6,0.2l-1.2,0.8l-2.5,0.8l-1.9,1l-0.7,0.5l-1.7,0.6l0.4,1.9l1,0.6l-4.3,7
    l-0.5-0.1l-0.7,0.8l-2.7,0.2l-1.5,0.9l-4.6-0.1l-1.3-0.8l-2.1-0.2l-0.8-0.8l-2.1-0.3l-0.6-0.7l-0.6-0.1l-0.7,0.7l-1.6,0.5l-1.1,3.5
    l-0.4,1l-5,0.1l-1-1l-0.1-2.1l1.1-1l0.1-1l1.3-0.9l1.5-0.8l2.1-2.1l-0.8-0.9l-1.1-0.1l-0.7,0.7l-0.4,0.4l-0.6-0.2l-0.4-0.3l0.1-2.8
    l-0.6-0.7l-1.2-0.1l-0.2-0.2V473l1.8-1.8l1.3-0.3l0.9-1.1l0.6,0.9h0.6l0.5-0.5l0.1-0.8l-0.8-0.6l-1-1.1l-0.2-0.8l0.9-0.6l0.1-1.3
    l-0.7-0.8h-3.2l-0.3-0.3l0.1-1.4l0.3-0.7l2-0.1l0.8-0.4V459l2.1-0.7l2.8-1l1-2.1l1.3-1.1l0.6,0.6l1.6,0.3l0.8-0.9l1.4-0.8l2.4-0.9
    l0.8,0.4l1.5-0.7l1.8-0.9l1.9-1.1l1.5-0.9l1.6-2.2l0.8,0.1l0.5,0.3l0.3,3.5h0.6l1.7-1.7l4.7-0.8l0.4-3.4l2-0.9l0.6,0.8l1.4-0.1
    l2.9-2.8l2-0.2l1.3-0.8l0.9-0.1l4.9-4.8l1.9-0.9l2.8-0.8l3.3-3.4l1.8-0.6l1.3-1.4l1.6-0.2l0.6,0.6L561.6,430.2L561.6,430.2z
     M784.8,469.7l-0.4-1l-0.2-1l-0.2-1l-0.2-1.2l0.2-0.9l0.9-1.5l1-1.6l-0.1-1.5l-0.3-1.2l-1.1-1.5l-0.1-0.6l0.5-0.4l0.7,0.7l1-0.8
    l1.1-2.1l2.1-0.8l1.1-1.3l0.7-3.9l1.1-0.6l1-5l0.9-0.9l1-2.6l0.3-0.2h1.3l0.3,0.9h0.6l0.8-2.1l1.9-2.4l0.9-1v-1.6l-0.8-0.5
    l-0.4-1.4v-2.1l0.5,0.1l0.4,1.2h0.7l1.5-1.7l0.1-0.4h0.3l0.7,1.2l0.7,1.8l0.4,0.5l0.1,2.5l-2.9,3.1l-0.3,2.2l-2.6,2.7l-1.1,3.3
    l-0.8,2.9l0.4,0.9l0.8-0.6l1.2-1.3l6-0.5l1.9-1.4l0.8-0.4h1.4l0.4,0.5l-3.2,1.5l-1.2,1.5l-1.2,0.1l-2.7,2.6v1.2l-0.2,0.3l-0.9,0.1
    l-1.9,1.5v1l-0.3,0.3h-1.9l-1.6,1.6l-0.3,0.2l0.1,2l0.6,1v0.8l-1.7,1.2l-1.1,0.5l-0.7,0.7v1.3l2.7,2.4l1.1,0.2l0.2,0.3l-1,2.5
    l-0.1,0.4h-0.4l-1.3,0.5l-1.7,1.9l-3.2-0.4l-0.5-0.7l-0.5,0.8l-1.1,0.1l-1.4,0.2L784.8,469.7L784.8,469.7z M786.5,543.1l-0.9-0.9
    V541l1.9-0.6v-0.9l0.6-0.6l1.3,0.1l3,2.9l0.7,1.3L786.5,543.1z M796.4,534.3l-0.8,0.9l-1.3-0.1l-0.8-1.1v-2.3l-1.1-1.5l0.1-1.7
    l0.8-0.9l0.2-1.7l1.2,0.1l0.8,0.9h1.2l1-0.8l0.8,0.7l1.2,0.6l-0.3,1.7l-1.6,1.1l-0.3,1.7l-0.4,0.1L796.4,534.3L796.4,534.3z
     M805.7,539.5l-0.4,1.5l-5.8,6l-1.2-0.1l-1-1.1l0.5-2.2l0.9-1.6l0.7-0.2l1.5-0.6l1.1-0.2l0.8-1.8l0.7-1.3l1.7-0.1l0.4-0.6l0.7,0.8
    l0.5,1L805.7,539.5L805.7,539.5z M817.4,530.1l-3.7,3.9l-2.7,0.1l-0.6,1.1l1.2,0.8l-0.2,1l-0.8,1.1l0.7,1l-0.7,1l-1,0.1l-0.8-1.3
    l-2.8-4.5l-2.6-4.2l0.2-4.2l1.1,0.1l1.8,2.9l-1.9-3.3l3,3.5l0.9-1.1l1.1-0.7l0.4,0.9l-1.4,0.5l0.1,1.8l0.7,0.5l0.6,0.1l1.7-2.1
    l1.2-0.4l1.9-0.5l0.8-0.9l1-1l1.1,1L817.4,530.1L817.4,530.1z M834.3,493.2l-0.7,0.7l-1.1-0.2l-5.7-4.9l-0.5-0.7l-3.1-0.1l-0.8,0.9
    l-1.8-0.1l-0.4-0.9h-2.3l-0.6,1.2l-1.3-0.2l-0.6-0.5l-1.8-0.6l-1.7-1.8l-2.2-0.3l-2.1-1.9l1.1-1l3.1,0.2l1,1.4l2,0.6l0.5,0.6
    l1.6,0.1l0.7-0.8l1.6-0.6l0.8-0.6l0.6-0.3l0.7,0.5h1.3l0.9,0.8h2.6l0.6-0.8l0.9,0.9l1.1,0.2l6,6L834.3,493.2L834.3,493.2z
     M1231.4,490.1h-2.2l-1.2-0.9l-1.2,1l-1.4-0.1l-1.5-1.9h-1.4l-0.1-4.2l2.1-3.2l0.5-0.9h1.2l1.2,1.2l0.2,1.4l1.8,1.7l0.2,1.9l2.8,3
    L1231.4,490.1z M1298.5,459l0.2-1.2l0.8-0.2l0.3-0.5h1.3l0.5-0.9l3.6-0.1l0.9,0.9l1.4,0.2l0.9,0.9l0.2,0.9l-1,0.6l-1.1,1.4l-2,1.9
    l-0.3,4.1l-0.7,1l-1.5,0.3l-0.8-0.1l-0.8,0.7l0.5,0.9l0.7,0.3l-1.6,0.4l-1.5,1.7h-1.1l-3,2.9l-1.9,0.1l-0.2,2.1l-1.9,1.8l-2.1,0.2
    l-0.7,0.8l-0.9,0.1l-1.5,1.7l0.5,1.5l0.8,3.4l2.2,0.3l0.4-1.1h1l1.8,1.9l0.5,2.7l0.7,0.6l0.1,2l2.6,2.8l2.7-0.1l2.9-1.9h1.7
    l1.1,0.9l0.3,2l4,0.1l1.7,0.9l0.1,1.9l-1.8,0.3l-0.3,2l0.9,0.8l0.3,3.8l-3.1,2.9l-0.1,1l-2,2.2l-2.3,0.4l0.4,1.3l1.4,1.2l-0.6,1.1
    l-7.5,0.2l-0.5,0.8l-1.5,0.3l-0.6,0.5l-1.8-1.8l-0.9-0.4l-1.1,0.5l-2.9-3.2h-1.2l-0.6-0.8l-1.8,0.7l0.8,2l0.7,0.4l-0.2,0.7l-1,1
    l-2.2,1.1l-2.8-1.2l-0.8-0.9l-0.4-3.6l-0.8-0.3v-1.4l-1.6-1.4l-1.5,0.8h-1.4l-1.4-0.8l-1-0.5l-1,0.4l-0.8-0.5l-1-1.5l-1.1,0.9
    l-1.2-0.2l-1.4-1.6l0.6-0.7l-0.2-1.6l-0.9-1l0.3-0.8l0.6-0.8l-0.7-1.5l-0.9-1l-2-1.7l-6.2-2.9l-0.9,0.8l0.9,1.1l0.2,4.9l-0.9,2.3
    l-2.3-0.1l-6.2-6.1l-0.6-1.8l-0.3-1.4l0.6-1l-1.2-1.7l-3.1-0.3l-1.4-1l-1.1-1.8l-0.3-1.7l-3.7-5.6l-0.9-1.4l-0.3-1.9l-0.7-0.3
    l0.1-1.1l0.9-1.3l-0.2-1.2l-0.8-0.5l-0.2-1.6l-7.8-7.3l-0.8-1.7l-0.2-3.2l1-0.8l0.1-3.2l0.8-1l-0.9-1.5l-0.1-4.2l-2.8-2.3l-0.4-1.6
    l-0.7-0.5l-0.2-1.7l-6.7-6.2l-0.9-1.7l-0.1-4.3l0.9,0.6l0.2,1.1l0.9,0.3l0.2,1.6l1.6,1.5l1.3,0.1l2.6,3.1h1.3l1.8,2l2.2-0.2v-3.8
    l-0.8-0.6l-0.4-1.3l-0.8-0.3l-0.1-2l2.9,0.2l1.3,5.6l2.8,0.1l0.2,1.3l1.7,1.8l0.6,3.3l0.6,0.4l0.2,2.9l0.8,0.4l0.1,1.6l2,0.3
    l0.8,1.1l2.2-2l-0.8-1.5l-0.5-2.1l-0.8-0.5l-0.2-2.2l2.2-1.7l5.8-0.1l1.8,0.8l2,1.9l1.1-0.7h2.2v1.1l-0.9,0.9l-2.5,1.2l-3.5-0.1
    v4.9l1.9,2l0.3,2.9l3.7,4.3l1.3,0.5l3.2,0.1l0.5-0.8h1.2l1.9-2l1.5-0.2l1.4-1.7l3.1-1.2l1.9-1.9l1.9-0.3l0.2-0.7l0.8-0.6l0.2-0.4
    h1.5l2.2,0.9l0.4,1.9l1.3,0.2l0.3-3.4l-1-0.6l-0.3-1.7l-1.7-0.2l-1.1-0.9v-1.1l0.9-0.2l0.2-1.8l0.9-0.5l0.1-0.9l-1-0.5l-0.2-2.5
    l-0.6-0.6l0.6-0.8l0.7,0.8l2.3,0.2l1,1l0.5,1.8l0.5,0.4l0.2,3.8l2.8-0.3l0.3-0.8h1.6l0.2-1l4.1,0.2l1.1,0.8l-1,0.6l-0.4,1.5l-0.8,1
    l-1.9,0.3l-1.3,0.8l-0.7,0.3l-0.5,6.2l-0.6,0.7l-0.1,1.5l-1,0.7l-0.1,1.8l-0.9,0.8l-0.1,4.1l-0.6,1v1l0.8,0.8l0.2,1.8l2.7,0.3
    l1.6,1.8l1.9,0.1l1.6-1.5l0.1-4.4l0.9-0.5l0.2-1.2l0.9-1.4h3.1l0.4,0.9l1.1,0.1L1298.5,459L1298.5,459z"/>
  <path class="st1" d="M1271.3,468.5l-0.8-0.6l-0.2-5.6l-1.7-0.5l-1-0.6l-1,0.7l-0.8,0.3l-0.4,0.6l-1.2,1l-0.9,1.2l-0.8,1.7l-1.9,0.5
    l-0.1,5.1l2.3,2.4l1.7,0.3l1,0.7l0.8-0.8l3.2,0.1l1.4,1.9l1.5-0.2l0.1-3.9l-1-1L1271.3,468.5z M531.3,452.1h-0.7l-2,1.7l0.8,1.2
    l2.1-0.1l0.9-0.6l-0.1-1L531.3,452.1z M530.9,456.7l-1.8,0.1l0.2,0.5h2.4l0.1-1.2l-0.4-0.1L530.9,456.7z M518.7,455.2l0.6,0.9
    l0.6,0.1l-0.1-1.5l-2.5,0.1l0.2,0.5L518.7,455.2z M517.9,456.7v-0.1h-0.7l-0.1,0.7l0.8,0.1V456.7z M508.7,476.8l-1,1.2v0.1l0.6,0.7
    h1.3l0.8,1l0.9-0.5v-1.4l-0.6-0.7L508.7,476.8z M516.5,464l1,0.9l0.8-0.6V463l-0.4-0.7l-2.5-0.1l-0.8,0.8l0.9,0.8L516.5,464z
     M518.9,469.3h-1.4l-1.7,1.4l-1.3,1.2l0.8,0.9l2,0.1l1.1,1l0.7,3l1.2-0.6l0.9-1l0.1-2.4l-1.6-1.7L518.9,469.3z M513.6,461.2l-2.9-3
    h-2.4l-3.6,3.7l-0.4,1.6l0.9,4.6l2-0.6l0.2-1.6h2.1l1.7,1.9h1.3l0.8-0.7l-2.7-2.8l-0.9-0.5l-0.8-1.7l0.3-1.2h0.9l1.4,0.9l2,2.1
    l0.9-0.7l-0.2-0.9L513.6,461.2z"/>
  <polygon class="st0" points="182,0 194.6,9 197.9,11.7 198.3,13.7 202,14.9 202.6,15.7 203.2,18.3 208.3,23.9 211.9,24.5
    214.9,25.8 218.9,29.3 223.6,31.3 226.3,34.6 239.4,43 243.6,60.2 251.9,54.4 257.3,64.7 260.1,90.3 251.4,98.3 248.7,105
    248.4,109.6 255.9,117.8 252.9,123.5 253.3,132.6 244.5,133.9 236.7,134 233.4,132.8 231.4,133.5 225.4,134.1 217.1,133.3
    214.6,134.2 216.8,136.2 215.6,137.4 215.3,141.8 213.6,143.5 213.3,146 211.8,147.7 211.5,149.3 208.8,151.5 208.5,153.1
    205.6,155.6 205.1,157.6 202.6,160 201.1,160.2 199.2,162.1 197.4,162.9 195.1,163.1 192.4,165.9 190.6,166.3 190.4,168.3
    189.3,169 188.2,168.3 182.7,169.2 180.4,170.1 177.2,169 176.3,168.3 176.6,165.9 172.8,165.3 166.3,165.9 165.2,165 164.5,166
    165.2,166.9 165.4,169.2 163.1,169.1 160.3,172.2 159,172.4 157.4,173.9 157.4,176 156.5,177.1 157.4,178.2 156.5,180 157.3,181.4
    159.3,182.2 159.5,185.6 163.1,189.1 164.8,192.3 166.4,195.9 166.3,199 164.6,202.2 167.6,207.2 167.3,212.9 166.5,214.7
    166.8,216 167.5,217.6 172.3,217.5 171.5,216.1 171.2,214.8 173.4,212.9 175.6,211.7 180.6,212 182.6,213 185.4,215.8 189,217.5
    191.6,218.1 194,220 196.5,221.1 197,225 197.2,228.4 196.2,229.2 192.7,229.4 191.7,230.3 190.3,234.2 190.8,235.4 190.1,238.6
    192.4,240.9 198.4,241.7 199.1,237.2 200,236.3 202,235.2 205.7,235.2 207.1,236.7 210.8,235.8 213.2,233.2 214.6,233 217.4,233.7
    219.6,233.2 222.4,230.3 224.1,229.9 224.4,227.1 225.6,226.2 229.8,225.9 232.4,223 233.6,223.3 237.1,223 238.5,219.2
    240.4,216.1 242.5,214.2 250.4,214 250.7,212.1 249.4,210.9 249.8,202.9 250.5,200.9 252.7,198.7 254.7,197.5 257.2,197.1
    257.6,195.2 258.7,194.3 264.8,191.1 274.7,191.1 280.6,193.5 289,197.3 291.2,199.9 292.5,200.1 291.9,201.1 291.7,203.3
    293.6,203.9 294.8,202.9 298.5,203.2 301.7,203.6 304.1,202.7 306.4,200.9 306.8,199 307.9,199.1 312.7,203.3 313.7,203.7
    315.5,202.5 315.8,201.2 318.6,198.3 309.2,188.5 306.5,188.6 305.7,189.2 304.6,189.2 302.8,187.4 302.7,181.6 301.4,175.4
    300.4,170 299.7,167.8 298.4,149.8 297.2,147.6 295.8,144.3 294.3,141.1 294.8,139.6 297.4,135.3 298,126.1 304.8,105 316.9,99.6
    330.5,99.5 338.1,112.1 347.1,109.2 351,110.6 360.8,103.9 363.4,92.6 374,87.8 381.2,95 393.9,88.5 405.4,95 417.1,91.9
    432.5,100.2 441.7,95 456.7,101.9 456.7,92.7 466.7,90.1 476.1,96.4 494.9,107.1 497.5,108.6 511,108.9 511.5,109.5 514.2,110.5
    516.1,111.1 521.1,116 521.8,117.7 522.6,119.8 523.5,122.8 524.3,124.5 526.2,125.9 526.4,127.4 536.2,137 536.8,138.3
    539.3,139.9 539.3,141.5 541.5,143.6 543.4,144.3 545.3,146.5 547.2,147.2 549.5,149.4 555.4,152.6 563.3,154.5 566.4,155.5
    568.3,156.1 569.6,157.6 578.7,157.6 582.8,156.6 584.7,155.9 585.8,154.7 586.9,152.7 587.7,148.6 588,139.1 589.9,137.6
    590.5,135.7 597.9,127.9 599.7,127.7 601.1,125.9 602.5,125.7 604.2,124 605.9,123.9 609.1,122.3 611.7,121.5 615.8,120.3
    624.6,120.1 627.3,121.4 630.1,124.5 632.5,125.9 637.3,125.9 638.8,123.9 640.4,123.8 649.4,114.8 651.5,110.8 652,107.6
    649.6,105.8 647.4,104.5 645.8,104.1 645.1,102.5 642.9,101.9 641.9,100 637.9,95.4 636.9,94.8 637.4,91 638.1,89 638.9,88.1
    642.1,87.5 645.5,87.1 647.1,85.1 649.2,84.3 652.4,83.3 654.3,82.9 656.8,80.7 657.4,78.7 662,73.8 665.1,73.5 665.6,73 671,72.9
    671.4,73.7 673.1,74.1 676.9,78.3 679,80 684.3,80.2 685,79.3 693,78.4 694.9,79 696.2,79.9 695.1,81.6 696.3,81.8 697.9,79.8
    701.4,79.7 705.9,75.1 707.9,75 710,76.9 710,78.4 711,78.9 710.9,89.5 712.3,90.7 718,90.9 720.6,88.7 721,82 721.8,79.9
    722.9,79 728.6,79.1 729.2,79.9 731.7,80 731.8,77.7 732.8,76.8 734.4,76.7 734.7,74.5 733.7,73.9 733.7,71.6 735.7,70 738.1,69.6
    741.1,68.6 743.4,66.5 743.8,63.9 745.8,63.2 747.8,64 748.6,64.7 749,66.3 749.7,66.6 751.1,65.4 751.5,63.5 753.3,64.4
    761.7,64.4 763.6,63.6 765.8,60.6 768.4,59.5 773.5,58.3 775.5,58.1 779.7,59.9 781.3,61.5 784,63.6 786.1,64.8 787.4,65.7
    791.2,65.7 792.1,64.7 794.4,64.5 795.6,64 796.8,63.3 798.1,62 798.2,61.2 796.7,59.8 796.1,59.5 796.3,58.3 797.3,57.7
    797.9,56.4 799.2,55.7 800.9,54 802.4,53.4 804.2,52.2 804.7,51.1 805,50.8 805,48.4 804.4,47.5 803,47.5 802.3,50.4 801,50.4
    800.1,49.5 800,44.8 801.5,43.1 802.7,40.7 803.8,39.9 803.9,32.4 805,31.6 809.5,31.6 810.9,32.4 812.5,33.1 814,32.6 815,31.8
    816.5,24.2 817.5,21.1 819,19.4 820.6,18.1 822.6,16.1 825.3,14.7 826.8,15.2 829.5,18.3 830.5,20.1 832.3,20.6 833.8,20.1
    836.5,16.8 839.4,16.4 840.1,15.6 842.7,15.5 845.8,18.3 847.5,19 848.4,20.1 849,20.4 856.4,20.5 856.8,20.2 858,17.7 860,17.6
    863.4,21.2 863.9,21.9 864.2,25.7 864.8,26.6 865.5,29.2 866.9,30.3 868.4,31.1 868.8,31.5 872,32 872.5,32.3 875.6,29.9
    879.7,29.9 880.8,30.6 883.3,31.5 883.6,31.7 886.2,31.7 887.5,30.6 888.6,31.5 890,32 892.1,32.5 893.1,31.6 895.1,30.8
    903.7,30.6 904.5,29.3 905.7,28.2 911.3,26.8 913.6,26.1 914.2,25.6 915.9,25.6 919.3,29.2 919.9,29.6 922.2,29.6 923.8,29
    925,27.8 927.8,27.8 932.2,30.2 933.5,30.6 940.5,30.8 941.9,31.6 944.1,32.1 945.2,32.7 952.2,32.7 953,31.8 954.6,31.8
    956.1,32.6 957.4,34.4 961.4,38.4 963.3,41.4 964.8,42.7 968.6,42.8 975.3,49.3 976,49.7 977,50.9 976.4,52.1 975.5,53 974.4,55
    973.2,56.5 972.9,57.6 973.5,58.6 974,59.6 974.9,60.7 978.9,60.8 980.9,59 983,58.1 983.6,57 986,55.6 986.1,45.6 986.4,35.3
    987.4,34.1 989.2,33.6 990.3,32.2 996.2,29.6 998.2,27.7 999.7,23.8 1000.4,21.1 1002.5,19.2 1010.1,16.2 1012.4,14.6 1014.7,8.8
    1014.8,6.8 1015.5,0   "/>
</g>
</svg>
